<svg width="1359" height="48" viewBox="0 0 1359 48" fill="none" xmlns="http://www.w3.org/2000/svg">
<path d="M939.443 8.57955H936.602C936.564 8.28788 936.487 8.02462 936.369 7.78977C936.252 7.55492 936.097 7.35417 935.903 7.1875C935.71 7.02083 935.481 6.89394 935.216 6.80682C934.955 6.71591 934.665 6.67045 934.347 6.67045C933.782 6.67045 933.295 6.80871 932.886 7.08523C932.481 7.36174 932.169 7.76136 931.949 8.28409C931.733 8.80682 931.625 9.43939 931.625 10.1818C931.625 10.9545 931.735 11.6023 931.955 12.125C932.178 12.6439 932.491 13.036 932.892 13.3011C933.297 13.5625 933.777 13.6932 934.33 13.6932C934.64 13.6932 934.922 13.6534 935.176 13.5739C935.434 13.4943 935.659 13.3788 935.852 13.2273C936.049 13.072 936.21 12.8845 936.335 12.6648C936.464 12.4413 936.553 12.1894 936.602 11.9091L939.443 11.9261C939.394 12.4413 939.244 12.9489 938.994 13.4489C938.748 13.9489 938.409 14.4053 937.977 14.8182C937.545 15.2273 937.019 15.553 936.398 15.7955C935.78 16.0379 935.072 16.1591 934.273 16.1591C933.22 16.1591 932.277 15.928 931.443 15.4659C930.614 15 929.958 14.322 929.477 13.4318C928.996 12.5417 928.756 11.4583 928.756 10.1818C928.756 8.90152 929 7.81629 929.489 6.92614C929.977 6.03598 930.638 5.35985 931.472 4.89773C932.305 4.43561 933.239 4.20455 934.273 4.20455C934.977 4.20455 935.629 4.30303 936.227 4.5C936.826 4.69318 937.352 4.97727 937.807 5.35227C938.261 5.72348 938.631 6.17992 938.915 6.72159C939.199 7.26326 939.375 7.88258 939.443 8.57955ZM952.036 10.1818C952.036 11.4621 951.789 12.5473 951.297 13.4375C950.804 14.3277 950.138 15.0038 949.297 15.4659C948.46 15.928 947.52 16.1591 946.479 16.1591C945.433 16.1591 944.492 15.9261 943.655 15.4602C942.818 14.9943 942.153 14.3182 941.661 13.4318C941.172 12.5417 940.928 11.4583 940.928 10.1818C940.928 8.90152 941.172 7.81629 941.661 6.92614C942.153 6.03598 942.818 5.35985 943.655 4.89773C944.492 4.43561 945.433 4.20455 946.479 4.20455C947.52 4.20455 948.46 4.43561 949.297 4.89773C950.138 5.35985 950.804 6.03598 951.297 6.92614C951.789 7.81629 952.036 8.90152 952.036 10.1818ZM949.161 10.1818C949.161 9.42424 949.053 8.78409 948.837 8.26136C948.625 7.73864 948.318 7.3428 947.916 7.07386C947.518 6.80492 947.039 6.67045 946.479 6.67045C945.922 6.67045 945.443 6.80492 945.041 7.07386C944.64 7.3428 944.331 7.73864 944.115 8.26136C943.903 8.78409 943.797 9.42424 943.797 10.1818C943.797 10.9394 943.903 11.5795 944.115 12.1023C944.331 12.625 944.64 13.0208 945.041 13.2898C945.443 13.5587 945.922 13.6932 946.479 13.6932C947.039 13.6932 947.518 13.5587 947.916 13.2898C948.318 13.0208 948.625 12.625 948.837 12.1023C949.053 11.5795 949.161 10.9394 949.161 10.1818ZM963.581 4.36364V16H961.195L956.564 9.28409H956.49V16H953.678V4.36364H956.098L960.678 11.0682H960.774V4.36364H963.581ZM969.651 16H965.349V4.36364H969.645C970.83 4.36364 971.851 4.59659 972.707 5.0625C973.567 5.52462 974.23 6.19129 974.696 7.0625C975.162 7.92992 975.395 8.9678 975.395 10.1761C975.395 11.3883 975.162 12.4299 974.696 13.3011C974.234 14.1723 973.573 14.8409 972.713 15.3068C971.853 15.7689 970.832 16 969.651 16ZM968.162 13.6023H969.543C970.194 13.6023 970.745 13.4924 971.196 13.2727C971.651 13.0492 971.993 12.6875 972.224 12.1875C972.459 11.6837 972.577 11.0133 972.577 10.1761C972.577 9.33902 972.459 8.67235 972.224 8.17614C971.99 7.67614 971.643 7.31629 971.185 7.09659C970.73 6.87311 970.17 6.76136 969.503 6.76136H968.162V13.6023ZM979.849 4.36364V16H977.037V4.36364H979.849ZM992.178 8.57955H989.337C989.299 8.28788 989.221 8.02462 989.104 7.78977C988.986 7.55492 988.831 7.35417 988.638 7.1875C988.445 7.02083 988.215 6.89394 987.95 6.80682C987.689 6.71591 987.399 6.67045 987.081 6.67045C986.517 6.67045 986.03 6.80871 985.621 7.08523C985.215 7.36174 984.903 7.76136 984.683 8.28409C984.467 8.80682 984.359 9.43939 984.359 10.1818C984.359 10.9545 984.469 11.6023 984.689 12.125C984.912 12.6439 985.225 13.036 985.626 13.3011C986.032 13.5625 986.511 13.6932 987.064 13.6932C987.375 13.6932 987.657 13.6534 987.911 13.5739C988.168 13.4943 988.393 13.3788 988.587 13.2273C988.784 13.072 988.945 12.8845 989.07 12.6648C989.198 12.4413 989.287 12.1894 989.337 11.9091L992.178 11.9261C992.128 12.4413 991.979 12.9489 991.729 13.4489C991.482 13.9489 991.143 14.4053 990.712 14.8182C990.28 15.2273 989.753 15.553 989.132 15.7955C988.515 16.0379 987.806 16.1591 987.007 16.1591C985.954 16.1591 985.011 15.928 984.178 15.4659C983.348 15 982.693 14.322 982.212 13.4318C981.731 12.5417 981.49 11.4583 981.49 10.1818C981.49 8.90152 981.734 7.81629 982.223 6.92614C982.712 6.03598 983.373 5.35985 984.206 4.89773C985.039 4.43561 985.973 4.20455 987.007 4.20455C987.712 4.20455 988.363 4.30303 988.962 4.5C989.56 4.69318 990.087 4.97727 990.541 5.35227C990.996 5.72348 991.365 6.17992 991.649 6.72159C991.933 7.26326 992.109 7.88258 992.178 8.57955ZM986.399 15.9375H987.513L987.422 16.4489C987.839 16.5095 988.172 16.6591 988.422 16.8977C988.672 17.1402 988.799 17.4545 988.803 17.8409C988.806 18.4318 988.524 18.8977 987.956 19.2386C987.392 19.5833 986.606 19.7557 985.598 19.7557L985.587 18.6136C986.106 18.6136 986.507 18.5549 986.791 18.4375C987.075 18.3201 987.223 18.142 987.234 17.9034C987.246 17.6837 987.161 17.5076 986.979 17.375C986.797 17.2462 986.515 17.1572 986.132 17.108L986.399 15.9375ZM1004.77 10.1818C1004.77 11.4621 1004.52 12.5473 1004.03 13.4375C1003.54 14.3277 1002.87 15.0038 1002.03 15.4659C1001.19 15.928 1000.25 16.1591 999.213 16.1591C998.168 16.1591 997.226 15.9261 996.389 15.4602C995.552 14.9943 994.887 14.3182 994.395 13.4318C993.906 12.5417 993.662 11.4583 993.662 10.1818C993.662 8.90152 993.906 7.81629 994.395 6.92614C994.887 6.03598 995.552 5.35985 996.389 4.89773C997.226 4.43561 998.168 4.20455 999.213 4.20455C1000.25 4.20455 1001.19 4.43561 1002.03 4.89773C1002.87 5.35985 1003.54 6.03598 1004.03 6.92614C1004.52 7.81629 1004.77 8.90152 1004.77 10.1818ZM1001.89 10.1818C1001.89 9.42424 1001.79 8.78409 1001.57 8.26136C1001.36 7.73864 1001.05 7.3428 1000.65 7.07386C1000.25 6.80492 999.774 6.67045 999.213 6.67045C998.656 6.67045 998.177 6.80492 997.776 7.07386C997.374 7.3428 997.065 7.73864 996.849 8.26136C996.637 8.78409 996.531 9.42424 996.531 10.1818C996.531 10.9394 996.637 11.5795 996.849 12.1023C997.065 12.625 997.374 13.0208 997.776 13.2898C998.177 13.5587 998.656 13.6932 999.213 13.6932C999.774 13.6932 1000.25 13.5587 1000.65 13.2898C1001.05 13.0208 1001.36 12.625 1001.57 12.1023C1001.79 11.5795 1001.89 10.9394 1001.89 10.1818ZM997.628 3.22159L996.185 3.21591C996.185 2.44318 996.366 1.85985 996.73 1.46591C997.098 1.07197 997.546 0.875 998.077 0.875C998.353 0.875 998.59 0.920454 998.787 1.01136C998.988 1.09848 999.166 1.20076 999.321 1.31818C999.476 1.43561 999.62 1.53977 999.753 1.63068C999.885 1.7178 1000.03 1.76136 1000.18 1.76136C1000.4 1.76136 1000.56 1.68182 1000.66 1.52273C1000.77 1.36364 1000.82 1.14962 1000.83 0.880681L1002.25 0.897727C1002.24 1.65909 1002.05 2.24053 1001.68 2.64205C1001.32 3.03977 1000.88 3.24242 1000.36 3.25C1000.07 3.25379 999.823 3.21023 999.622 3.11932C999.425 3.02841 999.253 2.92424 999.105 2.80682C998.961 2.68939 998.823 2.58523 998.69 2.49432C998.558 2.40341 998.412 2.35795 998.253 2.35795C998.063 2.35795 997.912 2.43371 997.798 2.58523C997.685 2.73674 997.628 2.94886 997.628 3.22159ZM1006.41 16V4.36364H1014.53V6.64773H1009.22V9.03409H1014.11V11.3239H1009.22V13.7159H1014.53V16H1006.41ZM1022.58 7.85227C1022.54 7.43561 1022.37 7.11174 1022.07 6.88068C1021.78 6.64583 1021.35 6.52841 1020.8 6.52841C1020.44 6.52841 1020.14 6.57576 1019.89 6.67045C1019.65 6.76515 1019.47 6.89583 1019.35 7.0625C1019.23 7.22538 1019.17 7.41288 1019.16 7.625C1019.15 7.79924 1019.19 7.95265 1019.26 8.08523C1019.34 8.2178 1019.46 8.33523 1019.61 8.4375C1019.76 8.53598 1019.94 8.62311 1020.15 8.69886C1020.36 8.77462 1020.6 8.84091 1020.87 8.89773L1021.87 9.125C1022.44 9.25 1022.95 9.41667 1023.39 9.625C1023.83 9.83333 1024.2 10.0814 1024.5 10.3693C1024.81 10.6572 1025.04 10.9886 1025.19 11.3636C1025.35 11.7386 1025.43 12.1591 1025.43 12.625C1025.43 13.3598 1025.24 13.9905 1024.87 14.517C1024.5 15.0436 1023.98 15.447 1023.29 15.7273C1022.6 16.0076 1021.77 16.1477 1020.8 16.1477C1019.83 16.1477 1018.98 16.0019 1018.26 15.7102C1017.54 15.4186 1016.97 14.9754 1016.57 14.3807C1016.17 13.786 1015.96 13.0341 1015.95 12.125H1018.64C1018.67 12.5 1018.77 12.8125 1018.95 13.0625C1019.12 13.3125 1019.37 13.5019 1019.68 13.6307C1019.99 13.7595 1020.36 13.8239 1020.77 13.8239C1021.15 13.8239 1021.47 13.7727 1021.74 13.6705C1022 13.5682 1022.21 13.4261 1022.36 13.2443C1022.5 13.0625 1022.57 12.8542 1022.58 12.6193C1022.57 12.3996 1022.5 12.2121 1022.37 12.0568C1022.24 11.8977 1022.04 11.7614 1021.76 11.6477C1021.49 11.5303 1021.14 11.4223 1020.71 11.3239L1019.5 11.0398C1018.49 10.8087 1017.7 10.4356 1017.12 9.92045C1016.54 9.40151 1016.25 8.70076 1016.25 7.81818C1016.25 7.09848 1016.44 6.4678 1016.83 5.92614C1017.22 5.38447 1017.76 4.96212 1018.45 4.65909C1019.14 4.35606 1019.93 4.20455 1020.81 4.20455C1021.71 4.20455 1022.49 4.35795 1023.16 4.66477C1023.82 4.9678 1024.34 5.39394 1024.71 5.94318C1025.07 6.49242 1025.26 7.12879 1025.27 7.85227H1022.58ZM1030.29 16V4.36364H1038.4V6.64773H1033.1V9.03409H1037.99V11.3239H1033.1V13.7159H1038.4V16H1030.29ZM1046.45 7.85227C1046.41 7.43561 1046.25 7.11174 1045.95 6.88068C1045.65 6.64583 1045.23 6.52841 1044.68 6.52841C1044.32 6.52841 1044.01 6.57576 1043.77 6.67045C1043.53 6.76515 1043.35 6.89583 1043.22 7.0625C1043.1 7.22538 1043.04 7.41288 1043.04 7.625C1043.03 7.79924 1043.06 7.95265 1043.14 8.08523C1043.22 8.2178 1043.33 8.33523 1043.48 8.4375C1043.63 8.53598 1043.81 8.62311 1044.03 8.69886C1044.24 8.77462 1044.48 8.84091 1044.74 8.89773L1045.74 9.125C1046.32 9.25 1046.82 9.41667 1047.26 9.625C1047.71 9.83333 1048.08 10.0814 1048.38 10.3693C1048.68 10.6572 1048.91 10.9886 1049.07 11.3636C1049.22 11.7386 1049.3 12.1591 1049.3 12.625C1049.3 13.3598 1049.11 13.9905 1048.75 14.517C1048.38 15.0436 1047.85 15.447 1047.16 15.7273C1046.48 16.0076 1045.65 16.1477 1044.68 16.1477C1043.71 16.1477 1042.86 16.0019 1042.13 15.7102C1041.41 15.4186 1040.85 14.9754 1040.45 14.3807C1040.04 13.786 1039.84 13.0341 1039.83 12.125H1042.52C1042.54 12.5 1042.64 12.8125 1042.82 13.0625C1043 13.3125 1043.24 13.5019 1043.55 13.6307C1043.87 13.7595 1044.23 13.8239 1044.64 13.8239C1045.02 13.8239 1045.35 13.7727 1045.61 13.6705C1045.88 13.5682 1046.09 13.4261 1046.23 13.2443C1046.37 13.0625 1046.45 12.8542 1046.45 12.6193C1046.45 12.3996 1046.38 12.2121 1046.25 12.0568C1046.11 11.8977 1045.91 11.7614 1045.63 11.6477C1045.36 11.5303 1045.01 11.4223 1044.59 11.3239L1043.37 11.0398C1042.36 10.8087 1041.57 10.4356 1040.99 9.92045C1040.41 9.40151 1040.12 8.70076 1040.13 7.81818C1040.12 7.09848 1040.32 6.4678 1040.71 5.92614C1041.1 5.38447 1041.64 4.96212 1042.33 4.65909C1043.02 4.35606 1043.8 4.20455 1044.68 4.20455C1045.59 4.20455 1046.37 4.35795 1047.03 4.66477C1047.7 4.9678 1048.21 5.39394 1048.58 5.94318C1048.95 6.49242 1049.14 7.12879 1049.14 7.85227H1046.45ZM1050.72 16V4.36364H1055.53C1056.4 4.36364 1057.15 4.53409 1057.79 4.875C1058.42 5.21212 1058.91 5.68371 1059.26 6.28977C1059.6 6.89205 1059.78 7.5928 1059.78 8.39205C1059.78 9.19508 1059.6 9.89773 1059.25 10.5C1058.9 11.0985 1058.4 11.5625 1057.75 11.892C1057.11 12.2216 1056.34 12.3864 1055.45 12.3864H1052.48V10.1705H1054.92C1055.35 10.1705 1055.7 10.0966 1055.99 9.94886C1056.27 9.80114 1056.49 9.5947 1056.64 9.32955C1056.79 9.06061 1056.86 8.74811 1056.86 8.39205C1056.86 8.0322 1056.79 7.72159 1056.64 7.46023C1056.49 7.19508 1056.27 6.99053 1055.99 6.84659C1055.7 6.70265 1055.34 6.63068 1054.92 6.63068H1053.54V16H1050.72ZM1061.16 16V4.36364H1069.28V6.64773H1063.97V9.03409H1068.86V11.3239H1063.97V13.7159H1069.28V16H1061.16ZM1081.6 8.57955H1078.76C1078.72 8.28788 1078.64 8.02462 1078.53 7.78977C1078.41 7.55492 1078.25 7.35417 1078.06 7.1875C1077.87 7.02083 1077.64 6.89394 1077.37 6.80682C1077.11 6.71591 1076.82 6.67045 1076.5 6.67045C1075.94 6.67045 1075.45 6.80871 1075.04 7.08523C1074.64 7.36174 1074.32 7.76136 1074.11 8.28409C1073.89 8.80682 1073.78 9.43939 1073.78 10.1818C1073.78 10.9545 1073.89 11.6023 1074.11 12.125C1074.33 12.6439 1074.65 13.036 1075.05 13.3011C1075.45 13.5625 1075.93 13.6932 1076.49 13.6932C1076.8 13.6932 1077.08 13.6534 1077.33 13.5739C1077.59 13.4943 1077.82 13.3788 1078.01 13.2273C1078.21 13.072 1078.37 12.8845 1078.49 12.6648C1078.62 12.4413 1078.71 12.1894 1078.76 11.9091L1081.6 11.9261C1081.55 12.4413 1081.4 12.9489 1081.15 13.4489C1080.9 13.9489 1080.57 14.4053 1080.13 14.8182C1079.7 15.2273 1079.18 15.553 1078.55 15.7955C1077.94 16.0379 1077.23 16.1591 1076.43 16.1591C1075.38 16.1591 1074.43 15.928 1073.6 15.4659C1072.77 15 1072.11 14.322 1071.63 13.4318C1071.15 12.5417 1070.91 11.4583 1070.91 10.1818C1070.91 8.90152 1071.16 7.81629 1071.64 6.92614C1072.13 6.03598 1072.79 5.35985 1073.63 4.89773C1074.46 4.43561 1075.39 4.20455 1076.43 4.20455C1077.13 4.20455 1077.79 4.30303 1078.38 4.5C1078.98 4.69318 1079.51 4.97727 1079.96 5.35227C1080.42 5.72348 1080.79 6.17992 1081.07 6.72159C1081.36 7.26326 1081.53 7.88258 1081.6 8.57955ZM1086.02 4.36364V16H1083.21V4.36364H1086.02ZM1090.3 16H1087.28L1091.21 4.36364H1094.95L1098.88 16H1095.86L1093.12 7.29545H1093.03L1090.3 16ZM1089.9 11.4205H1096.22V13.5568H1089.9V11.4205ZM1102.94 4.36364V16H1100.13V4.36364H1102.94ZM1111 7.85227C1110.96 7.43561 1110.79 7.11174 1110.49 6.88068C1110.2 6.64583 1109.78 6.52841 1109.23 6.52841C1108.86 6.52841 1108.56 6.57576 1108.32 6.67045C1108.07 6.76515 1107.89 6.89583 1107.77 7.0625C1107.65 7.22538 1107.59 7.41288 1107.58 7.625C1107.58 7.79924 1107.61 7.95265 1107.69 8.08523C1107.77 8.2178 1107.88 8.33523 1108.03 8.4375C1108.18 8.53598 1108.36 8.62311 1108.57 8.69886C1108.78 8.77462 1109.02 8.84091 1109.29 8.89773L1110.29 9.125C1110.86 9.25 1111.37 9.41667 1111.81 9.625C1112.25 9.83333 1112.63 10.0814 1112.92 10.3693C1113.23 10.6572 1113.46 10.9886 1113.61 11.3636C1113.77 11.7386 1113.85 12.1591 1113.85 12.625C1113.85 13.3598 1113.66 13.9905 1113.29 14.517C1112.93 15.0436 1112.4 15.447 1111.71 15.7273C1111.02 16.0076 1110.2 16.1477 1109.23 16.1477C1108.25 16.1477 1107.4 16.0019 1106.68 15.7102C1105.96 15.4186 1105.39 14.9754 1104.99 14.3807C1104.59 13.786 1104.38 13.0341 1104.37 12.125H1107.07C1107.09 12.5 1107.19 12.8125 1107.37 13.0625C1107.55 13.3125 1107.79 13.5019 1108.1 13.6307C1108.42 13.7595 1108.78 13.8239 1109.19 13.8239C1109.57 13.8239 1109.89 13.7727 1110.16 13.6705C1110.43 13.5682 1110.63 13.4261 1110.78 13.2443C1110.92 13.0625 1110.99 12.8542 1111 12.6193C1110.99 12.3996 1110.93 12.2121 1110.79 12.0568C1110.66 11.8977 1110.46 11.7614 1110.18 11.6477C1109.91 11.5303 1109.56 11.4223 1109.13 11.3239L1107.92 11.0398C1106.91 10.8087 1106.12 10.4356 1105.54 9.92045C1104.96 9.40151 1104.67 8.70076 1104.67 7.81818C1104.67 7.09848 1104.86 6.4678 1105.25 5.92614C1105.64 5.38447 1106.18 4.96212 1106.87 4.65909C1107.56 4.35606 1108.35 4.20455 1109.23 4.20455C1110.13 4.20455 1110.92 4.35795 1111.58 4.66477C1112.24 4.9678 1112.76 5.39394 1113.13 5.94318C1113.5 6.49242 1113.68 7.12879 1113.69 7.85227H1111ZM1116.83 14.6932C1116.42 14.6932 1116.07 14.5492 1115.78 14.2614C1115.49 13.9735 1115.35 13.625 1115.36 13.2159C1115.35 12.8144 1115.49 12.4716 1115.78 12.1875C1116.07 11.8996 1116.42 11.7557 1116.83 11.7557C1117.22 11.7557 1117.56 11.8996 1117.86 12.1875C1118.16 12.4716 1118.31 12.8144 1118.31 13.2159C1118.31 13.4886 1118.24 13.7367 1118.1 13.9602C1117.96 14.1837 1117.78 14.3617 1117.56 14.4943C1117.34 14.6269 1117.1 14.6932 1116.83 14.6932ZM1116.83 9.04545C1116.42 9.04545 1116.07 8.90152 1115.78 8.61364C1115.49 8.32576 1115.35 7.97727 1115.36 7.56818C1115.35 7.16667 1115.49 6.82386 1115.78 6.53977C1116.07 6.25189 1116.42 6.10795 1116.83 6.10795C1117.22 6.10795 1117.56 6.25189 1117.86 6.53977C1118.16 6.82386 1118.31 7.16667 1118.31 7.56818C1118.31 7.84091 1118.24 8.08901 1118.1 8.3125C1117.96 8.53598 1117.78 8.71401 1117.56 8.84659C1117.34 8.97917 1117.1 9.04545 1116.83 9.04545ZM938.773 27H937.364C937.28 26.5947 937.134 26.2386 936.926 25.9318C936.722 25.625 936.472 25.3674 936.176 25.1591C935.884 24.947 935.561 24.7879 935.205 24.6818C934.848 24.5758 934.477 24.5227 934.091 24.5227C933.386 24.5227 932.748 24.7008 932.176 25.0568C931.608 25.4129 931.155 25.9375 930.818 26.6307C930.485 27.3239 930.318 28.1742 930.318 29.1818C930.318 30.1894 930.485 31.0398 930.818 31.733C931.155 32.4261 931.608 32.9508 932.176 33.3068C932.748 33.6629 933.386 33.8409 934.091 33.8409C934.477 33.8409 934.848 33.7879 935.205 33.6818C935.561 33.5758 935.884 33.4186 936.176 33.2102C936.472 32.9981 936.722 32.7386 936.926 32.4318C937.134 32.1212 937.28 31.7652 937.364 31.3636H938.773C938.667 31.9583 938.473 32.4905 938.193 32.9602C937.913 33.4299 937.564 33.8295 937.148 34.1591C936.731 34.4848 936.263 34.733 935.744 34.9034C935.229 35.0739 934.678 35.1591 934.091 35.1591C933.098 35.1591 932.216 34.9167 931.443 34.4318C930.67 33.947 930.063 33.2576 929.619 32.3636C929.176 31.4697 928.955 30.4091 928.955 29.1818C928.955 27.9545 929.176 26.8939 929.619 26C930.063 25.1061 930.67 24.4167 931.443 23.9318C932.216 23.447 933.098 23.2045 934.091 23.2045C934.678 23.2045 935.229 23.2898 935.744 23.4602C936.263 23.6307 936.731 23.8807 937.148 24.2102C937.564 24.536 937.913 24.9337 938.193 25.4034C938.473 25.8693 938.667 26.4015 938.773 27ZM941.05 35V23.3636H942.459V33.75H947.868V35H941.05ZM951.459 23.3636V35H950.05V23.3636H951.459ZM950.141 22.1818L951.527 19.5455H953.095L951.322 22.1818H950.141ZM963.511 23.3636V35H962.148L955.807 25.8636H955.693V35H954.284V23.3636H955.648L962.011 32.5227H962.125V23.3636H963.511ZM967.74 23.3636V35H966.331V23.3636H967.74ZM979.929 27H978.52C978.437 26.5947 978.291 26.2386 978.082 25.9318C977.878 25.625 977.628 25.3674 977.332 25.1591C977.041 24.947 976.717 24.7879 976.361 24.6818C976.005 24.5758 975.634 24.5227 975.247 24.5227C974.543 24.5227 973.904 24.7008 973.332 25.0568C972.764 25.4129 972.312 25.9375 971.974 26.6307C971.641 27.3239 971.474 28.1742 971.474 29.1818C971.474 30.1894 971.641 31.0398 971.974 31.733C972.312 32.4261 972.764 32.9508 973.332 33.3068C973.904 33.6629 974.543 33.8409 975.247 33.8409C975.634 33.8409 976.005 33.7879 976.361 33.6818C976.717 33.5758 977.041 33.4186 977.332 33.2102C977.628 32.9981 977.878 32.7386 978.082 32.4318C978.291 32.1212 978.437 31.7652 978.52 31.3636H979.929C979.823 31.9583 979.63 32.4905 979.349 32.9602C979.069 33.4299 978.721 33.8295 978.304 34.1591C977.887 34.4848 977.42 34.733 976.901 34.9034C976.385 35.0739 975.834 35.1591 975.247 35.1591C974.255 35.1591 973.372 34.9167 972.599 34.4318C971.827 33.947 971.219 33.2576 970.776 32.3636C970.332 31.4697 970.111 30.4091 970.111 29.1818C970.111 27.9545 970.332 26.8939 970.776 26C971.219 25.1061 971.827 24.4167 972.599 23.9318C973.372 23.447 974.255 23.2045 975.247 23.2045C975.834 23.2045 976.385 23.2898 976.901 23.4602C977.42 23.6307 977.887 23.8807 978.304 24.2102C978.721 24.536 979.069 24.9337 979.349 25.4034C979.63 25.8693 979.823 26.4015 979.929 27ZM982.683 35H981.206L985.479 23.3636H986.933L991.206 35H989.729L986.251 25.2045H986.161L982.683 35ZM983.229 30.4545H989.183V31.7045H983.229V30.4545ZM999.382 26.2727C999.314 25.697 999.037 25.25 998.553 24.9318C998.068 24.6136 997.473 24.4545 996.768 24.4545C996.253 24.4545 995.803 24.5379 995.416 24.7045C995.034 24.8712 994.734 25.1004 994.518 25.392C994.306 25.6837 994.2 26.0152 994.2 26.3864C994.2 26.697 994.274 26.964 994.422 27.1875C994.573 27.4072 994.767 27.5909 995.001 27.7386C995.236 27.8826 995.482 28.0019 995.74 28.0966C995.998 28.1875 996.234 28.2614 996.45 28.3182L997.632 28.6364C997.935 28.7159 998.272 28.8258 998.643 28.9659C999.018 29.1061 999.376 29.2973 999.717 29.5398C1000.06 29.7784 1000.35 30.0852 1000.57 30.4602C1000.79 30.8352 1000.9 31.2955 1000.9 31.8409C1000.9 32.4697 1000.74 33.0379 1000.41 33.5455C1000.08 34.053 999.607 34.4564 998.979 34.7557C998.354 35.0549 997.594 35.2045 996.7 35.2045C995.867 35.2045 995.145 35.0701 994.536 34.8011C993.929 34.5322 993.452 34.1572 993.104 33.6761C992.759 33.1951 992.564 32.6364 992.518 32H993.973C994.011 32.4394 994.159 32.803 994.416 33.0909C994.678 33.375 995.007 33.5871 995.405 33.7273C995.806 33.8636 996.238 33.9318 996.7 33.9318C997.238 33.9318 997.721 33.8447 998.149 33.6705C998.577 33.4924 998.916 33.2462 999.166 32.9318C999.416 32.6136 999.541 32.2424 999.541 31.8182C999.541 31.4318 999.433 31.1174 999.217 30.875C999.001 30.6326 998.717 30.4356 998.365 30.2841C998.013 30.1326 997.632 30 997.223 29.8864L995.791 29.4773C994.882 29.2159 994.162 28.8428 993.632 28.358C993.102 27.8731 992.837 27.2386 992.837 26.4545C992.837 25.803 993.013 25.2348 993.365 24.75C993.721 24.2614 994.198 23.8826 994.797 23.6136C995.399 23.3409 996.071 23.2045 996.814 23.2045C997.564 23.2045 998.231 23.339 998.814 23.608C999.397 23.8731 999.859 24.2367 1000.2 24.6989C1000.54 25.161 1000.73 25.6856 1000.75 26.2727H999.382ZM1007.72 35V23.3636H1014.74V24.6136H1009.13V28.5455H1014.38V29.7955H1009.13V33.75H1014.84V35H1007.72ZM1021.78 35V23.3636H1023.19V28.5455H1029.4V23.3636H1030.81V35H1029.4V29.7955H1023.19V35H1021.78ZM1043.45 29.1818C1043.45 30.4091 1043.22 31.4697 1042.78 32.3636C1042.34 33.2576 1041.73 33.947 1040.96 34.4318C1040.18 34.9167 1039.3 35.1591 1038.31 35.1591C1037.32 35.1591 1036.43 34.9167 1035.66 34.4318C1034.89 33.947 1034.28 33.2576 1033.84 32.3636C1033.39 31.4697 1033.17 30.4091 1033.17 29.1818C1033.17 27.9545 1033.39 26.8939 1033.84 26C1034.28 25.1061 1034.89 24.4167 1035.66 23.9318C1036.43 23.447 1037.32 23.2045 1038.31 23.2045C1039.3 23.2045 1040.18 23.447 1040.96 23.9318C1041.73 24.4167 1042.34 25.1061 1042.78 26C1043.22 26.8939 1043.45 27.9545 1043.45 29.1818ZM1042.08 29.1818C1042.08 28.1742 1041.91 27.3239 1041.58 26.6307C1041.24 25.9375 1040.79 25.4129 1040.22 25.0568C1039.65 24.7008 1039.01 24.5227 1038.31 24.5227C1037.61 24.5227 1036.97 24.7008 1036.39 25.0568C1035.83 25.4129 1035.37 25.9375 1035.04 26.6307C1034.7 27.3239 1034.54 28.1742 1034.54 29.1818C1034.54 30.1894 1034.7 31.0398 1035.04 31.733C1035.37 32.4261 1035.83 32.9508 1036.39 33.3068C1036.97 33.6629 1037.61 33.8409 1038.31 33.8409C1039.01 33.8409 1039.65 33.6629 1040.22 33.3068C1040.79 32.9508 1041.24 32.4261 1041.58 31.733C1041.91 31.0398 1042.08 30.1894 1042.08 29.1818ZM1052.18 26.2727C1052.11 25.697 1051.83 25.25 1051.35 24.9318C1050.86 24.6136 1050.27 24.4545 1049.57 24.4545C1049.05 24.4545 1048.6 24.5379 1048.21 24.7045C1047.83 24.8712 1047.53 25.1004 1047.32 25.392C1047.1 25.6837 1047 26.0152 1047 26.3864C1047 26.697 1047.07 26.964 1047.22 27.1875C1047.37 27.4072 1047.56 27.5909 1047.8 27.7386C1048.03 27.8826 1048.28 28.0019 1048.54 28.0966C1048.79 28.1875 1049.03 28.2614 1049.25 28.3182L1050.43 28.6364C1050.73 28.7159 1051.07 28.8258 1051.44 28.9659C1051.82 29.1061 1052.17 29.2973 1052.51 29.5398C1052.86 29.7784 1053.14 30.0852 1053.37 30.4602C1053.59 30.8352 1053.7 31.2955 1053.7 31.8409C1053.7 32.4697 1053.54 33.0379 1053.21 33.5455C1052.88 34.053 1052.4 34.4564 1051.78 34.7557C1051.15 35.0549 1050.39 35.2045 1049.5 35.2045C1048.66 35.2045 1047.94 35.0701 1047.33 34.8011C1046.73 34.5322 1046.25 34.1572 1045.9 33.6761C1045.56 33.1951 1045.36 32.6364 1045.32 32H1046.77C1046.81 32.4394 1046.96 32.803 1047.21 33.0909C1047.47 33.375 1047.8 33.5871 1048.2 33.7273C1048.6 33.8636 1049.04 33.9318 1049.5 33.9318C1050.04 33.9318 1050.52 33.8447 1050.95 33.6705C1051.37 33.4924 1051.71 33.2462 1051.96 32.9318C1052.21 32.6136 1052.34 32.2424 1052.34 31.8182C1052.34 31.4318 1052.23 31.1174 1052.01 30.875C1051.8 30.6326 1051.51 30.4356 1051.16 30.2841C1050.81 30.1326 1050.43 30 1050.02 29.8864L1048.59 29.4773C1047.68 29.2159 1046.96 28.8428 1046.43 28.358C1045.9 27.8731 1045.63 27.2386 1045.63 26.4545C1045.63 25.803 1045.81 25.2348 1046.16 24.75C1046.52 24.2614 1047 23.8826 1047.59 23.6136C1048.2 23.3409 1048.87 23.2045 1049.61 23.2045C1050.36 23.2045 1051.03 23.339 1051.61 23.608C1052.19 23.8731 1052.66 24.2367 1053 24.6989C1053.34 25.161 1053.52 25.6856 1053.54 26.2727H1052.18ZM1056.02 35V23.3636H1059.95C1060.86 23.3636 1061.61 23.5284 1062.19 23.858C1062.77 24.1837 1063.2 24.625 1063.48 25.1818C1063.76 25.7386 1063.9 26.3598 1063.9 27.0455C1063.9 27.7311 1063.76 28.3542 1063.48 28.9148C1063.21 29.4754 1062.78 29.9223 1062.2 30.2557C1061.62 30.5852 1060.88 30.75 1059.97 30.75H1057.15V29.5H1059.93C1060.55 29.5 1061.05 29.392 1061.43 29.1761C1061.81 28.9602 1062.09 28.6686 1062.26 28.3011C1062.43 27.9299 1062.52 27.5114 1062.52 27.0455C1062.52 26.5795 1062.43 26.1629 1062.26 25.7955C1062.09 25.428 1061.81 25.1402 1061.43 24.9318C1061.04 24.7197 1060.54 24.6136 1059.9 24.6136H1057.43V35H1056.02ZM1067.58 23.3636V35H1066.17V23.3636H1067.58ZM1069.77 24.6136V23.3636H1078.5V24.6136H1074.84V35H1073.43V24.6136H1069.77ZM1079.79 35H1078.32L1082.59 23.3636H1084.04L1088.32 35H1086.84L1083.36 25.2045H1083.27L1079.79 35ZM1080.34 30.4545H1086.29V31.7045H1080.34V30.4545ZM1091.54 23.3636V35H1090.13V23.3636H1091.54ZM1100.73 26.2727C1100.66 25.697 1100.38 25.25 1099.9 24.9318C1099.41 24.6136 1098.82 24.4545 1098.11 24.4545C1097.6 24.4545 1097.15 24.5379 1096.76 24.7045C1096.38 24.8712 1096.08 25.1004 1095.86 25.392C1095.65 25.6837 1095.54 26.0152 1095.54 26.3864C1095.54 26.697 1095.62 26.964 1095.77 27.1875C1095.92 27.4072 1096.11 27.5909 1096.35 27.7386C1096.58 27.8826 1096.83 28.0019 1097.08 28.0966C1097.34 28.1875 1097.58 28.2614 1097.79 28.3182L1098.98 28.6364C1099.28 28.7159 1099.62 28.8258 1099.99 28.9659C1100.36 29.1061 1100.72 29.2973 1101.06 29.5398C1101.41 29.7784 1101.69 30.0852 1101.91 30.4602C1102.14 30.8352 1102.25 31.2955 1102.25 31.8409C1102.25 32.4697 1102.08 33.0379 1101.75 33.5455C1101.43 34.053 1100.95 34.4564 1100.32 34.7557C1099.7 35.0549 1098.94 35.2045 1098.04 35.2045C1097.21 35.2045 1096.49 35.0701 1095.88 34.8011C1095.27 34.5322 1094.8 34.1572 1094.45 33.6761C1094.1 33.1951 1093.91 32.6364 1093.86 32H1095.32C1095.35 32.4394 1095.5 32.803 1095.76 33.0909C1096.02 33.375 1096.35 33.5871 1096.75 33.7273C1097.15 33.8636 1097.58 33.9318 1098.04 33.9318C1098.58 33.9318 1099.06 33.8447 1099.49 33.6705C1099.92 33.4924 1100.26 33.2462 1100.51 32.9318C1100.76 32.6136 1100.88 32.2424 1100.88 31.8182C1100.88 31.4318 1100.78 31.1174 1100.56 30.875C1100.35 30.6326 1100.06 30.4356 1099.71 30.2841C1099.36 30.1326 1098.98 30 1098.57 29.8864L1097.13 29.4773C1096.23 29.2159 1095.51 28.8428 1094.98 28.358C1094.45 27.8731 1094.18 27.2386 1094.18 26.4545C1094.18 25.803 1094.36 25.2348 1094.71 24.75C1095.06 24.2614 1095.54 23.8826 1096.14 23.6136C1096.74 23.3409 1097.42 23.2045 1098.16 23.2045C1098.91 23.2045 1099.57 23.339 1100.16 23.608C1100.74 23.8731 1101.2 24.2367 1101.54 24.6989C1101.89 25.161 1102.07 25.6856 1102.09 26.2727H1100.73Z" fill="#B0B0B0"/>
<mask id="mask0_115_2734" style="mask-type:alpha" maskUnits="userSpaceOnUse" x="890" y="2" width="35" height="35">
<rect x="890" y="2" width="35" height="35" fill="#D9D9D9"/>
</mask>
<g mask="url(#mask0_115_2734)">
<path d="M897.917 34.2739C897.115 34.2739 896.428 33.9825 895.856 33.3997C895.285 32.8159 895 32.1145 895 31.2954V13.4246C895 12.6055 895.285 11.9046 895.856 11.3218C896.428 10.738 897.115 10.4462 897.917 10.4462H900.833C900.833 8.38606 901.545 6.62975 902.967 5.17726C904.388 3.72575 906.108 3 908.125 3C910.142 3 911.862 3.72575 913.285 5.17726C914.706 6.62975 915.417 8.38606 915.417 10.4462H918.333C919.135 10.4462 919.822 10.738 920.394 11.3218C920.965 11.9046 921.25 12.6055 921.25 13.4246V31.2954C921.25 32.1145 920.965 32.8159 920.394 33.3997C919.822 33.9825 919.135 34.2739 918.333 34.2739H897.917ZM897.917 31.2954H918.333V13.4246H897.917V31.2954ZM908.125 22.36C910.142 22.36 911.862 21.6338 913.285 20.1813C914.706 18.7298 915.417 16.974 915.417 14.9139H912.5C912.5 16.1549 912.075 17.2098 911.224 18.0785C910.373 18.9472 909.34 19.3816 908.125 19.3816C906.91 19.3816 905.877 18.9472 905.026 18.0785C904.175 17.2098 903.75 16.1549 903.75 14.9139H900.833C900.833 16.974 901.545 18.7298 902.967 20.1813C904.388 21.6338 906.108 22.36 908.125 22.36ZM903.75 10.4462H912.5C912.5 9.20513 912.075 8.15026 911.224 7.28154C910.373 6.41282 909.34 5.97846 908.125 5.97846C906.91 5.97846 905.877 6.41282 905.026 7.28154C904.175 8.15026 903.75 9.20513 903.75 10.4462Z" fill="#7EB4C1"/>
</g>
<path d="M1221.4 16H1218.38L1222.3 4.36364H1226.05L1229.97 16H1226.95L1224.22 7.29545H1224.12L1221.4 16ZM1220.99 11.4205H1227.31V13.5568H1220.99V11.4205ZM1231.22 16V4.36364H1234.04V13.7159H1238.88V16H1231.22ZM1247.37 4.36364H1250.18V11.8693C1250.18 12.7367 1249.97 13.4924 1249.56 14.1364C1249.15 14.7765 1248.57 15.2727 1247.83 15.625C1247.1 15.9735 1246.24 16.1477 1245.26 16.1477C1244.27 16.1477 1243.41 15.9735 1242.67 15.625C1241.93 15.2727 1241.36 14.7765 1240.95 14.1364C1240.54 13.4924 1240.33 12.7367 1240.33 11.8693V4.36364H1243.15V11.625C1243.15 12.0265 1243.23 12.3845 1243.41 12.6989C1243.59 13.0133 1243.83 13.2595 1244.15 13.4375C1244.47 13.6155 1244.84 13.7045 1245.26 13.7045C1245.68 13.7045 1246.05 13.6155 1246.36 13.4375C1246.68 13.2595 1246.93 13.0133 1247.11 12.6989C1247.28 12.3845 1247.37 12.0265 1247.37 11.625V4.36364ZM1259.58 8.16477C1259.52 7.92614 1259.42 7.71591 1259.3 7.53409C1259.17 7.34848 1259.02 7.19129 1258.84 7.0625C1258.65 6.93371 1258.45 6.83712 1258.21 6.77273C1257.98 6.70455 1257.72 6.67045 1257.44 6.67045C1256.87 6.67045 1256.38 6.80682 1255.97 7.07955C1255.56 7.35227 1255.25 7.75 1255.02 8.27273C1254.8 8.79167 1254.69 9.42235 1254.69 10.1648C1254.69 10.911 1254.8 11.5473 1255.01 12.0739C1255.23 12.6004 1255.54 13.0019 1255.95 13.2784C1256.36 13.5549 1256.85 13.6932 1257.44 13.6932C1257.95 13.6932 1258.39 13.6098 1258.74 13.4432C1259.1 13.2727 1259.38 13.0322 1259.56 12.7216C1259.75 12.411 1259.84 12.0455 1259.84 11.625L1260.36 11.6875H1257.53V9.63636H1262.55V11.1761C1262.55 12.2178 1262.33 13.1098 1261.89 13.8523C1261.45 14.5947 1260.84 15.1648 1260.07 15.5625C1259.3 15.9602 1258.41 16.1591 1257.41 16.1591C1256.3 16.1591 1255.33 15.9186 1254.49 15.4375C1253.65 14.9564 1252.99 14.2708 1252.52 13.3807C1252.05 12.4867 1251.82 11.4261 1251.82 10.1989C1251.82 9.24432 1251.96 8.39773 1252.24 7.65909C1252.53 6.91667 1252.92 6.28788 1253.43 5.77273C1253.94 5.25758 1254.53 4.86742 1255.2 4.60227C1255.88 4.33712 1256.6 4.20455 1257.38 4.20455C1258.05 4.20455 1258.68 4.30114 1259.26 4.49432C1259.84 4.6875 1260.36 4.96023 1260.81 5.3125C1261.26 5.66477 1261.62 6.08333 1261.9 6.56818C1262.18 7.05303 1262.36 7.58523 1262.43 8.16477H1259.58ZM1271.25 4.36364H1274.06V11.8693C1274.06 12.7367 1273.85 13.4924 1273.44 14.1364C1273.02 14.7765 1272.45 15.2727 1271.71 15.625C1270.97 15.9735 1270.11 16.1477 1269.13 16.1477C1268.15 16.1477 1267.28 15.9735 1266.54 15.625C1265.81 15.2727 1265.23 14.7765 1264.82 14.1364C1264.41 13.4924 1264.21 12.7367 1264.21 11.8693V4.36364H1267.02V11.625C1267.02 12.0265 1267.11 12.3845 1267.28 12.6989C1267.46 13.0133 1267.71 13.2595 1268.03 13.4375C1268.35 13.6155 1268.71 13.7045 1269.13 13.7045C1269.56 13.7045 1269.92 13.6155 1270.24 13.4375C1270.56 13.2595 1270.8 13.0133 1270.98 12.6989C1271.16 12.3845 1271.25 12.0265 1271.25 11.625V4.36364ZM1275.82 16V4.36364H1283.93V6.64773H1278.63V9.03409H1283.52V11.3239H1278.63V13.7159H1283.93V16H1275.82ZM1285.69 16V4.36364H1288.51V13.7159H1293.35V16H1285.69ZM1302.54 16H1298.24V4.36364H1302.54C1303.72 4.36364 1304.74 4.59659 1305.6 5.0625C1306.46 5.52462 1307.12 6.19129 1307.59 7.0625C1308.05 7.92992 1308.29 8.9678 1308.29 10.1761C1308.29 11.3883 1308.05 12.4299 1307.59 13.3011C1307.12 14.1723 1306.46 14.8409 1305.6 15.3068C1304.74 15.7689 1303.72 16 1302.54 16ZM1301.05 13.6023H1302.43C1303.08 13.6023 1303.64 13.4924 1304.09 13.2727C1304.54 13.0492 1304.88 12.6875 1305.12 12.1875C1305.35 11.6837 1305.47 11.0133 1305.47 10.1761C1305.47 9.33902 1305.35 8.67235 1305.12 8.17614C1304.88 7.67614 1304.53 7.31629 1304.08 7.09659C1303.62 6.87311 1303.06 6.76136 1302.39 6.76136H1301.05V13.6023ZM1309.93 16V4.36364H1318.04V6.64773H1312.74V9.03409H1317.63V11.3239H1312.74V13.7159H1318.04V16H1309.93ZM1219.55 35V23.3636H1226.3V24.3182H1220.61V28.6989H1225.94V29.6534H1220.61V34.0455H1226.41V35H1219.55ZM1233.4 31.3636H1234.59L1236.07 33.3352L1236.32 33.6648L1238.15 36.0909H1236.97L1235.63 34.3011L1235.39 33.983L1233.4 31.3636ZM1238.59 29.1818C1238.59 30.3939 1238.37 31.4489 1237.94 32.3466C1237.51 33.2405 1236.91 33.9337 1236.15 34.4261C1235.4 34.9148 1234.53 35.1591 1233.55 35.1591C1232.57 35.1591 1231.7 34.9148 1230.94 34.4261C1230.19 33.9337 1229.6 33.2405 1229.16 32.3466C1228.74 31.4489 1228.52 30.3939 1228.52 29.1818C1228.52 27.9697 1228.74 26.9167 1229.16 26.0227C1229.6 25.125 1230.19 24.4318 1230.95 23.9432C1231.71 23.4508 1232.57 23.2045 1233.55 23.2045C1234.53 23.2045 1235.4 23.4508 1236.15 23.9432C1236.91 24.4318 1237.51 25.125 1237.94 26.0227C1238.37 26.9167 1238.59 27.9697 1238.59 29.1818ZM1237.55 29.1818C1237.55 28.1402 1237.38 27.2481 1237.03 26.5057C1236.68 25.7595 1236.2 25.1894 1235.6 24.7955C1235 24.4015 1234.32 24.2045 1233.55 24.2045C1232.79 24.2045 1232.11 24.4015 1231.51 24.7955C1230.9 25.1894 1230.43 25.7576 1230.07 26.5C1229.73 27.2424 1229.55 28.1364 1229.55 29.1818C1229.55 30.2235 1229.73 31.1155 1230.07 31.858C1230.42 32.6004 1230.9 33.1705 1231.5 33.5682C1232.1 33.9621 1232.79 34.1591 1233.55 34.1591C1234.32 34.1591 1235 33.9621 1235.6 33.5682C1236.21 33.1742 1236.69 32.6061 1237.03 31.8636C1237.38 31.1174 1237.55 30.2235 1237.55 29.1818ZM1248.91 23.3636H1249.97V31.0682C1249.97 31.8598 1249.79 32.5682 1249.42 33.1932C1249.04 33.8144 1248.53 34.3049 1247.87 34.6648C1247.21 35.0208 1246.44 35.1989 1245.56 35.1989C1244.69 35.1989 1243.93 35.0189 1243.26 34.6591C1242.6 34.2992 1242.08 33.8087 1241.71 33.1875C1241.34 32.5663 1241.15 31.8598 1241.15 31.0682V23.3636H1242.22V30.9943C1242.22 31.6117 1242.36 32.1629 1242.63 32.6477C1242.91 33.1288 1243.3 33.5076 1243.8 33.7841C1244.3 34.0606 1244.89 34.1989 1245.56 34.1989C1246.24 34.1989 1246.83 34.0606 1247.33 33.7841C1247.83 33.5076 1248.22 33.1288 1248.5 32.6477C1248.77 32.1629 1248.91 31.6117 1248.91 30.9943V23.3636ZM1254.12 23.3636V35H1253.06V23.3636H1254.12ZM1257.22 35V23.3636H1260.97C1261.8 23.3636 1262.49 23.5227 1263.04 23.8409C1263.6 24.1553 1264.02 24.5833 1264.3 25.125C1264.58 25.6667 1264.72 26.2765 1264.72 26.9545C1264.72 27.6326 1264.58 28.2443 1264.3 28.7898C1264.02 29.3314 1263.61 29.7614 1263.05 30.0795C1262.5 30.3939 1261.81 30.5511 1260.99 30.5511H1258.04V29.5966H1260.96C1261.57 29.5966 1262.08 29.483 1262.48 29.2557C1262.88 29.0246 1263.18 28.7102 1263.38 28.3125C1263.58 27.9148 1263.68 27.4621 1263.68 26.9545C1263.68 26.447 1263.58 25.9943 1263.38 25.5966C1263.18 25.1989 1262.88 24.8864 1262.47 24.6591C1262.07 24.4318 1261.56 24.3182 1260.94 24.3182H1258.28V35H1257.22ZM1266.05 35H1264.93L1269.17 23.3636H1270.3L1274.54 35H1273.42L1269.77 24.7443H1269.69L1266.05 35ZM1266.85 30.5398H1272.62V31.4943H1266.85V30.5398ZM1276.53 23.3636H1277.76L1281.98 33.5H1282.08L1286.3 23.3636H1287.53V35H1286.53V25.608H1286.44L1282.51 35H1281.55L1277.62 25.608H1277.53V35H1276.53V23.3636ZM1290.62 35V23.3636H1297.37V24.3182H1291.69V28.6989H1297.02V29.6534H1291.69V34.0455H1297.49V35H1290.62ZM1309.19 23.3636V35H1308.15L1301.28 25.2557H1301.19V35H1300.12V23.3636H1301.15L1308.05 33.1193H1308.14V23.3636H1309.19ZM1311.58 24.3182V23.3636H1320.01V24.3182H1316.33V35H1315.26V24.3182H1311.58ZM1331.46 29.1818C1331.46 30.3939 1331.24 31.4489 1330.81 32.3466C1330.38 33.2405 1329.79 33.9337 1329.03 34.4261C1328.27 34.9148 1327.41 35.1591 1326.43 35.1591C1325.45 35.1591 1324.58 34.9148 1323.82 34.4261C1323.06 33.9337 1322.47 33.2405 1322.04 32.3466C1321.61 31.4489 1321.4 30.3939 1321.4 29.1818C1321.4 27.9697 1321.61 26.9167 1322.04 26.0227C1322.47 25.125 1323.07 24.4318 1323.82 23.9432C1324.58 23.4508 1325.45 23.2045 1326.43 23.2045C1327.41 23.2045 1328.27 23.4508 1329.03 23.9432C1329.79 24.4318 1330.38 25.125 1330.81 26.0227C1331.24 26.9167 1331.46 27.9697 1331.46 29.1818ZM1330.43 29.1818C1330.43 28.1402 1330.25 27.2481 1329.9 26.5057C1329.55 25.7595 1329.08 25.1894 1328.48 24.7955C1327.88 24.4015 1327.19 24.2045 1326.43 24.2045C1325.66 24.2045 1324.98 24.4015 1324.38 24.7955C1323.78 25.1894 1323.3 25.7576 1322.95 26.5C1322.6 27.2424 1322.43 28.1364 1322.43 29.1818C1322.43 30.2235 1322.6 31.1155 1322.95 31.858C1323.3 32.6004 1323.77 33.1705 1324.38 33.5682C1324.98 33.9621 1325.66 34.1591 1326.43 34.1591C1327.19 34.1591 1327.88 33.9621 1328.48 33.5682C1329.08 33.1742 1329.56 32.6061 1329.91 31.8636C1330.26 31.1174 1330.43 30.2235 1330.43 29.1818ZM1340.35 26.2727C1340.28 25.625 1340 25.1098 1339.49 24.7273C1338.98 24.3447 1338.34 24.1534 1337.58 24.1534C1337.03 24.1534 1336.56 24.2462 1336.14 24.4318C1335.73 24.6174 1335.41 24.875 1335.18 25.2045C1334.95 25.5303 1334.83 25.9015 1334.83 26.3182C1334.83 26.625 1334.9 26.8939 1335.03 27.125C1335.16 27.3561 1335.34 27.5549 1335.56 27.7216C1335.79 27.8845 1336.04 28.0246 1336.31 28.142C1336.59 28.2595 1336.87 28.358 1337.15 28.4375L1338.38 28.7898C1338.75 28.892 1339.12 29.0227 1339.49 29.1818C1339.86 29.3409 1340.2 29.5417 1340.51 29.7841C1340.82 30.0227 1341.07 30.3163 1341.25 30.6648C1341.44 31.0095 1341.54 31.4242 1341.54 31.9091C1341.54 32.5303 1341.37 33.089 1341.05 33.5852C1340.73 34.0814 1340.27 34.4754 1339.67 34.767C1339.06 35.0549 1338.34 35.1989 1337.5 35.1989C1336.71 35.1989 1336.02 35.0682 1335.44 34.8068C1334.86 34.5417 1334.4 34.1761 1334.06 33.7102C1333.73 33.2443 1333.54 32.7045 1333.5 32.0909H1334.59C1334.63 32.5492 1334.78 32.9375 1335.05 33.2557C1335.31 33.5739 1335.66 33.8163 1336.08 33.983C1336.51 34.1458 1336.98 34.2273 1337.5 34.2273C1338.08 34.2273 1338.6 34.1307 1339.05 33.9375C1339.5 33.7405 1339.86 33.4678 1340.12 33.1193C1340.38 32.767 1340.51 32.358 1340.51 31.892C1340.51 31.4981 1340.4 31.1686 1340.2 30.9034C1340 30.6345 1339.71 30.4091 1339.34 30.2273C1338.98 30.0455 1338.56 29.8845 1338.08 29.7443L1336.68 29.3352C1335.77 29.0625 1335.06 28.6856 1334.56 28.2045C1334.05 27.7235 1333.8 27.1098 1333.8 26.3636C1333.8 25.7386 1333.97 25.1894 1334.3 24.7159C1334.64 24.2386 1335.09 23.8674 1335.67 23.6023C1336.24 23.3333 1336.89 23.1989 1337.6 23.1989C1338.33 23.1989 1338.97 23.3314 1339.52 23.5966C1340.08 23.8617 1340.52 24.2273 1340.85 24.6932C1341.18 25.1553 1341.35 25.6818 1341.38 26.2727H1340.35Z" fill="#B0B0B0"/>
<mask id="mask1_115_2734" style="mask-type:alpha" maskUnits="userSpaceOnUse" x="1185" y="4" width="35" height="35">
<rect x="1185" y="4" width="35" height="35" fill="#D9D9D9"/>
</mask>
<g mask="url(#mask1_115_2734)">
<path d="M1201.4 34.8062V31.6043C1200.11 31.3065 1199 30.7356 1198.06 29.8917C1197.12 29.0478 1196.44 27.8564 1196 26.3176L1198.7 25.2006C1199.06 26.392 1199.6 27.298 1200.32 27.9185C1201.04 28.539 1201.98 28.8492 1203.15 28.8492C1204.14 28.8492 1204.99 28.6199 1205.68 28.1612C1206.37 27.7015 1206.72 26.9877 1206.72 26.0197C1206.72 25.151 1206.45 24.462 1205.92 23.9527C1205.38 23.4443 1204.14 22.8675 1202.2 22.2222C1200.11 21.552 1198.67 20.7518 1197.9 19.8215C1197.12 18.8903 1196.73 17.7545 1196.73 16.4142C1196.73 14.8008 1197.24 13.5474 1198.26 12.6539C1199.28 11.7603 1200.33 11.2515 1201.4 11.1274V8H1204.31V11.1274C1205.53 11.326 1206.53 11.7787 1207.32 12.4856C1208.11 13.1934 1208.69 14.0562 1209.05 15.0739L1206.35 16.2652C1206.06 15.471 1205.65 14.8753 1205.11 14.4782C1204.58 14.081 1203.85 13.8825 1202.93 13.8825C1201.86 13.8825 1201.04 14.1247 1200.48 14.6092C1199.93 15.0927 1199.65 15.6944 1199.65 16.4142C1199.65 17.2332 1200.01 17.8786 1200.74 18.3502C1201.47 18.8218 1202.73 19.3182 1204.53 19.8394C1206.21 20.3358 1207.48 21.1236 1208.34 22.2028C1209.2 23.283 1209.64 24.5305 1209.64 25.9452C1209.64 27.7075 1209.13 29.0478 1208.1 29.9662C1207.08 30.8845 1205.82 31.4554 1204.31 31.6788V34.8062H1201.4Z" fill="#7EB4C1"/>
</g>
<path d="M49.8807 16V4.36364H54.6875C55.5587 4.36364 56.3106 4.53409 56.9432 4.875C57.5795 5.21212 58.0701 5.68371 58.4148 6.28977C58.7595 6.89205 58.9318 7.5928 58.9318 8.39205C58.9318 9.19508 58.7557 9.89773 58.4034 10.5C58.0549 11.0985 57.5568 11.5625 56.9091 11.892C56.2614 12.2216 55.4924 12.3864 54.6023 12.3864H51.6364V10.1705H54.0795C54.5038 10.1705 54.858 10.0966 55.142 9.94886C55.4299 9.80114 55.6477 9.5947 55.7955 9.32955C55.9432 9.06061 56.017 8.74811 56.017 8.39205C56.017 8.0322 55.9432 7.72159 55.7955 7.46023C55.6477 7.19508 55.4299 6.99053 55.142 6.84659C54.8542 6.70265 54.5 6.63068 54.0795 6.63068H52.6932V16H49.8807ZM61.429 16H58.4062L62.3324 4.36364H66.0767L70.0028 16H66.9801L64.2472 7.29545H64.1562L61.429 16ZM61.0256 11.4205H67.3438V13.5568H61.0256V11.4205ZM71.2557 16V4.36364H76.0625C76.9337 4.36364 77.6856 4.52083 78.3182 4.83523C78.9545 5.14583 79.4451 5.5928 79.7898 6.17614C80.1345 6.75568 80.3068 7.44318 80.3068 8.23864C80.3068 9.04545 80.1307 9.73106 79.7784 10.2955C79.4261 10.8561 78.9261 11.2841 78.2784 11.5795C77.6307 11.8712 76.8636 12.017 75.9773 12.017H72.9375V9.80114H75.4545C75.8788 9.80114 76.233 9.74621 76.517 9.63636C76.8049 9.52273 77.0227 9.35227 77.1705 9.125C77.3182 8.89394 77.392 8.59848 77.392 8.23864C77.392 7.87879 77.3182 7.58144 77.1705 7.34659C77.0227 7.10795 76.8049 6.92992 76.517 6.8125C76.2292 6.69129 75.875 6.63068 75.4545 6.63068H74.0682V16H71.2557ZM77.8068 10.6818L80.7045 16H77.6364L74.7955 10.6818H77.8068ZM92.4119 8.57955H89.571C89.5331 8.28788 89.4555 8.02462 89.3381 7.78977C89.2206 7.55492 89.0653 7.35417 88.8722 7.1875C88.679 7.02083 88.4498 6.89394 88.1847 6.80682C87.9233 6.71591 87.6335 6.67045 87.3153 6.67045C86.7509 6.67045 86.2642 6.80871 85.8551 7.08523C85.4498 7.36174 85.1373 7.76136 84.9176 8.28409C84.7017 8.80682 84.5938 9.43939 84.5938 10.1818C84.5938 10.9545 84.7036 11.6023 84.9233 12.125C85.1468 12.6439 85.4593 13.036 85.8608 13.3011C86.2661 13.5625 86.7453 13.6932 87.2983 13.6932C87.6089 13.6932 87.8911 13.6534 88.1449 13.5739C88.4025 13.4943 88.6278 13.3788 88.821 13.2273C89.018 13.072 89.179 12.8845 89.304 12.6648C89.4328 12.4413 89.5218 12.1894 89.571 11.9091L92.4119 11.9261C92.3627 12.4413 92.2131 12.9489 91.9631 13.4489C91.7169 13.9489 91.3778 14.4053 90.946 14.8182C90.5142 15.2273 89.9877 15.553 89.3665 15.7955C88.7491 16.0379 88.0407 16.1591 87.2415 16.1591C86.1884 16.1591 85.2453 15.928 84.4119 15.4659C83.5824 15 82.9271 14.322 82.446 13.4318C81.965 12.5417 81.7244 11.4583 81.7244 10.1818C81.7244 8.90152 81.9688 7.81629 82.4574 6.92614C82.946 6.03598 83.607 5.35985 84.4403 4.89773C85.2737 4.43561 86.2074 4.20455 87.2415 4.20455C87.946 4.20455 88.5975 4.30303 89.196 4.5C89.7945 4.69318 90.321 4.97727 90.7756 5.35227C91.2301 5.72348 91.5994 6.17992 91.8835 6.72159C92.1676 7.26326 92.3438 7.88258 92.4119 8.57955ZM94.0213 16V4.36364H102.135V6.64773H96.8338V9.03409H101.72V11.3239H96.8338V13.7159H102.135V16H94.0213ZM103.896 16V4.36364H106.709V13.7159H111.55V16H103.896ZM113.006 16V4.36364H121.119V6.64773H115.818V9.03409H120.705V11.3239H115.818V13.7159H121.119V16H113.006ZM132.608 7.85227C132.57 7.43561 132.402 7.11174 132.102 6.88068C131.807 6.64583 131.384 6.52841 130.835 6.52841C130.472 6.52841 130.169 6.57576 129.926 6.67045C129.684 6.76515 129.502 6.89583 129.381 7.0625C129.259 7.22538 129.197 7.41288 129.193 7.625C129.186 7.79924 129.22 7.95265 129.295 8.08523C129.375 8.2178 129.489 8.33523 129.636 8.4375C129.788 8.53598 129.97 8.62311 130.182 8.69886C130.394 8.77462 130.633 8.84091 130.898 8.89773L131.898 9.125C132.473 9.25 132.981 9.41667 133.42 9.625C133.864 9.83333 134.235 10.0814 134.534 10.3693C134.837 10.6572 135.066 10.9886 135.222 11.3636C135.377 11.7386 135.456 12.1591 135.46 12.625C135.456 13.3598 135.271 13.9905 134.903 14.517C134.536 15.0436 134.008 15.447 133.318 15.7273C132.633 16.0076 131.805 16.1477 130.835 16.1477C129.862 16.1477 129.013 16.0019 128.29 15.7102C127.566 15.4186 127.004 14.9754 126.602 14.3807C126.201 13.786 125.994 13.0341 125.983 12.125H128.676C128.699 12.5 128.799 12.8125 128.977 13.0625C129.155 13.3125 129.4 13.5019 129.71 13.6307C130.025 13.7595 130.388 13.8239 130.801 13.8239C131.18 13.8239 131.502 13.7727 131.767 13.6705C132.036 13.5682 132.242 13.4261 132.386 13.2443C132.53 13.0625 132.604 12.8542 132.608 12.6193C132.604 12.3996 132.536 12.2121 132.403 12.0568C132.271 11.8977 132.066 11.7614 131.79 11.6477C131.517 11.5303 131.169 11.4223 130.744 11.3239L129.528 11.0398C128.521 10.8087 127.727 10.4356 127.148 9.92045C126.568 9.40151 126.28 8.70076 126.284 7.81818C126.28 7.09848 126.473 6.4678 126.864 5.92614C127.254 5.38447 127.794 4.96212 128.483 4.65909C129.172 4.35606 129.958 4.20455 130.841 4.20455C131.742 4.20455 132.525 4.35795 133.188 4.66477C133.854 4.9678 134.371 5.39394 134.739 5.94318C135.106 6.49242 135.294 7.12879 135.301 7.85227H132.608ZM143.92 4.36364H146.727V11.8693C146.727 12.7367 146.521 13.4924 146.108 14.1364C145.695 14.7765 145.119 15.2727 144.381 15.625C143.642 15.9735 142.784 16.1477 141.807 16.1477C140.818 16.1477 139.955 15.9735 139.216 15.625C138.477 15.2727 137.903 14.7765 137.494 14.1364C137.085 13.4924 136.881 12.7367 136.881 11.8693V4.36364H139.693V11.625C139.693 12.0265 139.78 12.3845 139.955 12.6989C140.133 13.0133 140.381 13.2595 140.699 13.4375C141.017 13.6155 141.386 13.7045 141.807 13.7045C142.227 13.7045 142.595 13.6155 142.909 13.4375C143.227 13.2595 143.475 13.0133 143.653 12.6989C143.831 12.3845 143.92 12.0265 143.92 11.625V4.36364ZM151.007 16H147.984L151.911 4.36364H155.655L159.581 16H156.558L153.825 7.29545H153.734L151.007 16ZM150.604 11.4205H156.922V13.5568H150.604V11.4205ZM166.764 7.85227C166.726 7.43561 166.558 7.11174 166.259 6.88068C165.963 6.64583 165.541 6.52841 164.991 6.52841C164.628 6.52841 164.325 6.57576 164.082 6.67045C163.84 6.76515 163.658 6.89583 163.537 7.0625C163.416 7.22538 163.353 7.41288 163.349 7.625C163.342 7.79924 163.376 7.95265 163.452 8.08523C163.531 8.2178 163.645 8.33523 163.793 8.4375C163.944 8.53598 164.126 8.62311 164.338 8.69886C164.55 8.77462 164.789 8.84091 165.054 8.89773L166.054 9.125C166.63 9.25 167.137 9.41667 167.577 9.625C168.02 9.83333 168.391 10.0814 168.69 10.3693C168.993 10.6572 169.223 10.9886 169.378 11.3636C169.533 11.7386 169.613 12.1591 169.616 12.625C169.613 13.3598 169.427 13.9905 169.06 14.517C168.692 15.0436 168.164 15.447 167.474 15.7273C166.789 16.0076 165.961 16.1477 164.991 16.1477C164.018 16.1477 163.17 16.0019 162.446 15.7102C161.723 15.4186 161.16 14.9754 160.759 14.3807C160.357 13.786 160.151 13.0341 160.139 12.125H162.832C162.855 12.5 162.955 12.8125 163.134 13.0625C163.312 13.3125 163.556 13.5019 163.866 13.6307C164.181 13.7595 164.545 13.8239 164.957 13.8239C165.336 13.8239 165.658 13.7727 165.923 13.6705C166.192 13.5682 166.399 13.4261 166.543 13.2443C166.687 13.0625 166.76 12.8542 166.764 12.6193C166.76 12.3996 166.692 12.2121 166.56 12.0568C166.427 11.8977 166.223 11.7614 165.946 11.6477C165.673 11.5303 165.325 11.4223 164.901 11.3239L163.685 11.0398C162.677 10.8087 161.884 10.4356 161.304 9.92045C160.724 9.40151 160.437 8.70076 160.44 7.81818C160.437 7.09848 160.63 6.4678 161.02 5.92614C161.41 5.38447 161.95 4.96212 162.639 4.65909C163.329 4.35606 164.115 4.20455 164.997 4.20455C165.899 4.20455 166.681 4.35795 167.344 4.66477C168.01 4.9678 168.527 5.39394 168.895 5.94318C169.262 6.49242 169.45 7.12879 169.457 7.85227H166.764ZM185.037 8.57955H182.196C182.158 8.28788 182.08 8.02462 181.963 7.78977C181.846 7.55492 181.69 7.35417 181.497 7.1875C181.304 7.02083 181.075 6.89394 180.81 6.80682C180.548 6.71591 180.259 6.67045 179.94 6.67045C179.376 6.67045 178.889 6.80871 178.48 7.08523C178.075 7.36174 177.762 7.76136 177.543 8.28409C177.327 8.80682 177.219 9.43939 177.219 10.1818C177.219 10.9545 177.329 11.6023 177.548 12.125C177.772 12.6439 178.084 13.036 178.486 13.3011C178.891 13.5625 179.37 13.6932 179.923 13.6932C180.234 13.6932 180.516 13.6534 180.77 13.5739C181.027 13.4943 181.253 13.3788 181.446 13.2273C181.643 13.072 181.804 12.8845 181.929 12.6648C182.058 12.4413 182.147 12.1894 182.196 11.9091L185.037 11.9261C184.988 12.4413 184.838 12.9489 184.588 13.4489C184.342 13.9489 184.003 14.4053 183.571 14.8182C183.139 15.2273 182.613 15.553 181.991 15.7955C181.374 16.0379 180.666 16.1591 179.866 16.1591C178.813 16.1591 177.87 15.928 177.037 15.4659C176.207 15 175.552 14.322 175.071 13.4318C174.59 12.5417 174.349 11.4583 174.349 10.1818C174.349 8.90152 174.594 7.81629 175.082 6.92614C175.571 6.03598 176.232 5.35985 177.065 4.89773C177.899 4.43561 178.832 4.20455 179.866 4.20455C180.571 4.20455 181.223 4.30303 181.821 4.5C182.42 4.69318 182.946 4.97727 183.401 5.35227C183.855 5.72348 184.224 6.17992 184.509 6.72159C184.793 7.26326 184.969 7.88258 185.037 8.57955ZM197.629 10.1818C197.629 11.4621 197.383 12.5473 196.891 13.4375C196.398 14.3277 195.732 15.0038 194.891 15.4659C194.054 15.928 193.114 16.1591 192.072 16.1591C191.027 16.1591 190.086 15.9261 189.249 15.4602C188.411 14.9943 187.747 14.3182 187.254 13.4318C186.766 12.5417 186.521 11.4583 186.521 10.1818C186.521 8.90152 186.766 7.81629 187.254 6.92614C187.747 6.03598 188.411 5.35985 189.249 4.89773C190.086 4.43561 191.027 4.20455 192.072 4.20455C193.114 4.20455 194.054 4.43561 194.891 4.89773C195.732 5.35985 196.398 6.03598 196.891 6.92614C197.383 7.81629 197.629 8.90152 197.629 10.1818ZM194.754 10.1818C194.754 9.42424 194.646 8.78409 194.43 8.26136C194.218 7.73864 193.911 7.3428 193.51 7.07386C193.112 6.80492 192.633 6.67045 192.072 6.67045C191.516 6.67045 191.036 6.80492 190.635 7.07386C190.233 7.3428 189.925 7.73864 189.709 8.26136C189.497 8.78409 189.391 9.42424 189.391 10.1818C189.391 10.9394 189.497 11.5795 189.709 12.1023C189.925 12.625 190.233 13.0208 190.635 13.2898C191.036 13.5587 191.516 13.6932 192.072 13.6932C192.633 13.6932 193.112 13.5587 193.51 13.2898C193.911 13.0208 194.218 12.625 194.43 12.1023C194.646 11.5795 194.754 10.9394 194.754 10.1818ZM199.271 4.36364H202.754L205.709 11.5682H205.845L208.8 4.36364H212.283V16H209.544V8.85227H209.447L206.652 15.9261H204.902L202.107 8.8125H202.01V16H199.271V4.36364ZM214.037 16V4.36364H218.844C219.715 4.36364 220.467 4.53409 221.099 4.875C221.736 5.21212 222.226 5.68371 222.571 6.28977C222.916 6.89205 223.088 7.5928 223.088 8.39205C223.088 9.19508 222.912 9.89773 222.56 10.5C222.211 11.0985 221.713 11.5625 221.065 11.892C220.418 12.2216 219.649 12.3864 218.759 12.3864H215.793V10.1705H218.236C218.66 10.1705 219.014 10.0966 219.298 9.94886C219.586 9.80114 219.804 9.5947 219.952 9.32955C220.099 9.06061 220.173 8.74811 220.173 8.39205C220.173 8.0322 220.099 7.72159 219.952 7.46023C219.804 7.19508 219.586 6.99053 219.298 6.84659C219.01 6.70265 218.656 6.63068 218.236 6.63068H216.849V16H214.037ZM224.474 16V4.36364H229.281C230.152 4.36364 230.904 4.52083 231.537 4.83523C232.173 5.14583 232.664 5.5928 233.009 6.17614C233.353 6.75568 233.526 7.44318 233.526 8.23864C233.526 9.04545 233.349 9.73106 232.997 10.2955C232.645 10.8561 232.145 11.2841 231.497 11.5795C230.849 11.8712 230.082 12.017 229.196 12.017H226.156V9.80114H228.673C229.098 9.80114 229.452 9.74621 229.736 9.63636C230.024 9.52273 230.241 9.35227 230.389 9.125C230.537 8.89394 230.611 8.59848 230.611 8.23864C230.611 7.87879 230.537 7.58144 230.389 7.34659C230.241 7.10795 230.024 6.92992 229.736 6.8125C229.448 6.69129 229.094 6.63068 228.673 6.63068H227.287V16H224.474ZM231.026 10.6818L233.923 16H230.855L228.014 10.6818H231.026ZM237.585 16H234.562L238.489 4.36364H242.233L246.159 16H243.136L240.403 7.29545H240.312L237.585 16ZM237.182 11.4205H243.5V13.5568H237.182V11.4205ZM253.342 7.85227C253.304 7.43561 253.136 7.11174 252.837 6.88068C252.541 6.64583 252.119 6.52841 251.57 6.52841C251.206 6.52841 250.903 6.57576 250.661 6.67045C250.418 6.76515 250.236 6.89583 250.115 7.0625C249.994 7.22538 249.931 7.41288 249.928 7.625C249.92 7.79924 249.954 7.95265 250.03 8.08523C250.109 8.2178 250.223 8.33523 250.371 8.4375C250.522 8.53598 250.704 8.62311 250.916 8.69886C251.128 8.77462 251.367 8.84091 251.632 8.89773L252.632 9.125C253.208 9.25 253.715 9.41667 254.155 9.625C254.598 9.83333 254.969 10.0814 255.268 10.3693C255.571 10.6572 255.801 10.9886 255.956 11.3636C256.111 11.7386 256.191 12.1591 256.195 12.625C256.191 13.3598 256.005 13.9905 255.638 14.517C255.27 15.0436 254.742 15.447 254.053 15.7273C253.367 16.0076 252.539 16.1477 251.57 16.1477C250.596 16.1477 249.748 16.0019 249.024 15.7102C248.301 15.4186 247.738 14.9754 247.337 14.3807C246.935 13.786 246.729 13.0341 246.717 12.125H249.411C249.433 12.5 249.534 12.8125 249.712 13.0625C249.89 13.3125 250.134 13.5019 250.445 13.6307C250.759 13.7595 251.123 13.8239 251.536 13.8239C251.914 13.8239 252.236 13.7727 252.501 13.6705C252.77 13.5682 252.977 13.4261 253.121 13.2443C253.265 13.0625 253.339 12.8542 253.342 12.6193C253.339 12.3996 253.27 12.2121 253.138 12.0568C253.005 11.8977 252.801 11.7614 252.524 11.6477C252.251 11.5303 251.903 11.4223 251.479 11.3239L250.263 11.0398C249.255 10.8087 248.462 10.4356 247.882 9.92045C247.303 9.40151 247.015 8.70076 247.018 7.81818C247.015 7.09848 247.208 6.4678 247.598 5.92614C247.988 5.38447 248.528 4.96212 249.217 4.65909C249.907 4.35606 250.693 4.20455 251.575 4.20455C252.477 4.20455 253.259 4.35795 253.922 4.66477C254.589 4.9678 255.106 5.39394 255.473 5.94318C255.84 6.49242 256.028 7.12879 256.036 7.85227H253.342ZM50.4091 35V23.3636H57.4318V24.6136H51.8182V28.5455H57.0682V29.7955H51.8182V33.75H57.5227V35H50.4091ZM59.9716 23.3636H61.6534L65.608 33.0227H65.7443L69.6989 23.3636H71.3807V35H70.0625V26.1591H69.9489L66.3125 35H65.0398L61.4034 26.1591H61.2898V35H59.9716V23.3636ZM79.1832 35H77.706L81.9787 23.3636H83.4332L87.706 35H86.2287L82.7514 25.2045H82.6605L79.1832 35ZM79.7287 30.4545H85.6832V31.7045H79.7287V30.4545ZM87.5227 24.6136V23.3636H96.25V24.6136H92.5909V35H91.1818V24.6136H87.5227ZM98.4247 35V23.3636H105.447V24.6136H99.8338V28.5455H105.084V29.7955H99.8338V33.75H105.538V35H98.4247ZM101.311 22.1818L102.697 19.5455H104.266L102.493 22.1818H101.311ZM116.146 35.1591C115.669 35.1515 115.192 35.0606 114.714 34.8864C114.237 34.7121 113.802 34.4186 113.408 34.0057C113.014 33.589 112.697 33.0265 112.459 32.3182C112.22 31.6061 112.101 30.7121 112.101 29.6364C112.101 28.6061 112.197 27.6932 112.391 26.8977C112.584 26.0985 112.864 25.4261 113.232 24.8807C113.599 24.3314 114.042 23.9148 114.561 23.6307C115.084 23.3466 115.673 23.2045 116.328 23.2045C116.98 23.2045 117.559 23.3352 118.067 23.5966C118.578 23.8542 118.995 24.214 119.317 24.6761C119.639 25.1383 119.847 25.6705 119.942 26.2727H118.555C118.427 25.75 118.177 25.3163 117.805 24.9716C117.434 24.6269 116.942 24.4545 116.328 24.4545C115.427 24.4545 114.716 24.8466 114.197 25.6307C113.682 26.4148 113.423 27.5152 113.419 28.9318H113.51C113.722 28.6098 113.974 28.3352 114.266 28.108C114.561 27.8769 114.887 27.6989 115.243 27.5739C115.599 27.4489 115.976 27.3864 116.374 27.3864C117.04 27.3864 117.65 27.553 118.203 27.8864C118.756 28.2159 119.199 28.6723 119.533 29.2557C119.866 29.8352 120.033 30.5 120.033 31.25C120.033 31.9697 119.872 32.6288 119.55 33.2273C119.228 33.822 118.775 34.2955 118.192 34.6477C117.612 34.9962 116.93 35.1667 116.146 35.1591ZM116.146 33.9091C116.624 33.9091 117.052 33.7898 117.43 33.5511C117.813 33.3125 118.114 32.9924 118.334 32.5909C118.557 32.1894 118.669 31.7424 118.669 31.25C118.669 30.7689 118.561 30.3314 118.345 29.9375C118.133 29.5398 117.839 29.2235 117.464 28.9886C117.093 28.7538 116.669 28.6364 116.192 28.6364C115.832 28.6364 115.497 28.7083 115.186 28.8523C114.875 28.9924 114.603 29.1856 114.368 29.4318C114.137 29.678 113.955 29.9602 113.822 30.2784C113.69 30.5928 113.624 30.9242 113.624 31.2727C113.624 31.7348 113.732 32.1667 113.947 32.5682C114.167 32.9697 114.466 33.2936 114.845 33.5398C115.228 33.786 115.661 33.9091 116.146 33.9091ZM123.153 23.3636L126.153 28.2045H126.244L129.244 23.3636H130.903L127.244 29.1818L130.903 35H129.244L126.244 30.25H126.153L123.153 35H121.494L125.244 29.1818L121.494 23.3636H123.153ZM143.601 26.2727C143.533 25.697 143.256 25.25 142.771 24.9318C142.286 24.6136 141.692 24.4545 140.987 24.4545C140.472 24.4545 140.021 24.5379 139.635 24.7045C139.252 24.8712 138.953 25.1004 138.737 25.392C138.525 25.6837 138.419 26.0152 138.419 26.3864C138.419 26.697 138.493 26.964 138.641 27.1875C138.792 27.4072 138.985 27.5909 139.22 27.7386C139.455 27.8826 139.701 28.0019 139.959 28.0966C140.216 28.1875 140.453 28.2614 140.669 28.3182L141.851 28.6364C142.154 28.7159 142.491 28.8258 142.862 28.9659C143.237 29.1061 143.595 29.2973 143.936 29.5398C144.281 29.7784 144.565 30.0852 144.788 30.4602C145.012 30.8352 145.124 31.2955 145.124 31.8409C145.124 32.4697 144.959 33.0379 144.629 33.5455C144.304 34.053 143.826 34.4564 143.197 34.7557C142.572 35.0549 141.813 35.2045 140.919 35.2045C140.086 35.2045 139.364 35.0701 138.754 34.8011C138.148 34.5322 137.671 34.1572 137.322 33.6761C136.978 33.1951 136.783 32.6364 136.737 32H138.192C138.23 32.4394 138.377 32.803 138.635 33.0909C138.896 33.375 139.226 33.5871 139.624 33.7273C140.025 33.8636 140.457 33.9318 140.919 33.9318C141.457 33.9318 141.94 33.8447 142.368 33.6705C142.796 33.4924 143.135 33.2462 143.385 32.9318C143.635 32.6136 143.76 32.2424 143.76 31.8182C143.76 31.4318 143.652 31.1174 143.436 30.875C143.22 30.6326 142.936 30.4356 142.584 30.2841C142.232 30.1326 141.851 30 141.442 29.8864L140.01 29.4773C139.101 29.2159 138.381 28.8428 137.851 28.358C137.321 27.8731 137.055 27.2386 137.055 26.4545C137.055 25.803 137.232 25.2348 137.584 24.75C137.94 24.2614 138.417 23.8826 139.016 23.6136C139.618 23.3409 140.29 23.2045 141.033 23.2045C141.783 23.2045 142.449 23.339 143.033 23.608C143.616 23.8731 144.078 24.2367 144.419 24.6989C144.764 25.161 144.946 25.6856 144.964 26.2727H143.601ZM147.44 35V23.3636H154.463V24.6136H148.849V28.5455H154.099V29.7955H148.849V33.75H154.554V35H147.44ZM157.003 23.3636H158.685L162.639 33.0227H162.776L166.73 23.3636H168.412V35H167.094V26.1591H166.98L163.344 35H162.071L158.435 26.1591H158.321V35H157.003V23.3636ZM180.192 23.3636H181.601V31.6818C181.601 32.4242 181.464 33.0549 181.192 33.5739C180.919 34.0928 180.535 34.4867 180.038 34.7557C179.542 35.0246 178.957 35.1591 178.283 35.1591C177.646 35.1591 177.08 35.0436 176.584 34.8125C176.088 34.5777 175.697 34.2443 175.413 33.8125C175.129 33.3807 174.987 32.8674 174.987 32.2727H176.374C176.374 32.6023 176.455 32.8902 176.618 33.1364C176.785 33.3788 177.012 33.5682 177.3 33.7045C177.588 33.8409 177.915 33.9091 178.283 33.9091C178.688 33.9091 179.033 33.8239 179.317 33.6534C179.601 33.483 179.817 33.233 179.964 32.9034C180.116 32.5701 180.192 32.1629 180.192 31.6818V23.3636ZM192.061 23.3636H193.47V31.0682C193.47 31.8636 193.283 32.5739 192.908 33.1989C192.536 33.8201 192.012 34.3106 191.334 34.6705C190.656 35.0265 189.86 35.2045 188.947 35.2045C188.035 35.2045 187.239 35.0265 186.561 34.6705C185.883 34.3106 185.357 33.8201 184.982 33.1989C184.61 32.5739 184.425 31.8636 184.425 31.0682V23.3636H185.834V30.9545C185.834 31.5227 185.959 32.0284 186.209 32.4716C186.459 32.911 186.815 33.2576 187.277 33.5114C187.743 33.7614 188.3 33.8864 188.947 33.8864C189.595 33.8864 190.152 33.7614 190.618 33.5114C191.084 33.2576 191.44 32.911 191.686 32.4716C191.936 32.0284 192.061 31.5227 192.061 30.9545V23.3636ZM196.284 35V23.3636H200.216C201.125 23.3636 201.871 23.5189 202.455 23.8295C203.038 24.1364 203.47 24.5587 203.75 25.0966C204.03 25.6345 204.17 26.2462 204.17 26.9318C204.17 27.6174 204.03 28.2254 203.75 28.7557C203.47 29.286 203.04 29.7027 202.46 30.0057C201.881 30.3049 201.14 30.4545 200.239 30.4545H197.057V29.1818H200.193C200.814 29.1818 201.314 29.0909 201.693 28.9091C202.076 28.7273 202.352 28.4697 202.523 28.1364C202.697 27.7992 202.784 27.3977 202.784 26.9318C202.784 26.4659 202.697 26.0587 202.523 25.7102C202.348 25.3617 202.07 25.0928 201.688 24.9034C201.305 24.7102 200.799 24.6136 200.17 24.6136H197.693V35H196.284ZM201.761 29.7727L204.625 35H202.989L200.17 29.7727H201.761ZM216.337 29.1818C216.337 30.4091 216.115 31.4697 215.672 32.3636C215.229 33.2576 214.621 33.947 213.848 34.4318C213.075 34.9167 212.193 35.1591 211.2 35.1591C210.208 35.1591 209.325 34.9167 208.553 34.4318C207.78 33.947 207.172 33.2576 206.729 32.3636C206.286 31.4697 206.064 30.4091 206.064 29.1818C206.064 27.9545 206.286 26.8939 206.729 26C207.172 25.1061 207.78 24.4167 208.553 23.9318C209.325 23.447 210.208 23.2045 211.2 23.2045C212.193 23.2045 213.075 23.447 213.848 23.9318C214.621 24.4167 215.229 25.1061 215.672 26C216.115 26.8939 216.337 27.9545 216.337 29.1818ZM214.973 29.1818C214.973 28.1742 214.804 27.3239 214.467 26.6307C214.134 25.9375 213.681 25.4129 213.109 25.0568C212.541 24.7008 211.905 24.5227 211.2 24.5227C210.496 24.5227 209.857 24.7008 209.286 25.0568C208.717 25.4129 208.265 25.9375 207.928 26.6307C207.594 27.3239 207.428 28.1742 207.428 29.1818C207.428 30.1894 207.594 31.0398 207.928 31.733C208.265 32.4261 208.717 32.9508 209.286 33.3068C209.857 33.6629 210.496 33.8409 211.2 33.8409C211.905 33.8409 212.541 33.6629 213.109 33.3068C213.681 32.9508 214.134 32.4261 214.467 31.733C214.804 31.0398 214.973 30.1894 214.973 29.1818ZM225.07 26.2727C225.001 25.697 224.725 25.25 224.24 24.9318C223.755 24.6136 223.161 24.4545 222.456 24.4545C221.941 24.4545 221.49 24.5379 221.104 24.7045C220.721 24.8712 220.422 25.1004 220.206 25.392C219.994 25.6837 219.888 26.0152 219.888 26.3864C219.888 26.697 219.962 26.964 220.109 27.1875C220.261 27.4072 220.454 27.5909 220.689 27.7386C220.924 27.8826 221.17 28.0019 221.428 28.0966C221.685 28.1875 221.922 28.2614 222.138 28.3182L223.32 28.6364C223.623 28.7159 223.96 28.8258 224.331 28.9659C224.706 29.1061 225.064 29.2973 225.405 29.5398C225.75 29.7784 226.034 30.0852 226.257 30.4602C226.481 30.8352 226.592 31.2955 226.592 31.8409C226.592 32.4697 226.428 33.0379 226.098 33.5455C225.772 34.053 225.295 34.4564 224.666 34.7557C224.041 35.0549 223.282 35.2045 222.388 35.2045C221.554 35.2045 220.833 35.0701 220.223 34.8011C219.617 34.5322 219.14 34.1572 218.791 33.6761C218.446 33.1951 218.251 32.6364 218.206 32H219.661C219.698 32.4394 219.846 32.803 220.104 33.0909C220.365 33.375 220.695 33.5871 221.092 33.7273C221.494 33.8636 221.926 33.9318 222.388 33.9318C222.926 33.9318 223.409 33.8447 223.837 33.6705C224.265 33.4924 224.604 33.2462 224.854 32.9318C225.104 32.6136 225.229 32.2424 225.229 31.8182C225.229 31.4318 225.121 31.1174 224.905 30.875C224.689 30.6326 224.405 30.4356 224.053 30.2841C223.7 30.1326 223.32 30 222.911 29.8864L221.479 29.4773C220.57 29.2159 219.85 28.8428 219.32 28.358C218.789 27.8731 218.524 27.2386 218.524 26.4545C218.524 25.803 218.7 25.2348 219.053 24.75C219.409 24.2614 219.886 23.8826 220.484 23.6136C221.087 23.3409 221.759 23.2045 222.501 23.2045C223.251 23.2045 223.918 23.339 224.501 23.608C225.085 23.8731 225.547 24.2367 225.888 24.6989C226.232 25.161 226.414 25.6856 226.433 26.2727H225.07Z" fill="#B0B0B0"/>
<mask id="mask2_115_2734" style="mask-type:alpha" maskUnits="userSpaceOnUse" x="0" y="1" width="43" height="47">
<rect y="1" width="43" height="47" fill="#D9D9D9"/>
</mask>
<g mask="url(#mask2_115_2734)">
<path d="M40 8V32C40 33.1 39.6478 34.042 38.9434 34.826C38.2378 35.6087 37.39 36 36.4 36H7.6C6.61 36 5.7628 35.6087 5.0584 34.826C4.3528 34.042 4 33.1 4 32V8C4 6.9 4.3528 5.95867 5.0584 5.176C5.7628 4.392 6.61 4 7.6 4H36.4C37.39 4 38.2378 4.392 38.9434 5.176C39.6478 5.95867 40 6.9 40 8ZM7.6 12H36.4V8H7.6V12ZM7.6 20V32H36.4V20H7.6Z" fill="#7EB4C1"/>
</g>
<path d="M645.881 16V4.36364H653.994V6.64773H648.693V9.03409H653.58V11.3239H648.693V13.7159H653.994V16H645.881ZM665.659 4.36364V16H663.273L658.642 9.28409H658.568V16H655.756V4.36364H658.176L662.756 11.0682H662.852V4.36364H665.659ZM667.047 6.64773V4.36364H676.882V6.64773H673.354V16H670.581V6.64773H667.047ZM678.256 16V4.36364H683.062C683.934 4.36364 684.686 4.52083 685.318 4.83523C685.955 5.14583 686.445 5.5928 686.79 6.17614C687.134 6.75568 687.307 7.44318 687.307 8.23864C687.307 9.04545 687.131 9.73106 686.778 10.2955C686.426 10.8561 685.926 11.2841 685.278 11.5795C684.631 11.8712 683.864 12.017 682.977 12.017H679.938V9.80114H682.455C682.879 9.80114 683.233 9.74621 683.517 9.63636C683.805 9.52273 684.023 9.35227 684.17 9.125C684.318 8.89394 684.392 8.59848 684.392 8.23864C684.392 7.87879 684.318 7.58144 684.17 7.34659C684.023 7.10795 683.805 6.92992 683.517 6.8125C683.229 6.69129 682.875 6.63068 682.455 6.63068H681.068V16H678.256ZM684.807 10.6818L687.705 16H684.636L681.795 10.6818H684.807ZM688.849 16V4.36364H696.963V6.64773H691.662V9.03409H696.548V11.3239H691.662V13.7159H696.963V16H688.849ZM706.361 8.16477C706.296 7.92614 706.202 7.71591 706.077 7.53409C705.952 7.34848 705.798 7.19129 705.616 7.0625C705.435 6.93371 705.226 6.83712 704.991 6.77273C704.757 6.70455 704.499 6.67045 704.219 6.67045C703.654 6.67045 703.166 6.80682 702.753 7.07955C702.344 7.35227 702.027 7.75 701.804 8.27273C701.58 8.79167 701.469 9.42235 701.469 10.1648C701.469 10.911 701.577 11.5473 701.793 12.0739C702.009 12.6004 702.321 13.0019 702.73 13.2784C703.139 13.5549 703.635 13.6932 704.219 13.6932C704.734 13.6932 705.17 13.6098 705.526 13.4432C705.885 13.2727 706.158 13.0322 706.344 12.7216C706.529 12.411 706.622 12.0455 706.622 11.625L707.145 11.6875H704.315V9.63636H709.332V11.1761C709.332 12.2178 709.111 13.1098 708.668 13.8523C708.228 14.5947 707.622 15.1648 706.849 15.5625C706.08 15.9602 705.196 16.1591 704.196 16.1591C703.086 16.1591 702.111 15.9186 701.27 15.4375C700.429 14.9564 699.774 14.2708 699.304 13.3807C698.834 12.4867 698.599 11.4261 698.599 10.1989C698.599 9.24432 698.741 8.39773 699.026 7.65909C699.31 6.91667 699.705 6.28788 700.213 5.77273C700.724 5.25758 701.315 4.86742 701.986 4.60227C702.66 4.33712 703.385 4.20455 704.162 4.20455C704.836 4.20455 705.463 4.30114 706.043 4.49432C706.626 4.6875 707.141 4.96023 707.588 5.3125C708.039 5.66477 708.404 6.08333 708.685 6.56818C708.965 7.05303 709.139 7.58523 709.207 8.16477H706.361ZM713.148 16H710.125L714.051 4.36364H717.795L721.722 16H718.699L715.966 7.29545H715.875L713.148 16ZM712.744 11.4205H719.062V13.5568H712.744V11.4205ZM726.412 16V4.36364H734.526V6.64773H729.224V9.03409H734.111V11.3239H729.224V13.7159H734.526V16H726.412ZM736.287 4.36364H739.77L742.724 11.5682H742.861L745.815 4.36364H749.298V16H746.56V8.85227H746.463L743.668 15.9261H741.918L739.122 8.8125H739.026V16H736.287V4.36364ZM754.109 6.64773V4.36364H763.945V6.64773H760.416V16H757.643V6.64773H754.109ZM775.77 10.1818C775.77 11.4621 775.524 12.5473 775.031 13.4375C774.539 14.3277 773.872 15.0038 773.031 15.4659C772.194 15.928 771.255 16.1591 770.213 16.1591C769.168 16.1591 768.226 15.9261 767.389 15.4602C766.552 14.9943 765.887 14.3182 765.395 13.4318C764.906 12.5417 764.662 11.4583 764.662 10.1818C764.662 8.90152 764.906 7.81629 765.395 6.92614C765.887 6.03598 766.552 5.35985 767.389 4.89773C768.226 4.43561 769.168 4.20455 770.213 4.20455C771.255 4.20455 772.194 4.43561 773.031 4.89773C773.872 5.35985 774.539 6.03598 775.031 6.92614C775.524 7.81629 775.77 8.90152 775.77 10.1818ZM772.895 10.1818C772.895 9.42424 772.787 8.78409 772.571 8.26136C772.359 7.73864 772.052 7.3428 771.651 7.07386C771.253 6.80492 770.774 6.67045 770.213 6.67045C769.656 6.67045 769.177 6.80492 768.776 7.07386C768.374 7.3428 768.065 7.73864 767.849 8.26136C767.637 8.78409 767.531 9.42424 767.531 10.1818C767.531 10.9394 767.637 11.5795 767.849 12.1023C768.065 12.625 768.374 13.0208 768.776 13.2898C769.177 13.5587 769.656 13.6932 770.213 13.6932C770.774 13.6932 771.253 13.5587 771.651 13.2898C772.052 13.0208 772.359 12.625 772.571 12.1023C772.787 11.5795 772.895 10.9394 772.895 10.1818ZM781.713 16H777.412V4.36364H781.707C782.893 4.36364 783.914 4.59659 784.77 5.0625C785.63 5.52462 786.293 6.19129 786.759 7.0625C787.224 7.92992 787.457 8.9678 787.457 10.1761C787.457 11.3883 787.224 12.4299 786.759 13.3011C786.296 14.1723 785.635 14.8409 784.776 15.3068C783.916 15.7689 782.895 16 781.713 16ZM780.224 13.6023H781.605C782.257 13.6023 782.808 13.4924 783.259 13.2727C783.713 13.0492 784.056 12.6875 784.287 12.1875C784.522 11.6837 784.639 11.0133 784.639 10.1761C784.639 9.33902 784.522 8.67235 784.287 8.17614C784.052 7.67614 783.705 7.31629 783.247 7.09659C782.793 6.87311 782.232 6.76136 781.565 6.76136H780.224V13.6023ZM800.082 10.1818C800.082 11.4621 799.836 12.5473 799.344 13.4375C798.851 14.3277 798.185 15.0038 797.344 15.4659C796.507 15.928 795.567 16.1591 794.526 16.1591C793.48 16.1591 792.539 15.9261 791.702 15.4602C790.865 14.9943 790.2 14.3182 789.707 13.4318C789.219 12.5417 788.974 11.4583 788.974 10.1818C788.974 8.90152 789.219 7.81629 789.707 6.92614C790.2 6.03598 790.865 5.35985 791.702 4.89773C792.539 4.43561 793.48 4.20455 794.526 4.20455C795.567 4.20455 796.507 4.43561 797.344 4.89773C798.185 5.35985 798.851 6.03598 799.344 6.92614C799.836 7.81629 800.082 8.90152 800.082 10.1818ZM797.207 10.1818C797.207 9.42424 797.099 8.78409 796.884 8.26136C796.671 7.73864 796.365 7.3428 795.963 7.07386C795.565 6.80492 795.086 6.67045 794.526 6.67045C793.969 6.67045 793.49 6.80492 793.088 7.07386C792.687 7.3428 792.378 7.73864 792.162 8.26136C791.95 8.78409 791.844 9.42424 791.844 10.1818C791.844 10.9394 791.95 11.5795 792.162 12.1023C792.378 12.625 792.687 13.0208 793.088 13.2898C793.49 13.5587 793.969 13.6932 794.526 13.6932C795.086 13.6932 795.565 13.5587 795.963 13.2898C796.365 13.0208 796.671 12.625 796.884 12.1023C797.099 11.5795 797.207 10.9394 797.207 10.1818ZM645.773 24.6136V23.3636H654.5V24.6136H650.841V35H649.432V24.6136H645.773ZM656.675 35V23.3636H663.697V24.6136H658.084V28.5455H663.334V29.7955H658.084V33.75H663.788V35H656.675ZM666.237 35V23.3636H670.169C671.078 23.3636 671.824 23.5189 672.408 23.8295C672.991 24.1364 673.423 24.5587 673.703 25.0966C673.983 25.6345 674.124 26.2462 674.124 26.9318C674.124 27.6174 673.983 28.2254 673.703 28.7557C673.423 29.286 672.993 29.7027 672.413 30.0057C671.834 30.3049 671.093 30.4545 670.192 30.4545H667.01V29.1818H670.146C670.768 29.1818 671.268 29.0909 671.646 28.9091C672.029 28.7273 672.305 28.4697 672.476 28.1364C672.65 27.7992 672.737 27.3977 672.737 26.9318C672.737 26.4659 672.65 26.0587 672.476 25.7102C672.302 25.3617 672.023 25.0928 671.641 24.9034C671.258 24.7102 670.752 24.6136 670.124 24.6136H667.646V35H666.237ZM671.714 29.7727L674.578 35H672.942L670.124 29.7727H671.714ZM676.472 35V23.3636H680.403C681.313 23.3636 682.059 23.5189 682.642 23.8295C683.225 24.1364 683.657 24.5587 683.938 25.0966C684.218 25.6345 684.358 26.2462 684.358 26.9318C684.358 27.6174 684.218 28.2254 683.938 28.7557C683.657 29.286 683.227 29.7027 682.648 30.0057C682.068 30.3049 681.328 30.4545 680.426 30.4545H677.244V29.1818H680.381C681.002 29.1818 681.502 29.0909 681.881 28.9091C682.263 28.7273 682.54 28.4697 682.71 28.1364C682.884 27.7992 682.972 27.3977 682.972 26.9318C682.972 26.4659 682.884 26.0587 682.71 25.7102C682.536 25.3617 682.258 25.0928 681.875 24.9034C681.492 24.7102 680.987 24.6136 680.358 24.6136H677.881V35H676.472ZM681.949 29.7727L684.812 35H683.176L680.358 29.7727H681.949ZM688.115 23.3636V35H686.706V23.3636H688.115ZM690.304 24.6136V23.3636H699.031V24.6136H695.372V35H693.963V24.6136H690.304ZM710.54 29.1818C710.54 30.4091 710.318 31.4697 709.875 32.3636C709.432 33.2576 708.824 33.947 708.051 34.4318C707.278 34.9167 706.396 35.1591 705.403 35.1591C704.411 35.1591 703.528 34.9167 702.756 34.4318C701.983 33.947 701.375 33.2576 700.932 32.3636C700.489 31.4697 700.267 30.4091 700.267 29.1818C700.267 27.9545 700.489 26.8939 700.932 26C701.375 25.1061 701.983 24.4167 702.756 23.9318C703.528 23.447 704.411 23.2045 705.403 23.2045C706.396 23.2045 707.278 23.447 708.051 23.9318C708.824 24.4167 709.432 25.1061 709.875 26C710.318 26.8939 710.54 27.9545 710.54 29.1818ZM709.176 29.1818C709.176 28.1742 709.008 27.3239 708.67 26.6307C708.337 25.9375 707.884 25.4129 707.312 25.0568C706.744 24.7008 706.108 24.5227 705.403 24.5227C704.699 24.5227 704.061 24.7008 703.489 25.0568C702.92 25.4129 702.468 25.9375 702.131 26.6307C701.797 27.3239 701.631 28.1742 701.631 29.1818C701.631 30.1894 701.797 31.0398 702.131 31.733C702.468 32.4261 702.92 32.9508 703.489 33.3068C704.061 33.6629 704.699 33.8409 705.403 33.8409C706.108 33.8409 706.744 33.6629 707.312 33.3068C707.884 32.9508 708.337 32.4261 708.67 31.733C709.008 31.0398 709.176 30.1894 709.176 29.1818ZM704.79 22.1818L706.176 19.5455H707.744L705.972 22.1818H704.79ZM712.909 35V23.3636H716.841C717.75 23.3636 718.496 23.5189 719.08 23.8295C719.663 24.1364 720.095 24.5587 720.375 25.0966C720.655 25.6345 720.795 26.2462 720.795 26.9318C720.795 27.6174 720.655 28.2254 720.375 28.7557C720.095 29.286 719.665 29.7027 719.085 30.0057C718.506 30.3049 717.765 30.4545 716.864 30.4545H713.682V29.1818H716.818C717.439 29.1818 717.939 29.0909 718.318 28.9091C718.701 28.7273 718.977 28.4697 719.148 28.1364C719.322 27.7992 719.409 27.3977 719.409 26.9318C719.409 26.4659 719.322 26.0587 719.148 25.7102C718.973 25.3617 718.695 25.0928 718.312 24.9034C717.93 24.7102 717.424 24.6136 716.795 24.6136H714.318V35H712.909ZM718.386 29.7727L721.25 35H719.614L716.795 29.7727H718.386ZM724.553 23.3636V35H723.143V23.3636H724.553ZM737.196 29.1818C737.196 30.4091 736.974 31.4697 736.531 32.3636C736.088 33.2576 735.48 33.947 734.707 34.4318C733.935 34.9167 733.052 35.1591 732.06 35.1591C731.067 35.1591 730.185 34.9167 729.412 34.4318C728.639 33.947 728.031 33.2576 727.588 32.3636C727.145 31.4697 726.923 30.4091 726.923 29.1818C726.923 27.9545 727.145 26.8939 727.588 26C728.031 25.1061 728.639 24.4167 729.412 23.9318C730.185 23.447 731.067 23.2045 732.06 23.2045C733.052 23.2045 733.935 23.447 734.707 23.9318C735.48 24.4167 736.088 25.1061 736.531 26C736.974 26.8939 737.196 27.9545 737.196 29.1818ZM735.832 29.1818C735.832 28.1742 735.664 27.3239 735.327 26.6307C734.993 25.9375 734.541 25.4129 733.969 25.0568C733.401 24.7008 732.764 24.5227 732.06 24.5227C731.355 24.5227 730.717 24.7008 730.145 25.0568C729.577 25.4129 729.124 25.9375 728.787 26.6307C728.454 27.3239 728.287 28.1742 728.287 29.1818C728.287 30.1894 728.454 31.0398 728.787 31.733C729.124 32.4261 729.577 32.9508 730.145 33.3068C730.717 33.6629 731.355 33.8409 732.06 33.8409C732.764 33.8409 733.401 33.6629 733.969 33.3068C734.541 32.9508 734.993 32.4261 735.327 31.733C735.664 31.0398 735.832 30.1894 735.832 29.1818ZM753.293 23.3636V35H751.929L745.588 25.8636H745.474V35H744.065V23.3636H745.429L751.793 32.5227H751.906V23.3636H753.293ZM756.589 35H755.112L759.385 23.3636H760.839L765.112 35H763.635L760.158 25.2045H760.067L756.589 35ZM757.135 30.4545H763.089V31.7045H757.135V30.4545ZM775.741 27H774.332C774.249 26.5947 774.103 26.2386 773.895 25.9318C773.69 25.625 773.44 25.3674 773.145 25.1591C772.853 24.947 772.529 24.7879 772.173 24.6818C771.817 24.5758 771.446 24.5227 771.06 24.5227C770.355 24.5227 769.717 24.7008 769.145 25.0568C768.577 25.4129 768.124 25.9375 767.787 26.6307C767.454 27.3239 767.287 28.1742 767.287 29.1818C767.287 30.1894 767.454 31.0398 767.787 31.733C768.124 32.4261 768.577 32.9508 769.145 33.3068C769.717 33.6629 770.355 33.8409 771.06 33.8409C771.446 33.8409 771.817 33.7879 772.173 33.6818C772.529 33.5758 772.853 33.4186 773.145 33.2102C773.44 32.9981 773.69 32.7386 773.895 32.4318C774.103 32.1212 774.249 31.7652 774.332 31.3636H775.741C775.635 31.9583 775.442 32.4905 775.162 32.9602C774.882 33.4299 774.533 33.8295 774.116 34.1591C773.7 34.4848 773.232 34.733 772.713 34.9034C772.198 35.0739 771.647 35.1591 771.06 35.1591C770.067 35.1591 769.185 34.9167 768.412 34.4318C767.639 33.947 767.031 33.2576 766.588 32.3636C766.145 31.4697 765.923 30.4091 765.923 29.1818C765.923 27.9545 766.145 26.8939 766.588 26C767.031 25.1061 767.639 24.4167 768.412 23.9318C769.185 23.447 770.067 23.2045 771.06 23.2045C771.647 23.2045 772.198 23.2898 772.713 23.4602C773.232 23.6307 773.7 23.8807 774.116 24.2102C774.533 24.536 774.882 24.9337 775.162 25.4034C775.442 25.8693 775.635 26.4015 775.741 27ZM779.428 23.3636V35H778.018V23.3636H779.428ZM792.071 29.1818C792.071 30.4091 791.849 31.4697 791.406 32.3636C790.963 33.2576 790.355 33.947 789.582 34.4318C788.81 34.9167 787.927 35.1591 786.935 35.1591C785.942 35.1591 785.06 34.9167 784.287 34.4318C783.514 33.947 782.906 33.2576 782.463 32.3636C782.02 31.4697 781.798 30.4091 781.798 29.1818C781.798 27.9545 782.02 26.8939 782.463 26C782.906 25.1061 783.514 24.4167 784.287 23.9318C785.06 23.447 785.942 23.2045 786.935 23.2045C787.927 23.2045 788.81 23.447 789.582 23.9318C790.355 24.4167 790.963 25.1061 791.406 26C791.849 26.8939 792.071 27.9545 792.071 29.1818ZM790.707 29.1818C790.707 28.1742 790.539 27.3239 790.202 26.6307C789.868 25.9375 789.416 25.4129 788.844 25.0568C788.276 24.7008 787.639 24.5227 786.935 24.5227C786.23 24.5227 785.592 24.7008 785.02 25.0568C784.452 25.4129 783.999 25.9375 783.662 26.6307C783.329 27.3239 783.162 28.1742 783.162 29.1818C783.162 30.1894 783.329 31.0398 783.662 31.733C783.999 32.4261 784.452 32.9508 785.02 33.3068C785.592 33.6629 786.23 33.8409 786.935 33.8409C787.639 33.8409 788.276 33.6629 788.844 33.3068C789.416 32.9508 789.868 32.4261 790.202 31.733C790.539 31.0398 790.707 30.1894 790.707 29.1818ZM803.668 23.3636V35H802.304L795.963 25.8636H795.849V35H794.44V23.3636H795.804L802.168 32.5227H802.281V23.3636H803.668ZM806.964 35H805.487L809.76 23.3636H811.214L815.487 35H814.01L810.533 25.2045H810.442L806.964 35ZM807.51 30.4545H813.464V31.7045H807.51V30.4545ZM817.3 35V23.3636H818.709V33.75H824.118V35H817.3Z" fill="#B0B0B0"/>
<mask id="mask3_115_2734" style="mask-type:alpha" maskUnits="userSpaceOnUse" x="611" y="3" width="35" height="35">
<rect x="611" y="3" width="35" height="35" fill="#D9D9D9"/>
</mask>
<g mask="url(#mask3_115_2734)">
<path d="M625.51 35.6142V32.6357C622.472 32.2882 619.866 31.004 617.691 28.7831C615.515 26.5611 614.257 23.8989 613.917 20.7963H611V17.8179H613.917C614.257 14.7153 615.515 12.053 617.691 9.83111C619.866 7.61017 622.472 6.32595 625.51 5.97846V3H628.427V5.97846C631.465 6.32595 634.072 7.61017 636.248 9.83111C638.423 12.053 639.681 14.7153 640.021 17.8179H642.938V20.7963H640.021C639.681 23.8989 638.423 26.5611 636.248 28.7831C634.072 31.004 631.465 32.2882 628.427 32.6357V35.6142H625.51ZM626.969 29.7317C629.788 29.7317 632.194 28.7141 634.188 26.6788C636.181 24.6435 637.177 22.1863 637.177 19.3071C637.177 16.4279 636.181 13.9707 634.188 11.9354C632.194 9.90011 629.788 8.88247 626.969 8.88247C624.149 8.88247 621.743 9.90011 619.75 11.9354C617.757 13.9707 616.76 16.4279 616.76 19.3071C616.76 22.1863 617.757 24.6435 619.75 26.6788C621.743 28.7141 624.149 29.7317 626.969 29.7317ZM626.969 25.264C625.365 25.264 623.991 24.6807 622.849 23.5142C621.707 22.3476 621.135 20.9452 621.135 19.3071C621.135 17.6689 621.707 16.2666 622.849 15.1C623.991 13.9334 625.365 13.3502 626.969 13.3502C628.573 13.3502 629.946 13.9334 631.089 15.1C632.231 16.2666 632.802 17.6689 632.802 19.3071C632.802 20.9452 632.231 22.3476 631.089 23.5142C629.946 24.6807 628.573 25.264 626.969 25.264ZM626.969 22.2856C627.771 22.2856 628.458 21.9937 629.029 21.4099C629.6 20.8271 629.885 20.1262 629.885 19.3071C629.885 18.488 629.6 17.7866 629.029 17.2028C628.458 16.62 627.771 16.3286 626.969 16.3286C626.167 16.3286 625.48 16.62 624.91 17.2028C624.338 17.7866 624.052 18.488 624.052 19.3071C624.052 20.1262 624.338 20.8271 624.91 21.4099C625.48 21.9937 626.167 22.2856 626.969 22.2856Z" fill="#7EB4C1"/>
</g>
<path d="M363.398 16H360.375L364.301 4.36364H368.045L371.972 16H368.949L366.216 7.29545H366.125L363.398 16ZM362.994 11.4205H369.312V13.5568H362.994V11.4205ZM379.155 7.85227C379.117 7.43561 378.948 7.11174 378.649 6.88068C378.354 6.64583 377.931 6.52841 377.382 6.52841C377.018 6.52841 376.715 6.57576 376.473 6.67045C376.231 6.76515 376.049 6.89583 375.928 7.0625C375.806 7.22538 375.744 7.41288 375.74 7.625C375.732 7.79924 375.767 7.95265 375.842 8.08523C375.922 8.2178 376.036 8.33523 376.183 8.4375C376.335 8.53598 376.517 8.62311 376.729 8.69886C376.941 8.77462 377.179 8.84091 377.445 8.89773L378.445 9.125C379.02 9.25 379.528 9.41667 379.967 9.625C380.411 9.83333 380.782 10.0814 381.081 10.3693C381.384 10.6572 381.613 10.9886 381.768 11.3636C381.924 11.7386 382.003 12.1591 382.007 12.625C382.003 13.3598 381.818 13.9905 381.45 14.517C381.083 15.0436 380.554 15.447 379.865 15.7273C379.179 16.0076 378.352 16.1477 377.382 16.1477C376.409 16.1477 375.56 16.0019 374.837 15.7102C374.113 15.4186 373.551 14.9754 373.149 14.3807C372.748 13.786 372.541 13.0341 372.53 12.125H375.223C375.246 12.5 375.346 12.8125 375.524 13.0625C375.702 13.3125 375.946 13.5019 376.257 13.6307C376.571 13.7595 376.935 13.8239 377.348 13.8239C377.727 13.8239 378.049 13.7727 378.314 13.6705C378.583 13.5682 378.789 13.4261 378.933 13.2443C379.077 13.0625 379.151 12.8542 379.155 12.6193C379.151 12.3996 379.083 12.2121 378.95 12.0568C378.818 11.8977 378.613 11.7614 378.337 11.6477C378.064 11.5303 377.715 11.4223 377.291 11.3239L376.075 11.0398C375.068 10.8087 374.274 10.4356 373.695 9.92045C373.115 9.40151 372.827 8.70076 372.831 7.81818C372.827 7.09848 373.02 6.4678 373.411 5.92614C373.801 5.38447 374.34 4.96212 375.03 4.65909C375.719 4.35606 376.505 4.20455 377.388 4.20455C378.289 4.20455 379.071 4.35795 379.734 4.66477C380.401 4.9678 380.918 5.39394 381.286 5.94318C381.653 6.49242 381.84 7.12879 381.848 7.85227H379.155ZM386.865 4.36364H390.348L393.303 11.5682H393.439L396.393 4.36364H399.876V16H397.138V8.85227H397.041L394.246 15.9261H392.496L389.7 8.8125H389.604V16H386.865V4.36364ZM401.631 16V4.36364H409.744V6.64773H404.443V9.03409H409.33V11.3239H404.443V13.7159H409.744V16H401.631ZM411.506 16V4.36364H414.318V13.7159H419.159V16H411.506ZM420.615 16V4.36364H423.428V9.03409H428.013V4.36364H430.82V16H428.013V11.3239H423.428V16H420.615ZM443.567 10.1818C443.567 11.4621 443.321 12.5473 442.828 13.4375C442.336 14.3277 441.669 15.0038 440.828 15.4659C439.991 15.928 439.052 16.1591 438.01 16.1591C436.964 16.1591 436.023 15.9261 435.186 15.4602C434.349 14.9943 433.684 14.3182 433.192 13.4318C432.703 12.5417 432.459 11.4583 432.459 10.1818C432.459 8.90152 432.703 7.81629 433.192 6.92614C433.684 6.03598 434.349 5.35985 435.186 4.89773C436.023 4.43561 436.964 4.20455 438.01 4.20455C439.052 4.20455 439.991 4.43561 440.828 4.89773C441.669 5.35985 442.336 6.03598 442.828 6.92614C443.321 7.81629 443.567 8.90152 443.567 10.1818ZM440.692 10.1818C440.692 9.42424 440.584 8.78409 440.368 8.26136C440.156 7.73864 439.849 7.3428 439.447 7.07386C439.05 6.80492 438.571 6.67045 438.01 6.67045C437.453 6.67045 436.974 6.80492 436.572 7.07386C436.171 7.3428 435.862 7.73864 435.646 8.26136C435.434 8.78409 435.328 9.42424 435.328 10.1818C435.328 10.9394 435.434 11.5795 435.646 12.1023C435.862 12.625 436.171 13.0208 436.572 13.2898C436.974 13.5587 437.453 13.6932 438.01 13.6932C438.571 13.6932 439.05 13.5587 439.447 13.2898C439.849 13.0208 440.156 12.625 440.368 12.1023C440.584 11.5795 440.692 10.9394 440.692 10.1818ZM445.209 16V4.36364H450.016C450.887 4.36364 451.639 4.52083 452.271 4.83523C452.908 5.14583 453.398 5.5928 453.743 6.17614C454.088 6.75568 454.26 7.44318 454.26 8.23864C454.26 9.04545 454.084 9.73106 453.732 10.2955C453.379 10.8561 452.879 11.2841 452.232 11.5795C451.584 11.8712 450.817 12.017 449.93 12.017H446.891V9.80114H449.408C449.832 9.80114 450.186 9.74621 450.47 9.63636C450.758 9.52273 450.976 9.35227 451.124 9.125C451.271 8.89394 451.345 8.59848 451.345 8.23864C451.345 7.87879 451.271 7.58144 451.124 7.34659C450.976 7.10795 450.758 6.92992 450.47 6.8125C450.182 6.69129 449.828 6.63068 449.408 6.63068H448.021V16H445.209ZM451.76 10.6818L454.658 16H451.589L448.749 10.6818H451.76ZM455.803 16V4.36364H463.916V6.64773H458.615V9.03409H463.501V11.3239H458.615V13.7159H463.916V16H455.803ZM471.967 7.85227C471.929 7.43561 471.761 7.11174 471.462 6.88068C471.166 6.64583 470.744 6.52841 470.195 6.52841C469.831 6.52841 469.528 6.57576 469.286 6.67045C469.043 6.76515 468.861 6.89583 468.74 7.0625C468.619 7.22538 468.556 7.41288 468.553 7.625C468.545 7.79924 468.579 7.95265 468.655 8.08523C468.734 8.2178 468.848 8.33523 468.996 8.4375C469.147 8.53598 469.329 8.62311 469.541 8.69886C469.753 8.77462 469.992 8.84091 470.257 8.89773L471.257 9.125C471.833 9.25 472.34 9.41667 472.78 9.625C473.223 9.83333 473.594 10.0814 473.893 10.3693C474.196 10.6572 474.426 10.9886 474.581 11.3636C474.736 11.7386 474.816 12.1591 474.82 12.625C474.816 13.3598 474.63 13.9905 474.263 14.517C473.895 15.0436 473.367 15.447 472.678 15.7273C471.992 16.0076 471.164 16.1477 470.195 16.1477C469.221 16.1477 468.373 16.0019 467.649 15.7102C466.926 15.4186 466.363 14.9754 465.962 14.3807C465.56 13.786 465.354 13.0341 465.342 12.125H468.036C468.058 12.5 468.159 12.8125 468.337 13.0625C468.515 13.3125 468.759 13.5019 469.07 13.6307C469.384 13.7595 469.748 13.8239 470.161 13.8239C470.539 13.8239 470.861 13.7727 471.126 13.6705C471.395 13.5682 471.602 13.4261 471.746 13.2443C471.89 13.0625 471.964 12.8542 471.967 12.6193C471.964 12.3996 471.895 12.2121 471.763 12.0568C471.63 11.8977 471.426 11.7614 471.149 11.6477C470.876 11.5303 470.528 11.4223 470.104 11.3239L468.888 11.0398C467.88 10.8087 467.087 10.4356 466.507 9.92045C465.928 9.40151 465.64 8.70076 465.643 7.81818C465.64 7.09848 465.833 6.4678 466.223 5.92614C466.613 5.38447 467.153 4.96212 467.842 4.65909C468.532 4.35606 469.318 4.20455 470.2 4.20455C471.102 4.20455 471.884 4.35795 472.547 4.66477C473.214 4.9678 473.731 5.39394 474.098 5.94318C474.465 6.49242 474.653 7.12879 474.661 7.85227H471.967ZM479.678 4.36364H483.161L486.115 11.5682H486.251L489.206 4.36364H492.689V16H489.95V8.85227H489.854L487.058 15.9261H485.308L482.513 8.8125H482.416V16H479.678V4.36364ZM496.96 16H493.938L497.864 4.36364H501.608L505.534 16H502.511L499.778 7.29545H499.688L496.96 16ZM496.557 11.4205H502.875V13.5568H496.557V11.4205ZM506.787 16V4.36364H511.594C512.465 4.36364 513.217 4.52083 513.849 4.83523C514.486 5.14583 514.976 5.5928 515.321 6.17614C515.666 6.75568 515.838 7.44318 515.838 8.23864C515.838 9.04545 515.662 9.73106 515.31 10.2955C514.957 10.8561 514.457 11.2841 513.81 11.5795C513.162 11.8712 512.395 12.017 511.509 12.017H508.469V9.80114H510.986C511.41 9.80114 511.764 9.74621 512.048 9.63636C512.336 9.52273 512.554 9.35227 512.702 9.125C512.849 8.89394 512.923 8.59848 512.923 8.23864C512.923 7.87879 512.849 7.58144 512.702 7.34659C512.554 7.10795 512.336 6.92992 512.048 6.8125C511.76 6.69129 511.406 6.63068 510.986 6.63068H509.599V16H506.787ZM513.338 10.6818L516.236 16H513.168L510.327 10.6818H513.338ZM527.943 8.57955H525.102C525.064 8.28788 524.987 8.02462 524.869 7.78977C524.752 7.55492 524.597 7.35417 524.403 7.1875C524.21 7.02083 523.981 6.89394 523.716 6.80682C523.455 6.71591 523.165 6.67045 522.847 6.67045C522.282 6.67045 521.795 6.80871 521.386 7.08523C520.981 7.36174 520.669 7.76136 520.449 8.28409C520.233 8.80682 520.125 9.43939 520.125 10.1818C520.125 10.9545 520.235 11.6023 520.455 12.125C520.678 12.6439 520.991 13.036 521.392 13.3011C521.797 13.5625 522.277 13.6932 522.83 13.6932C523.14 13.6932 523.422 13.6534 523.676 13.5739C523.934 13.4943 524.159 13.3788 524.352 13.2273C524.549 13.072 524.71 12.8845 524.835 12.6648C524.964 12.4413 525.053 12.1894 525.102 11.9091L527.943 11.9261C527.894 12.4413 527.744 12.9489 527.494 13.4489C527.248 13.9489 526.909 14.4053 526.477 14.8182C526.045 15.2273 525.519 15.553 524.898 15.7955C524.28 16.0379 523.572 16.1591 522.773 16.1591C521.72 16.1591 520.777 15.928 519.943 15.4659C519.114 15 518.458 14.322 517.977 13.4318C517.496 12.5417 517.256 11.4583 517.256 10.1818C517.256 8.90152 517.5 7.81629 517.989 6.92614C518.477 6.03598 519.138 5.35985 519.972 4.89773C520.805 4.43561 521.739 4.20455 522.773 4.20455C523.477 4.20455 524.129 4.30303 524.727 4.5C525.326 4.69318 525.852 4.97727 526.307 5.35227C526.761 5.72348 527.131 6.17992 527.415 6.72159C527.699 7.26326 527.875 7.88258 527.943 8.57955ZM531.773 16H528.75L532.676 4.36364H536.42L540.347 16H537.324L534.591 7.29545H534.5L531.773 16ZM531.369 11.4205H537.688V13.5568H531.369V11.4205ZM547.53 7.85227C547.492 7.43561 547.323 7.11174 547.024 6.88068C546.729 6.64583 546.306 6.52841 545.757 6.52841C545.393 6.52841 545.09 6.57576 544.848 6.67045C544.606 6.76515 544.424 6.89583 544.303 7.0625C544.181 7.22538 544.119 7.41288 544.115 7.625C544.107 7.79924 544.142 7.95265 544.217 8.08523C544.297 8.2178 544.411 8.33523 544.558 8.4375C544.71 8.53598 544.892 8.62311 545.104 8.69886C545.316 8.77462 545.554 8.84091 545.82 8.89773L546.82 9.125C547.395 9.25 547.903 9.41667 548.342 9.625C548.786 9.83333 549.157 10.0814 549.456 10.3693C549.759 10.6572 549.988 10.9886 550.143 11.3636C550.299 11.7386 550.378 12.1591 550.382 12.625C550.378 13.3598 550.193 13.9905 549.825 14.517C549.458 15.0436 548.929 15.447 548.24 15.7273C547.554 16.0076 546.727 16.1477 545.757 16.1477C544.784 16.1477 543.935 16.0019 543.212 15.7102C542.488 15.4186 541.926 14.9754 541.524 14.3807C541.123 13.786 540.916 13.0341 540.905 12.125H543.598C543.621 12.5 543.721 12.8125 543.899 13.0625C544.077 13.3125 544.321 13.5019 544.632 13.6307C544.946 13.7595 545.31 13.8239 545.723 13.8239C546.102 13.8239 546.424 13.7727 546.689 13.6705C546.958 13.5682 547.164 13.4261 547.308 13.2443C547.452 13.0625 547.526 12.8542 547.53 12.6193C547.526 12.3996 547.458 12.2121 547.325 12.0568C547.193 11.8977 546.988 11.7614 546.712 11.6477C546.439 11.5303 546.09 11.4223 545.666 11.3239L544.45 11.0398C543.443 10.8087 542.649 10.4356 542.07 9.92045C541.49 9.40151 541.202 8.70076 541.206 7.81818C541.202 7.09848 541.395 6.4678 541.786 5.92614C542.176 5.38447 542.715 4.96212 543.405 4.65909C544.094 4.35606 544.88 4.20455 545.763 4.20455C546.664 4.20455 547.446 4.35795 548.109 4.66477C548.776 4.9678 549.293 5.39394 549.661 5.94318C550.028 6.49242 550.215 7.12879 550.223 7.85227H547.53ZM364.955 35H361.545V23.3636H365.159C366.269 23.3636 367.218 23.5947 368.006 24.0568C368.797 24.5189 369.403 25.1818 369.824 26.0455C370.244 26.9091 370.455 27.9451 370.455 29.1534C370.455 30.3731 370.239 31.4205 369.807 32.2955C369.379 33.1667 368.754 33.8352 367.932 34.3011C367.114 34.767 366.121 35 364.955 35ZM362.608 34.0455H364.892C365.892 34.0455 366.729 33.8485 367.403 33.4545C368.078 33.0606 368.583 32.4981 368.92 31.767C369.258 31.036 369.426 30.1648 369.426 29.1534C369.422 28.1496 369.256 27.286 368.926 26.5625C368.6 25.839 368.116 25.2841 367.472 24.8977C366.831 24.5114 366.04 24.3182 365.097 24.3182H362.608V34.0455ZM382.57 29.1818C382.57 30.3939 382.354 31.4489 381.922 32.3466C381.49 33.2405 380.895 33.9337 380.138 34.4261C379.384 34.9148 378.517 35.1591 377.536 35.1591C376.554 35.1591 375.685 34.9148 374.928 34.4261C374.174 33.9337 373.581 33.2405 373.149 32.3466C372.721 31.4489 372.507 30.3939 372.507 29.1818C372.507 27.9697 372.721 26.9167 373.149 26.0227C373.581 25.125 374.176 24.4318 374.933 23.9432C375.691 23.4508 376.558 23.2045 377.536 23.2045C378.517 23.2045 379.384 23.4508 380.138 23.9432C380.895 24.4318 381.49 25.125 381.922 26.0227C382.354 26.9167 382.57 27.9697 382.57 29.1818ZM381.536 29.1818C381.536 28.1402 381.361 27.2481 381.013 26.5057C380.664 25.7595 380.189 25.1894 379.587 24.7955C378.984 24.4015 378.301 24.2045 377.536 24.2045C376.774 24.2045 376.092 24.4015 375.49 24.7955C374.888 25.1894 374.411 25.7576 374.058 26.5C373.71 27.2424 373.536 28.1364 373.536 29.1818C373.536 30.2235 373.71 31.1155 374.058 31.858C374.407 32.6004 374.882 33.1705 375.484 33.5682C376.087 33.9621 376.77 34.1591 377.536 34.1591C378.301 34.1591 378.984 33.9621 379.587 33.5682C380.193 33.1742 380.67 32.6061 381.018 31.8636C381.367 31.1174 381.539 30.2235 381.536 29.1818ZM389.639 23.3636H390.866L395.088 33.5H395.19L399.412 23.3636H400.639V35H399.639V25.608H399.548L395.622 35H394.656L390.73 25.608H390.639V35H389.639V23.3636ZM403.733 35V23.3636H410.483V24.3182H404.795V28.6989H410.125V29.6534H404.795V34.0455H410.597V35H403.733ZM413.233 35V23.3636H416.989C417.814 23.3636 418.504 23.5133 419.057 23.8125C419.614 24.108 420.032 24.5189 420.312 25.0455C420.597 25.5682 420.739 26.1686 420.739 26.8466C420.739 27.5246 420.597 28.1231 420.312 28.642C420.032 29.161 419.616 29.5663 419.062 29.858C418.509 30.1496 417.824 30.2955 417.006 30.2955H413.807V29.3239H416.977C417.583 29.3239 418.087 29.2235 418.489 29.0227C418.894 28.822 419.195 28.536 419.392 28.1648C419.593 27.7936 419.693 27.3542 419.693 26.8466C419.693 26.339 419.593 25.8958 419.392 25.517C419.191 25.1345 418.888 24.839 418.483 24.6307C418.081 24.4223 417.574 24.3182 416.96 24.3182H414.295V35H413.233ZM418.364 29.75L421.227 35H420L417.165 29.75H418.364ZM432.44 27H431.372C431.293 26.6023 431.149 26.2348 430.94 25.8977C430.736 25.5568 430.478 25.2595 430.168 25.0057C429.857 24.7519 429.505 24.5549 429.111 24.4148C428.717 24.2746 428.291 24.2045 427.832 24.2045C427.098 24.2045 426.427 24.3958 425.821 24.7784C425.219 25.161 424.736 25.7235 424.372 26.4659C424.012 27.2045 423.832 28.1098 423.832 29.1818C423.832 30.2614 424.012 31.1705 424.372 31.9091C424.736 32.6477 425.219 33.2083 425.821 33.5909C426.427 33.9697 427.098 34.1591 427.832 34.1591C428.291 34.1591 428.717 34.089 429.111 33.9489C429.505 33.8087 429.857 33.6136 430.168 33.3636C430.478 33.1098 430.736 32.8125 430.94 32.4716C431.149 32.1307 431.293 31.7614 431.372 31.3636H432.44C432.346 31.8977 432.168 32.3958 431.906 32.858C431.649 33.3163 431.319 33.7178 430.918 34.0625C430.52 34.4072 430.062 34.6761 429.543 34.8693C429.024 35.0625 428.454 35.1591 427.832 35.1591C426.855 35.1591 425.988 34.9148 425.23 34.4261C424.473 33.9337 423.878 33.2405 423.446 32.3466C423.018 31.4527 422.804 30.3977 422.804 29.1818C422.804 27.9659 423.018 26.911 423.446 26.017C423.878 25.1231 424.473 24.4318 425.23 23.9432C425.988 23.4508 426.855 23.2045 427.832 23.2045C428.454 23.2045 429.024 23.3011 429.543 23.4943C430.062 23.6837 430.52 23.9527 430.918 24.3011C431.319 24.6458 431.649 25.0473 431.906 25.5057C432.168 25.964 432.346 26.4621 432.44 27ZM434.953 35H433.839L438.072 23.3636H439.209L443.442 35H442.328L438.68 24.7443H438.601L434.953 35ZM435.754 30.5398H441.527V31.4943H435.754V30.5398ZM448.845 35H445.436V23.3636H449.05C450.16 23.3636 451.108 23.5947 451.896 24.0568C452.688 24.5189 453.294 25.1818 453.714 26.0455C454.135 26.9091 454.345 27.9451 454.345 29.1534C454.345 30.3731 454.129 31.4205 453.697 32.2955C453.269 33.1667 452.644 33.8352 451.822 34.3011C451.004 34.767 450.012 35 448.845 35ZM446.499 34.0455H448.783C449.783 34.0455 450.62 33.8485 451.294 33.4545C451.968 33.0606 452.474 32.4981 452.811 31.767C453.148 31.036 453.317 30.1648 453.317 29.1534C453.313 28.1496 453.146 27.286 452.817 26.5625C452.491 25.839 452.006 25.2841 451.362 24.8977C450.722 24.5114 449.93 24.3182 448.987 24.3182H446.499V34.0455ZM466.46 29.1818C466.46 30.3939 466.244 31.4489 465.812 32.3466C465.381 33.2405 464.786 33.9337 464.028 34.4261C463.275 34.9148 462.407 35.1591 461.426 35.1591C460.445 35.1591 459.576 34.9148 458.818 34.4261C458.064 33.9337 457.472 33.2405 457.04 32.3466C456.612 31.4489 456.398 30.3939 456.398 29.1818C456.398 27.9697 456.612 26.9167 457.04 26.0227C457.472 25.125 458.066 24.4318 458.824 23.9432C459.581 23.4508 460.449 23.2045 461.426 23.2045C462.407 23.2045 463.275 23.4508 464.028 23.9432C464.786 24.4318 465.381 25.125 465.812 26.0227C466.244 26.9167 466.46 27.9697 466.46 29.1818ZM465.426 29.1818C465.426 28.1402 465.252 27.2481 464.903 26.5057C464.555 25.7595 464.08 25.1894 463.477 24.7955C462.875 24.4015 462.191 24.2045 461.426 24.2045C460.665 24.2045 459.983 24.4015 459.381 24.7955C458.778 25.1894 458.301 25.7576 457.949 26.5C457.6 27.2424 457.426 28.1364 457.426 29.1818C457.426 30.2235 457.6 31.1155 457.949 31.858C458.297 32.6004 458.773 33.1705 459.375 33.5682C459.977 33.9621 460.661 34.1591 461.426 34.1591C462.191 34.1591 462.875 33.9621 463.477 33.5682C464.083 33.1742 464.561 32.6061 464.909 31.8636C465.258 31.1174 465.43 30.2235 465.426 29.1818Z" fill="#B0B0B0"/>
<mask id="mask4_115_2734" style="mask-type:alpha" maskUnits="userSpaceOnUse" x="325" y="1" width="35" height="35">
<rect x="325" y="1" width="35" height="35" fill="#D9D9D9"/>
</mask>
<g mask="url(#mask4_115_2734)">
<path d="M337.906 26.9948L342.5 24.224L347.094 27.0313L345.89 21.7812L349.937 18.2813L344.614 17.8073L342.5 12.849L340.385 17.7708L335.062 18.2448L339.109 21.7812L337.906 26.9948ZM333.495 33.0833L335.864 22.8385L327.917 15.9479L338.417 15.0365L342.5 5.375L346.583 15.0365L357.083 15.9479L349.135 22.8385L351.505 33.0833L342.5 27.651L333.495 33.0833Z" fill="#7EB4C1"/>
</g>
</svg>
