<svg width="389" height="85" viewBox="0 0 389 85" fill="none" xmlns="http://www.w3.org/2000/svg">
<path d="M47.5483 64H45.2812L48.2259 55.2727H51.0341L53.9787 64H51.7116L49.6619 57.4716H49.5938L47.5483 64ZM47.2457 60.5653H51.9844V62.1676H47.2457V60.5653ZM59.3661 57.8892C59.3377 57.5767 59.2113 57.3338 58.9869 57.1605C58.7653 56.9844 58.4485 56.8963 58.0366 56.8963C57.7638 56.8963 57.5366 56.9318 57.3548 57.0028C57.1729 57.0739 57.0366 57.1719 56.9457 57.2969C56.8548 57.419 56.8079 57.5597 56.805 57.7188C56.7994 57.8494 56.8249 57.9645 56.8817 58.0639C56.9414 58.1634 57.0266 58.2514 57.1374 58.3281C57.2511 58.402 57.3874 58.4673 57.5465 58.5241C57.7056 58.581 57.8846 58.6307 58.0835 58.6733L58.8335 58.8438C59.2653 58.9375 59.646 59.0625 59.9755 59.2188C60.3079 59.375 60.5863 59.5611 60.8107 59.777C61.038 59.9929 61.2099 60.2415 61.3263 60.5227C61.4428 60.804 61.5025 61.1193 61.5053 61.4688C61.5025 62.0199 61.3633 62.4929 61.0877 62.8878C60.8121 63.2827 60.4158 63.5852 59.8988 63.7955C59.3846 64.0057 58.7638 64.1108 58.0366 64.1108C57.3065 64.1108 56.6701 64.0014 56.1275 63.7827C55.5849 63.5639 55.163 63.2315 54.8619 62.7855C54.5607 62.3395 54.4059 61.7756 54.3974 61.0938H56.4173C56.4343 61.375 56.5096 61.6094 56.6431 61.7969C56.7766 61.9844 56.9599 62.1264 57.1928 62.223C57.4286 62.3196 57.7013 62.3679 58.011 62.3679C58.2951 62.3679 58.5366 62.3295 58.7354 62.2528C58.9371 62.1761 59.092 62.0696 59.1999 61.9332C59.3079 61.7969 59.3633 61.6406 59.3661 61.4645C59.3633 61.2997 59.3121 61.1591 59.2127 61.0426C59.1133 60.9233 58.9599 60.821 58.7525 60.7358C58.5479 60.6477 58.2866 60.5668 57.9684 60.4929L57.0565 60.2798C56.3008 60.1065 55.7056 59.8267 55.271 59.4403C54.8363 59.0511 54.6204 58.5256 54.6232 57.8636C54.6204 57.3239 54.7653 56.8509 55.0579 56.4446C55.3505 56.0384 55.7553 55.7216 56.2724 55.4943C56.7894 55.267 57.3789 55.1534 58.0408 55.1534C58.717 55.1534 59.3036 55.2685 59.8008 55.4986C60.3008 55.7259 60.6886 56.0455 60.9641 56.4574C61.2397 56.8693 61.3803 57.3466 61.386 57.8892H59.3661ZM65.1488 55.2727H67.761L69.9769 60.6761H70.0792L72.2951 55.2727H74.9073V64H72.8533V58.6392H72.7809L70.6843 63.9446H69.3718L67.2752 58.6094H67.2028V64H65.1488V55.2727ZM76.223 64V55.2727H82.3082V56.9858H78.3324V58.7756H81.9972V60.4929H78.3324V62.2869H82.3082V64H76.223ZM83.6293 64V55.2727H85.7386V62.2869H89.3693V64H83.6293ZM90.4613 64V55.2727H92.5707V58.7756H96.0096V55.2727H98.1147V64H96.0096V60.4929H92.5707V64H90.4613ZM107.675 59.6364C107.675 60.5966 107.49 61.4105 107.121 62.0781C106.752 62.7457 106.252 63.2528 105.621 63.5994C104.993 63.946 104.289 64.1193 103.507 64.1193C102.723 64.1193 102.017 63.9446 101.39 63.5952C100.762 63.2457 100.263 62.7386 99.8938 62.0739C99.5273 61.4062 99.3441 60.5937 99.3441 59.6364C99.3441 58.6761 99.5273 57.8622 99.8938 57.1946C100.263 56.527 100.762 56.0199 101.39 55.6733C102.017 55.3267 102.723 55.1534 103.507 55.1534C104.289 55.1534 104.993 55.3267 105.621 55.6733C106.252 56.0199 106.752 56.527 107.121 57.1946C107.49 57.8622 107.675 58.6761 107.675 59.6364ZM105.519 59.6364C105.519 59.0682 105.438 58.5881 105.276 58.196C105.117 57.804 104.887 57.5071 104.586 57.3054C104.287 57.1037 103.928 57.0028 103.507 57.0028C103.09 57.0028 102.73 57.1037 102.429 57.3054C102.128 57.5071 101.897 57.804 101.735 58.196C101.576 58.5881 101.496 59.0682 101.496 59.6364C101.496 60.2045 101.576 60.6847 101.735 61.0767C101.897 61.4687 102.128 61.7656 102.429 61.9673C102.73 62.169 103.09 62.2699 103.507 62.2699C103.928 62.2699 104.287 62.169 104.586 61.9673C104.887 61.7656 105.117 61.4687 105.276 61.0767C105.438 60.6847 105.519 60.2045 105.519 59.6364ZM108.907 64V55.2727H112.512C113.165 55.2727 113.729 55.3906 114.203 55.6264C114.681 55.8594 115.049 56.1946 115.307 56.6321C115.566 57.0668 115.695 57.5824 115.695 58.179C115.695 58.7841 115.563 59.2983 115.299 59.7216C115.034 60.142 114.659 60.4631 114.174 60.6847C113.688 60.9034 113.113 61.0128 112.448 61.0128H110.168V59.3509H112.056C112.374 59.3509 112.64 59.3097 112.853 59.2273C113.069 59.142 113.232 59.0142 113.343 58.8438C113.453 58.6705 113.509 58.4489 113.509 58.179C113.509 57.9091 113.453 57.6861 113.343 57.5099C113.232 57.331 113.069 57.1974 112.853 57.1094C112.637 57.0185 112.371 56.973 112.056 56.973H111.016V64H108.907ZM113.82 60.0114L115.993 64H113.692L111.561 60.0114H113.82ZM116.852 64V55.2727H122.937V56.9858H118.961V58.7756H122.626V60.4929H118.961V62.2869H122.937V64H116.852ZM128.975 57.8892C128.947 57.5767 128.821 57.3338 128.596 57.1605C128.375 56.9844 128.058 56.8963 127.646 56.8963C127.373 56.8963 127.146 56.9318 126.964 57.0028C126.782 57.0739 126.646 57.1719 126.555 57.2969C126.464 57.419 126.417 57.5597 126.414 57.7188C126.409 57.8494 126.434 57.9645 126.491 58.0639C126.551 58.1634 126.636 58.2514 126.747 58.3281C126.86 58.402 126.997 58.4673 127.156 58.5241C127.315 58.581 127.494 58.6307 127.693 58.6733L128.443 58.8438C128.875 58.9375 129.255 59.0625 129.585 59.2188C129.917 59.375 130.196 59.5611 130.42 59.777C130.647 59.9929 130.819 60.2415 130.936 60.5227C131.052 60.804 131.112 61.1193 131.115 61.4688C131.112 62.0199 130.973 62.4929 130.697 62.8878C130.422 63.2827 130.025 63.5852 129.508 63.7955C128.994 64.0057 128.373 64.1108 127.646 64.1108C126.916 64.1108 126.279 64.0014 125.737 63.7827C125.194 63.5639 124.772 63.2315 124.471 62.7855C124.17 62.3395 124.015 61.7756 124.007 61.0938H126.027C126.044 61.375 126.119 61.6094 126.252 61.7969C126.386 61.9844 126.569 62.1264 126.802 62.223C127.038 62.3196 127.311 62.3679 127.62 62.3679C127.904 62.3679 128.146 62.3295 128.345 62.2528C128.547 62.1761 128.701 62.0696 128.809 61.9332C128.917 61.7969 128.973 61.6406 128.975 61.4645C128.973 61.2997 128.922 61.1591 128.822 61.0426C128.723 60.9233 128.569 60.821 128.362 60.7358C128.157 60.6477 127.896 60.5668 127.578 60.4929L126.666 60.2798C125.91 60.1065 125.315 59.8267 124.88 59.4403C124.446 59.0511 124.23 58.5256 124.233 57.8636C124.23 57.3239 124.375 56.8509 124.667 56.4446C124.96 56.0384 125.365 55.7216 125.882 55.4943C126.399 55.267 126.988 55.1534 127.65 55.1534C128.326 55.1534 128.913 55.2685 129.41 55.4986C129.91 55.7259 130.298 56.0455 130.574 56.4574C130.849 56.8693 130.99 57.3466 130.995 57.8892H128.975ZM134.758 55.2727H137.37L139.586 60.6761H139.689L141.904 55.2727H144.517V64H142.463V58.6392H142.39L140.294 63.9446H138.981L136.885 58.6094H136.812V64H134.758V55.2727ZM147.72 64H145.453L148.398 55.2727H151.206L154.151 64H151.884L149.834 57.4716H149.766L147.72 64ZM147.418 60.5653H152.156V62.1676H147.418V60.5653ZM155.09 64V55.2727H158.695C159.349 55.2727 159.913 55.3906 160.387 55.6264C160.864 55.8594 161.232 56.1946 161.491 56.6321C161.749 57.0668 161.879 57.5824 161.879 58.179C161.879 58.7841 161.746 59.2983 161.482 59.7216C161.218 60.142 160.843 60.4631 160.357 60.6847C159.871 60.9034 159.296 61.0128 158.631 61.0128H156.352V59.3509H158.239C158.558 59.3509 158.823 59.3097 159.036 59.2273C159.252 59.142 159.415 59.0142 159.526 58.8438C159.637 58.6705 159.692 58.4489 159.692 58.179C159.692 57.9091 159.637 57.6861 159.526 57.5099C159.415 57.331 159.252 57.1974 159.036 57.1094C158.82 57.0185 158.555 56.973 158.239 56.973H157.2V64H155.09ZM160.004 60.0114L162.177 64H159.876L157.745 60.0114H160.004ZM170.957 58.4347H168.827C168.798 58.2159 168.74 58.0185 168.652 57.8423C168.564 57.6662 168.447 57.5156 168.303 57.3906C168.158 57.2656 167.986 57.1705 167.787 57.1051C167.591 57.0369 167.374 57.0028 167.135 57.0028C166.712 57.0028 166.347 57.1065 166.04 57.3139C165.736 57.5213 165.501 57.821 165.337 58.2131C165.175 58.6051 165.094 59.0795 165.094 59.6364C165.094 60.2159 165.176 60.7017 165.341 61.0938C165.509 61.483 165.743 61.777 166.044 61.9759C166.348 62.1719 166.707 62.2699 167.122 62.2699C167.355 62.2699 167.567 62.2401 167.757 62.1804C167.95 62.1207 168.119 62.0341 168.264 61.9205C168.412 61.804 168.533 61.6634 168.626 61.4986C168.723 61.331 168.79 61.142 168.827 60.9318L170.957 60.9446C170.92 61.331 170.808 61.7116 170.621 62.0866C170.436 62.4616 170.182 62.804 169.858 63.1136C169.534 63.4205 169.139 63.6648 168.673 63.8466C168.21 64.0284 167.679 64.1193 167.08 64.1193C166.29 64.1193 165.582 63.946 164.957 63.5994C164.335 63.25 163.844 62.7415 163.483 62.0739C163.122 61.4062 162.942 60.5937 162.942 59.6364C162.942 58.6761 163.125 57.8622 163.491 57.1946C163.858 56.527 164.354 56.0199 164.979 55.6733C165.604 55.3267 166.304 55.1534 167.08 55.1534C167.608 55.1534 168.097 55.2273 168.545 55.375C168.994 55.5199 169.389 55.733 169.73 56.0142C170.071 56.2926 170.348 56.6349 170.561 57.0412C170.774 57.4474 170.906 57.9119 170.957 58.4347ZM173.83 64H171.562L174.507 55.2727H177.315L180.26 64H177.993L175.943 57.4716H175.875L173.83 64ZM173.527 60.5653H178.266V62.1676H173.527V60.5653ZM185.647 57.8892C185.619 57.5767 185.493 57.3338 185.268 57.1605C185.047 56.9844 184.73 56.8963 184.318 56.8963C184.045 56.8963 183.818 56.9318 183.636 57.0028C183.454 57.0739 183.318 57.1719 183.227 57.2969C183.136 57.419 183.089 57.5597 183.086 57.7188C183.081 57.8494 183.106 57.9645 183.163 58.0639C183.223 58.1634 183.308 58.2514 183.419 58.3281C183.532 58.402 183.669 58.4673 183.828 58.5241C183.987 58.581 184.166 58.6307 184.365 58.6733L185.115 58.8438C185.547 58.9375 185.927 59.0625 186.257 59.2188C186.589 59.375 186.868 59.5611 187.092 59.777C187.319 59.9929 187.491 60.2415 187.608 60.5227C187.724 60.804 187.784 61.1193 187.787 61.4688C187.784 62.0199 187.645 62.4929 187.369 62.8878C187.093 63.2827 186.697 63.5852 186.18 63.7955C185.666 64.0057 185.045 64.1108 184.318 64.1108C183.588 64.1108 182.951 64.0014 182.409 63.7827C181.866 63.5639 181.444 63.2315 181.143 62.7855C180.842 62.3395 180.687 61.7756 180.679 61.0938H182.699C182.716 61.375 182.791 61.6094 182.924 61.7969C183.058 61.9844 183.241 62.1264 183.474 62.223C183.71 62.3196 183.983 62.3679 184.292 62.3679C184.576 62.3679 184.818 62.3295 185.017 62.2528C185.218 62.1761 185.373 62.0696 185.481 61.9332C185.589 61.7969 185.645 61.6406 185.647 61.4645C185.645 61.2997 185.593 61.1591 185.494 61.0426C185.395 60.9233 185.241 60.821 185.034 60.7358C184.829 60.6477 184.568 60.5668 184.25 60.4929L183.338 60.2798C182.582 60.1065 181.987 59.8267 181.552 59.4403C181.118 59.0511 180.902 58.5256 180.904 57.8636C180.902 57.3239 181.047 56.8509 181.339 56.4446C181.632 56.0384 182.037 55.7216 182.554 55.4943C183.071 55.267 183.66 55.1534 184.322 55.1534C184.998 55.1534 185.585 55.2685 186.082 55.4986C186.582 55.7259 186.97 56.0455 187.245 56.4574C187.521 56.8693 187.662 57.3466 187.667 57.8892H185.647ZM48.7159 79H46.1591V70.2727H48.8693C49.7017 70.2727 50.4134 70.446 51.0043 70.7926C51.598 71.1392 52.0526 71.6364 52.3679 72.2841C52.6832 72.9318 52.8409 73.7088 52.8409 74.6151C52.8409 75.5298 52.679 76.3153 52.3551 76.9716C52.0341 77.625 51.5653 78.1264 50.9489 78.4759C50.3352 78.8253 49.5909 79 48.7159 79ZM46.956 78.2841H48.669C49.419 78.2841 50.0469 78.1364 50.5526 77.8409C51.0582 77.5455 51.4375 77.1236 51.6903 76.5753C51.9432 76.027 52.0696 75.3736 52.0696 74.6151C52.0668 73.8622 51.9418 73.2145 51.6946 72.6719C51.4503 72.1293 51.0866 71.7131 50.6037 71.4233C50.1236 71.1335 49.5298 70.9886 48.8224 70.9886H46.956V78.2841ZM61.9272 74.6364C61.9272 75.5455 61.7653 76.3366 61.4414 77.0099C61.1175 77.6804 60.6715 78.2003 60.1033 78.5696C59.538 78.9361 58.8874 79.1193 58.1516 79.1193C57.4158 79.1193 56.7638 78.9361 56.1957 78.5696C55.6303 78.2003 55.1857 77.6804 54.8619 77.0099C54.5408 76.3366 54.3803 75.5455 54.3803 74.6364C54.3803 73.7273 54.5408 72.9375 54.8619 72.267C55.1857 71.5937 55.6317 71.0739 56.1999 70.7074C56.7681 70.3381 57.4187 70.1534 58.1516 70.1534C58.8874 70.1534 59.538 70.3381 60.1033 70.7074C60.6715 71.0739 61.1175 71.5937 61.4414 72.267C61.7653 72.9375 61.9272 73.7273 61.9272 74.6364ZM61.1516 74.6364C61.1516 73.8551 61.021 73.1861 60.7596 72.6293C60.4982 72.0696 60.1417 71.642 59.69 71.3466C59.2383 71.0511 58.7255 70.9034 58.1516 70.9034C57.5806 70.9034 57.0692 71.0511 56.6175 71.3466C56.1658 71.642 55.8079 72.0682 55.5437 72.625C55.2823 73.1818 55.1516 73.8523 55.1516 74.6364C55.1516 75.4176 55.2823 76.0866 55.5437 76.6435C55.805 77.2003 56.1616 77.6278 56.6133 77.9261C57.065 78.2216 57.5778 78.3693 58.1516 78.3693C58.7255 78.3693 59.2383 78.2216 59.69 77.9261C60.1445 77.6307 60.5025 77.2045 60.7638 76.6477C61.0252 76.0881 61.1545 75.4176 61.1516 74.6364ZM67.2294 70.2727H68.1499L71.3161 77.875H71.3928L74.5589 70.2727H75.4794V79H74.7294V71.956H74.6612L71.7166 79H70.9922L68.0476 71.956H67.9794V79H67.2294V70.2727ZM77.7997 79V70.2727H82.8622V70.9886H78.5966V74.2741H82.5938V74.9901H78.5966V78.2841H82.9474V79H77.7997ZM84.9247 79V70.2727H87.7415C88.3608 70.2727 88.8778 70.3849 89.2926 70.6094C89.7102 70.831 90.0241 71.1392 90.2344 71.5341C90.4474 71.9261 90.554 72.3764 90.554 72.8849C90.554 73.3935 90.4474 73.8423 90.2344 74.2315C90.0241 74.6207 89.7116 74.9247 89.2969 75.1435C88.8821 75.3622 88.3679 75.4716 87.7543 75.4716H85.3551V74.7429H87.733C88.1875 74.7429 88.5653 74.6676 88.8665 74.517C89.1705 74.3665 89.3963 74.152 89.544 73.8736C89.6946 73.5952 89.7699 73.2656 89.7699 72.8849C89.7699 72.5043 89.6946 72.1719 89.544 71.8878C89.3935 71.6009 89.1662 71.3793 88.8622 71.223C88.5611 71.0668 88.1804 70.9886 87.7202 70.9886H85.7216V79H84.9247ZM88.7727 75.0625L90.9205 79H90L87.8736 75.0625H88.7727ZM99.3303 73H98.5291C98.4695 72.7017 98.3615 72.4261 98.2053 72.1733C98.0518 71.9176 97.8587 71.6946 97.6257 71.5043C97.3928 71.3139 97.1286 71.1662 96.8331 71.0611C96.5376 70.956 96.218 70.9034 95.8743 70.9034C95.3232 70.9034 94.8203 71.0469 94.3658 71.3338C93.9141 71.6207 93.5518 72.0426 93.2791 72.5994C93.0092 73.1534 92.8743 73.8324 92.8743 74.6364C92.8743 75.446 93.0092 76.1278 93.2791 76.6818C93.5518 77.2358 93.9141 77.6562 94.3658 77.9432C94.8203 78.2273 95.3232 78.3693 95.8743 78.3693C96.218 78.3693 96.5376 78.3168 96.8331 78.2116C97.1286 78.1065 97.3928 77.9602 97.6257 77.7727C97.8587 77.5824 98.0518 77.3594 98.2053 77.1037C98.3615 76.848 98.4695 76.571 98.5291 76.2727H99.3303C99.2592 76.6733 99.1257 77.0469 98.9297 77.3935C98.7365 77.7372 98.4893 78.0384 98.1882 78.2969C97.8899 78.5554 97.5462 78.7571 97.157 78.902C96.7678 79.0469 96.3402 79.1193 95.8743 79.1193C95.1413 79.1193 94.4908 78.9361 93.9226 78.5696C93.3544 78.2003 92.9084 77.6804 92.5845 77.0099C92.2635 76.3395 92.103 75.5483 92.103 74.6364C92.103 73.7244 92.2635 72.9332 92.5845 72.2628C92.9084 71.5923 93.3544 71.0739 93.9226 70.7074C94.4908 70.3381 95.1413 70.1534 95.8743 70.1534C96.3402 70.1534 96.7678 70.2259 97.157 70.3707C97.5462 70.5128 97.8899 70.7145 98.1882 70.9759C98.4893 71.2344 98.7365 71.5355 98.9297 71.8793C99.1257 72.223 99.2592 72.5966 99.3303 73ZM101.215 79H100.38L103.554 70.2727H104.407L107.581 79H106.746L104.01 71.3082H103.951L101.215 79ZM101.816 75.6548H106.145V76.3707H101.816V75.6548ZM111.634 79H109.077V70.2727H111.787C112.62 70.2727 113.331 70.446 113.922 70.7926C114.516 71.1392 114.971 71.6364 115.286 72.2841C115.601 72.9318 115.759 73.7088 115.759 74.6151C115.759 75.5298 115.597 76.3153 115.273 76.9716C114.952 77.625 114.483 78.1264 113.867 78.4759C113.253 78.8253 112.509 79 111.634 79ZM109.874 78.2841H111.587C112.337 78.2841 112.965 78.1364 113.471 77.8409C113.976 77.5455 114.355 77.1236 114.608 76.5753C114.861 76.027 114.988 75.3736 114.988 74.6151C114.985 73.8622 114.86 73.2145 114.613 72.6719C114.368 72.1293 114.005 71.7131 113.522 71.4233C113.042 71.1335 112.448 70.9886 111.74 70.9886H109.874V78.2841ZM124.845 74.6364C124.845 75.5455 124.683 76.3366 124.359 77.0099C124.036 77.6804 123.589 78.2003 123.021 78.5696C122.456 78.9361 121.805 79.1193 121.07 79.1193C120.334 79.1193 119.682 78.9361 119.114 78.5696C118.548 78.2003 118.104 77.6804 117.78 77.0099C117.459 76.3366 117.298 75.5455 117.298 74.6364C117.298 73.7273 117.459 72.9375 117.78 72.267C118.104 71.5937 118.55 71.0739 119.118 70.7074C119.686 70.3381 120.337 70.1534 121.07 70.1534C121.805 70.1534 122.456 70.3381 123.021 70.7074C123.589 71.0739 124.036 71.5937 124.359 72.267C124.683 72.9375 124.845 73.7273 124.845 74.6364ZM124.07 74.6364C124.07 73.8551 123.939 73.1861 123.678 72.6293C123.416 72.0696 123.06 71.642 122.608 71.3466C122.156 71.0511 121.643 70.9034 121.07 70.9034C120.499 70.9034 119.987 71.0511 119.536 71.3466C119.084 71.642 118.726 72.0682 118.462 72.625C118.2 73.1818 118.07 73.8523 118.07 74.6364C118.07 75.4176 118.2 76.0866 118.462 76.6435C118.723 77.2003 119.08 77.6278 119.531 77.9261C119.983 78.2216 120.496 78.3693 121.07 78.3693C121.643 78.3693 122.156 78.2216 122.608 77.9261C123.063 77.6307 123.42 77.2045 123.682 76.6477C123.943 76.0881 124.072 75.4176 124.07 74.6364Z" fill="#B0B0B0"/>
<mask id="mask0_408_3147" style="mask-type:alpha" maskUnits="userSpaceOnUse" x="3" y="47" width="35" height="35">
<rect x="3" y="47" width="35" height="35" fill="#D9D9D9"/>
</mask>
<g mask="url(#mask0_408_3147)">
<path d="M15.9061 72.9948L20.4998 70.224L25.0936 73.0313L23.8905 67.7812L27.9373 64.2813L22.6144 63.8073L20.4998 58.849L18.3853 63.7708L13.0623 64.2448L17.1092 67.7812L15.9061 72.9948ZM11.4946 79.0833L13.8644 68.8385L5.9165 61.9479L16.4165 61.0365L20.4998 51.375L24.5832 61.0365L35.0832 61.9479L27.1353 68.8385L29.505 79.0833L20.4998 73.651L11.4946 79.0833Z" fill="#7EB4C1"/>
</g>
<path d="M250.548 14H248.281L251.226 5.27273H254.034L256.979 14H254.712L252.662 7.47159H252.594L250.548 14ZM250.246 10.5653H254.984V12.1676H250.246V10.5653ZM257.918 14V5.27273H260.028V12.2869H263.658V14H257.918ZM270.03 5.27273H272.135V10.902C272.135 11.5526 271.98 12.1193 271.671 12.6023C271.361 13.0824 270.929 13.4545 270.375 13.7188C269.821 13.9801 269.178 14.1108 268.445 14.1108C267.703 14.1108 267.056 13.9801 266.502 13.7188C265.948 13.4545 265.517 13.0824 265.211 12.6023C264.904 12.1193 264.75 11.5526 264.75 10.902V5.27273H266.86V10.7188C266.86 11.0199 266.925 11.2884 267.056 11.5241C267.189 11.7599 267.375 11.9446 267.614 12.0781C267.853 12.2116 268.13 12.2784 268.445 12.2784C268.76 12.2784 269.036 12.2116 269.272 12.0781C269.51 11.9446 269.696 11.7599 269.83 11.5241C269.963 11.2884 270.03 11.0199 270.03 10.7188V5.27273ZM279.185 8.12358C279.136 7.9446 279.065 7.78693 278.972 7.65057C278.878 7.51136 278.763 7.39347 278.626 7.29688C278.49 7.20028 278.334 7.12784 278.158 7.07955C277.982 7.02841 277.788 7.00284 277.578 7.00284C277.155 7.00284 276.788 7.10511 276.479 7.30966C276.172 7.5142 275.935 7.8125 275.767 8.20455C275.599 8.59375 275.516 9.06676 275.516 9.62358C275.516 10.1832 275.597 10.6605 275.759 11.0554C275.92 11.4503 276.155 11.7514 276.462 11.9588C276.768 12.1662 277.141 12.2699 277.578 12.2699C277.964 12.2699 278.291 12.2074 278.558 12.0824C278.828 11.9545 279.033 11.7741 279.172 11.5412C279.311 11.3082 279.381 11.0341 279.381 10.7188L279.773 10.7656H277.651V9.22727H281.413V10.3821C281.413 11.1634 281.247 11.8324 280.915 12.3892C280.585 12.946 280.131 13.3736 279.551 13.6719C278.974 13.9702 278.311 14.1193 277.561 14.1193C276.729 14.1193 275.997 13.9389 275.366 13.5781C274.736 13.2173 274.244 12.7031 273.892 12.0355C273.54 11.3651 273.364 10.5696 273.364 9.64915C273.364 8.93324 273.47 8.2983 273.683 7.74432C273.896 7.1875 274.193 6.71591 274.574 6.32955C274.957 5.94318 275.401 5.65057 275.903 5.4517C276.409 5.25284 276.953 5.15341 277.536 5.15341C278.041 5.15341 278.511 5.22585 278.946 5.37074C279.384 5.51562 279.77 5.72017 280.105 5.98438C280.443 6.24858 280.717 6.5625 280.928 6.92614C281.138 7.28977 281.268 7.68892 281.32 8.12358H279.185ZM287.936 5.27273H290.042V10.902C290.042 11.5526 289.887 12.1193 289.577 12.6023C289.267 13.0824 288.836 13.4545 288.282 13.7188C287.728 13.9801 287.084 14.1108 286.351 14.1108C285.61 14.1108 284.962 13.9801 284.408 13.7188C283.854 13.4545 283.424 13.0824 283.117 12.6023C282.81 12.1193 282.657 11.5526 282.657 10.902V5.27273H284.766V10.7188C284.766 11.0199 284.831 11.2884 284.962 11.5241C285.096 11.7599 285.282 11.9446 285.52 12.0781C285.759 12.2116 286.036 12.2784 286.351 12.2784C286.667 12.2784 286.942 12.2116 287.178 12.0781C287.417 11.9446 287.603 11.7599 287.736 11.5241C287.87 11.2884 287.936 11.0199 287.936 10.7188V5.27273ZM291.364 14V5.27273H297.449V6.9858H293.473V8.77557H297.138V10.4929H293.473V12.2869H297.449V14H291.364ZM298.77 14V5.27273H300.879V12.2869H304.51V14H298.77ZM311.406 14H308.18V5.27273H311.402C312.291 5.27273 313.056 5.44744 313.699 5.79688C314.343 6.14347 314.841 6.64347 315.19 7.29688C315.539 7.94744 315.714 8.72585 315.714 9.6321C315.714 10.5412 315.539 11.3224 315.19 11.9759C314.843 12.6293 314.348 13.1307 313.703 13.4801C313.058 13.8267 312.292 14 311.406 14ZM310.289 12.2017H311.325C311.814 12.2017 312.227 12.1193 312.565 11.9545C312.906 11.7869 313.163 11.5156 313.336 11.1406C313.512 10.7628 313.6 10.2599 313.6 9.6321C313.6 9.00426 313.512 8.50426 313.336 8.1321C313.16 7.7571 312.9 7.48722 312.556 7.32244C312.216 7.15483 311.795 7.07102 311.295 7.07102H310.289V12.2017ZM316.946 14V5.27273H323.031V6.9858H319.055V8.77557H322.72V10.4929H319.055V12.2869H323.031V14H316.946ZM249.159 29V20.2727H254.222V20.9886H249.956V24.2741H253.953V24.9901H249.956V28.2841H254.307V29H249.159ZM259.553 26.2727H260.439L261.555 27.7514L261.743 27.9986L263.115 29.8182H262.229L261.223 28.4759L261.044 28.2372L259.553 26.2727ZM263.439 24.6364C263.439 25.5455 263.277 26.3366 262.953 27.0099C262.629 27.6804 262.183 28.2003 261.615 28.5696C261.05 28.9361 260.399 29.1193 259.663 29.1193C258.928 29.1193 258.276 28.9361 257.707 28.5696C257.142 28.2003 256.697 27.6804 256.374 27.0099C256.053 26.3366 255.892 25.5455 255.892 24.6364C255.892 23.7273 256.053 22.9375 256.374 22.267C256.697 21.5937 257.143 21.0739 257.712 20.7074C258.28 20.3381 258.93 20.1534 259.663 20.1534C260.399 20.1534 261.05 20.3381 261.615 20.7074C262.183 21.0739 262.629 21.5937 262.953 22.267C263.277 22.9375 263.439 23.7273 263.439 24.6364ZM262.663 24.6364C262.663 23.8551 262.533 23.1861 262.271 22.6293C262.01 22.0696 261.653 21.642 261.202 21.3466C260.75 21.0511 260.237 20.9034 259.663 20.9034C259.092 20.9034 258.581 21.0511 258.129 21.3466C257.678 21.642 257.32 22.0682 257.055 22.625C256.794 23.1818 256.663 23.8523 256.663 24.6364C256.663 25.4176 256.794 26.0866 257.055 26.6435C257.317 27.2003 257.673 27.6278 258.125 27.9261C258.577 28.2216 259.089 28.3693 259.663 28.3693C260.237 28.3693 260.75 28.2216 261.202 27.9261C261.656 27.6307 262.014 27.2045 262.276 26.6477C262.537 26.0881 262.666 25.4176 262.663 24.6364ZM271.183 20.2727H271.98V26.0511C271.98 26.6449 271.841 27.1761 271.562 27.6449C271.284 28.1108 270.896 28.4787 270.399 28.7486C269.904 29.0156 269.329 29.1491 268.673 29.1491C268.02 29.1491 267.444 29.0142 266.947 28.7443C266.45 28.4744 266.062 28.1065 265.784 27.6406C265.505 27.1747 265.366 26.6449 265.366 26.0511V20.2727H266.163V25.9957C266.163 26.4588 266.267 26.8722 266.474 27.2358C266.681 27.5966 266.973 27.8807 267.348 28.0881C267.725 28.2955 268.167 28.3991 268.673 28.3991C269.179 28.3991 269.62 28.2955 269.998 28.0881C270.376 27.8807 270.667 27.5966 270.872 27.2358C271.079 26.8722 271.183 26.4588 271.183 25.9957V20.2727ZM275.093 20.2727V29H274.296V20.2727H275.093ZM277.413 29V20.2727H280.23C280.849 20.2727 281.366 20.392 281.781 20.6307C282.199 20.8665 282.512 21.1875 282.723 21.5938C282.936 22 283.042 22.4574 283.042 22.9659C283.042 23.4744 282.937 23.9332 282.727 24.3423C282.517 24.7486 282.204 25.071 281.789 25.3097C281.375 25.5455 280.859 25.6634 280.243 25.6634H278.027V24.9474H280.221C280.679 24.9474 281.058 24.8622 281.359 24.6918C281.66 24.5185 281.885 24.2827 282.032 23.9844C282.183 23.6861 282.258 23.3466 282.258 22.9659C282.258 22.5852 282.183 22.2457 282.032 21.9474C281.885 21.6491 281.659 21.4148 281.355 21.2443C281.054 21.0739 280.672 20.9886 280.208 20.9886H278.21V29H277.413ZM284.035 29H283.2L286.375 20.2727H287.227L290.402 29H289.566L286.831 21.3082H286.771L284.035 29ZM284.636 25.6548H288.966V26.3707H284.636V25.6548ZM291.897 20.2727H292.818L295.984 27.875H296.061L299.227 20.2727H300.147V29H299.397V21.956H299.329L296.385 29H295.66L292.716 21.956H292.647V29H291.897V20.2727ZM302.468 29V20.2727H307.53V20.9886H303.265V24.2741H307.262V24.9901H303.265V28.2841H307.615V29H302.468ZM316.39 20.2727V29H315.614L310.458 21.6918H310.39V29H309.593V20.2727H310.364L315.537 27.5895H315.605V20.2727H316.39ZM318.181 20.9886V20.2727H324.51V20.9886H321.744V29H320.947V20.9886H318.181ZM333.095 24.6364C333.095 25.5455 332.933 26.3366 332.609 27.0099C332.286 27.6804 331.839 28.2003 331.271 28.5696C330.706 28.9361 330.055 29.1193 329.32 29.1193C328.584 29.1193 327.932 28.9361 327.364 28.5696C326.798 28.2003 326.354 27.6804 326.03 27.0099C325.709 26.3366 325.548 25.5455 325.548 24.6364C325.548 23.7273 325.709 22.9375 326.03 22.267C326.354 21.5937 326.8 21.0739 327.368 20.7074C327.936 20.3381 328.587 20.1534 329.32 20.1534C330.055 20.1534 330.706 20.3381 331.271 20.7074C331.839 21.0739 332.286 21.5937 332.609 22.267C332.933 22.9375 333.095 23.7273 333.095 24.6364ZM332.32 24.6364C332.32 23.8551 332.189 23.1861 331.928 22.6293C331.666 22.0696 331.31 21.642 330.858 21.3466C330.406 21.0511 329.893 20.9034 329.32 20.9034C328.749 20.9034 328.237 21.0511 327.786 21.3466C327.334 21.642 326.976 22.0682 326.712 22.625C326.45 23.1818 326.32 23.8523 326.32 24.6364C326.32 25.4176 326.45 26.0866 326.712 26.6435C326.973 27.2003 327.33 27.6278 327.781 27.9261C328.233 28.2216 328.746 28.3693 329.32 28.3693C329.893 28.3693 330.406 28.2216 330.858 27.9261C331.313 27.6307 331.67 27.2045 331.932 26.6477C332.193 26.0881 332.322 25.4176 332.32 24.6364ZM339.761 22.4545C339.713 21.9687 339.498 21.5824 339.118 21.2955C338.737 21.0085 338.258 20.8651 337.681 20.8651C337.275 20.8651 336.917 20.9347 336.608 21.0739C336.301 21.2131 336.059 21.4062 335.883 21.6534C335.71 21.8977 335.623 22.1761 335.623 22.4886C335.623 22.7188 335.673 22.9205 335.772 23.0938C335.872 23.267 336.005 23.4162 336.173 23.5412C336.343 23.6634 336.531 23.7685 336.735 23.8565C336.943 23.9446 337.152 24.0185 337.362 24.0781L338.282 24.3423C338.561 24.419 338.839 24.517 339.118 24.6364C339.396 24.7557 339.65 24.9062 339.88 25.0881C340.113 25.267 340.299 25.4872 340.439 25.7486C340.581 26.0071 340.652 26.3182 340.652 26.6818C340.652 27.1477 340.531 27.5668 340.289 27.9389C340.048 28.3111 339.701 28.6065 339.25 28.8253C338.798 29.0412 338.257 29.1491 337.626 29.1491C337.032 29.1491 336.517 29.0511 336.079 28.8551C335.642 28.6562 335.298 28.3821 335.048 28.0327C334.798 27.6832 334.657 27.2784 334.626 26.8182H335.444C335.473 27.1619 335.586 27.4531 335.785 27.6918C335.984 27.9304 336.243 28.1122 336.561 28.2372C336.879 28.3594 337.234 28.4205 337.626 28.4205C338.061 28.4205 338.447 28.348 338.785 28.2031C339.126 28.0554 339.393 27.8509 339.586 27.5895C339.782 27.3253 339.88 27.0185 339.88 26.669C339.88 26.3736 339.804 26.1264 339.65 25.9276C339.497 25.7259 339.282 25.5568 339.007 25.4205C338.734 25.2841 338.417 25.1634 338.056 25.0582L337.012 24.7514C336.328 24.5469 335.797 24.2642 335.419 23.9034C335.041 23.5426 334.852 23.0824 334.852 22.5227C334.852 22.054 334.977 21.642 335.227 21.2869C335.48 20.929 335.821 20.6506 336.25 20.4517C336.681 20.25 337.166 20.1491 337.703 20.1491C338.245 20.1491 338.725 20.2486 339.143 20.4474C339.561 20.6463 339.892 20.9205 340.136 21.2699C340.383 21.6165 340.515 22.0114 340.532 22.4545H339.761Z" fill="#B0B0B0"/>
<mask id="mask1_408_3147" style="mask-type:alpha" maskUnits="userSpaceOnUse" x="210" y="0" width="35" height="35">
<rect x="210" width="35" height="35" fill="#D9D9D9"/>
</mask>
<g mask="url(#mask1_408_3147)">
<path d="M226.396 30.8062V27.6043C225.108 27.3065 223.996 26.7356 223.061 25.8917C222.124 25.0478 221.438 23.8564 221 22.3176L223.698 21.2006C224.063 22.392 224.604 23.298 225.321 23.9185C226.038 24.539 226.979 24.8492 228.146 24.8492C229.142 24.8492 229.987 24.6199 230.68 24.1612C231.373 23.7015 231.719 22.9877 231.719 22.0197C231.719 21.151 231.451 20.462 230.917 19.9527C230.382 19.4443 229.142 18.8675 227.198 18.2222C225.108 17.552 223.674 16.7518 222.896 15.8215C222.118 14.8903 221.729 13.7545 221.729 12.4142C221.729 10.8008 222.24 9.54739 223.26 8.65385C224.281 7.76031 225.326 7.25149 226.396 7.12739V4H229.312V7.12739C230.528 7.32595 231.531 7.77868 232.321 8.48557C233.11 9.19345 233.688 10.0562 234.052 11.0739L231.354 12.2652C231.063 11.471 230.649 10.8753 230.115 10.4782C229.58 10.081 228.851 9.88247 227.927 9.88247C226.858 9.88247 226.043 10.1247 225.484 10.6092C224.925 11.0927 224.646 11.6944 224.646 12.4142C224.646 13.2332 225.01 13.8786 225.74 14.3502C226.469 14.8218 227.733 15.3182 229.531 15.8394C231.208 16.3358 232.479 17.1236 233.342 18.2028C234.204 19.283 234.635 20.5305 234.635 21.9452C234.635 23.7075 234.125 25.0478 233.104 25.9662C232.083 26.8845 230.819 27.4554 229.312 27.6788V30.8062H226.396Z" fill="#7EB4C1"/>
</g>
<path d="M247.661 64V55.2727H253.746V56.9858H249.77V58.7756H253.435V60.4929H249.77V62.2869H253.746V64H247.661ZM262.494 55.2727V64H260.705L257.232 58.9631H257.176V64H255.067V55.2727H256.882L260.317 60.3011H260.389V55.2727H262.494ZM263.535 56.9858V55.2727H270.912V56.9858H268.265V64H266.186V56.9858H263.535ZM271.942 64V55.2727H275.547C276.2 55.2727 276.764 55.3906 277.239 55.6264C277.716 55.8594 278.084 56.1946 278.342 56.6321C278.601 57.0668 278.73 57.5824 278.73 58.179C278.73 58.7841 278.598 59.2983 278.334 59.7216C278.07 60.142 277.695 60.4631 277.209 60.6847C276.723 60.9034 276.148 61.0128 275.483 61.0128H273.203V59.3509H275.091C275.409 59.3509 275.675 59.3097 275.888 59.2273C276.104 59.142 276.267 59.0142 276.378 58.8438C276.489 58.6705 276.544 58.4489 276.544 58.179C276.544 57.9091 276.489 57.6861 276.378 57.5099C276.267 57.331 276.104 57.1974 275.888 57.1094C275.672 57.0185 275.406 56.973 275.091 56.973H274.051V64H271.942ZM276.855 60.0114L279.028 64H276.727L274.597 60.0114H276.855ZM279.887 64V55.2727H285.972V56.9858H281.996V58.7756H285.661V60.4929H281.996V62.2869H285.972V64H279.887ZM293.021 58.1236C292.972 57.9446 292.901 57.7869 292.808 57.6506C292.714 57.5114 292.599 57.3935 292.462 57.2969C292.326 57.2003 292.17 57.1278 291.994 57.0795C291.817 57.0284 291.624 57.0028 291.414 57.0028C290.991 57.0028 290.624 57.1051 290.315 57.3097C290.008 57.5142 289.771 57.8125 289.603 58.2045C289.435 58.5937 289.352 59.0668 289.352 59.6236C289.352 60.1832 289.433 60.6605 289.594 61.0554C289.756 61.4503 289.991 61.7514 290.298 61.9588C290.604 62.1662 290.977 62.2699 291.414 62.2699C291.8 62.2699 292.127 62.2074 292.394 62.0824C292.664 61.9545 292.869 61.7741 293.008 61.5412C293.147 61.3082 293.217 61.0341 293.217 60.7188L293.609 60.7656H291.487V59.2273H295.249V60.3821C295.249 61.1634 295.083 61.8324 294.751 62.3892C294.421 62.946 293.967 63.3736 293.387 63.6719C292.81 63.9702 292.147 64.1193 291.397 64.1193C290.565 64.1193 289.833 63.9389 289.202 63.5781C288.572 63.2173 288.08 62.7031 287.728 62.0355C287.376 61.3651 287.2 60.5696 287.2 59.6491C287.2 58.9332 287.306 58.2983 287.519 57.7443C287.732 57.1875 288.029 56.7159 288.41 56.3295C288.793 55.9432 289.237 55.6506 289.739 55.4517C290.245 55.2528 290.789 55.1534 291.371 55.1534C291.877 55.1534 292.347 55.2259 292.782 55.3707C293.219 55.5156 293.606 55.7202 293.941 55.9844C294.279 56.2486 294.553 56.5625 294.763 56.9261C294.974 57.2898 295.104 57.6889 295.156 58.1236H293.021ZM298.111 64H295.844L298.788 55.2727H301.597L304.541 64H302.274L300.224 57.4716H300.156L298.111 64ZM297.808 60.5653H302.547V62.1676H297.808V60.5653ZM308.059 64V55.2727H314.144V56.9858H310.168V58.7756H313.833V60.4929H310.168V62.2869H314.144V64H308.059ZM315.465 55.2727H318.077L320.293 60.6761H320.396L322.612 55.2727H325.224V64H323.17V58.6392H323.097L321.001 63.9446H319.688L317.592 58.6094H317.519V64H315.465V55.2727ZM328.832 56.9858V55.2727H336.208V56.9858H333.562V64H331.483V56.9858H328.832ZM345.077 59.6364C345.077 60.5966 344.893 61.4105 344.523 62.0781C344.154 62.7457 343.654 63.2528 343.023 63.5994C342.396 63.946 341.691 64.1193 340.91 64.1193C340.126 64.1193 339.42 63.9446 338.792 63.5952C338.164 63.2457 337.665 62.7386 337.296 62.0739C336.93 61.4062 336.746 60.5937 336.746 59.6364C336.746 58.6761 336.93 57.8622 337.296 57.1946C337.665 56.527 338.164 56.0199 338.792 55.6733C339.42 55.3267 340.126 55.1534 340.91 55.1534C341.691 55.1534 342.396 55.3267 343.023 55.6733C343.654 56.0199 344.154 56.527 344.523 57.1946C344.893 57.8622 345.077 58.6761 345.077 59.6364ZM342.921 59.6364C342.921 59.0682 342.84 58.5881 342.678 58.196C342.519 57.804 342.289 57.5071 341.988 57.3054C341.69 57.1037 341.33 57.0028 340.91 57.0028C340.492 57.0028 340.133 57.1037 339.832 57.3054C339.531 57.5071 339.299 57.804 339.137 58.196C338.978 58.5881 338.898 59.0682 338.898 59.6364C338.898 60.2045 338.978 60.6847 339.137 61.0767C339.299 61.4687 339.531 61.7656 339.832 61.9673C340.133 62.169 340.492 62.2699 340.91 62.2699C341.33 62.2699 341.69 62.169 341.988 61.9673C342.289 61.7656 342.519 61.4687 342.678 61.0767C342.84 60.6847 342.921 60.2045 342.921 59.6364ZM349.535 64H346.309V55.2727H349.531C350.42 55.2727 351.185 55.4474 351.827 55.7969C352.472 56.1435 352.969 56.6435 353.319 57.2969C353.668 57.9474 353.843 58.7259 353.843 59.6321C353.843 60.5412 353.668 61.3224 353.319 61.9759C352.972 62.6293 352.477 63.1307 351.832 63.4801C351.187 63.8267 350.421 64 349.535 64ZM348.418 62.2017H349.454C349.942 62.2017 350.356 62.1193 350.694 61.9545C351.035 61.7869 351.292 61.5156 351.465 61.1406C351.641 60.7628 351.729 60.2599 351.729 59.6321C351.729 59.0043 351.641 58.5043 351.465 58.1321C351.289 57.7571 351.029 57.4872 350.685 57.3224C350.344 57.1548 349.924 57.071 349.424 57.071H348.418V62.2017ZM363.312 59.6364C363.312 60.5966 363.127 61.4105 362.758 62.0781C362.388 62.7457 361.888 63.2528 361.258 63.5994C360.63 63.946 359.925 64.1193 359.144 64.1193C358.36 64.1193 357.654 63.9446 357.026 63.5952C356.398 63.2457 355.9 62.7386 355.531 62.0739C355.164 61.4062 354.981 60.5937 354.981 59.6364C354.981 58.6761 355.164 57.8622 355.531 57.1946C355.9 56.527 356.398 56.0199 357.026 55.6733C357.654 55.3267 358.36 55.1534 359.144 55.1534C359.925 55.1534 360.63 55.3267 361.258 55.6733C361.888 56.0199 362.388 56.527 362.758 57.1946C363.127 57.8622 363.312 58.6761 363.312 59.6364ZM361.156 59.6364C361.156 59.0682 361.075 58.5881 360.913 58.196C360.754 57.804 360.523 57.5071 360.222 57.3054C359.924 57.1037 359.565 57.0028 359.144 57.0028C358.727 57.0028 358.367 57.1037 358.066 57.3054C357.765 57.5071 357.533 57.804 357.371 58.196C357.212 58.5881 357.133 59.0682 357.133 59.6364C357.133 60.2045 357.212 60.6847 357.371 61.0767C357.533 61.4687 357.765 61.7656 358.066 61.9673C358.367 62.169 358.727 62.2699 359.144 62.2699C359.565 62.2699 359.924 62.169 360.222 61.9673C360.523 61.7656 360.754 61.4687 360.913 61.0767C361.075 60.6847 361.156 60.2045 361.156 59.6364ZM247.58 71.2102V70.2727H254.125V71.2102H251.381V79H250.324V71.2102H247.58ZM255.756 79V70.2727H261.023V71.2102H256.813V74.1591H260.75V75.0966H256.813V78.0625H261.091V79H255.756ZM262.928 79V70.2727H265.877C266.559 70.2727 267.118 70.3892 267.556 70.6222C267.993 70.8523 268.317 71.169 268.527 71.5724C268.738 71.9759 268.843 72.4347 268.843 72.9489C268.843 73.4631 268.738 73.919 268.527 74.3168C268.317 74.7145 267.995 75.027 267.56 75.2543C267.125 75.4787 266.57 75.5909 265.894 75.5909H263.507V74.6364H265.86C266.326 74.6364 266.701 74.5682 266.985 74.4318C267.272 74.2955 267.479 74.1023 267.607 73.8523C267.738 73.5994 267.803 73.2983 267.803 72.9489C267.803 72.5994 267.738 72.294 267.607 72.0327C267.476 71.7713 267.267 71.5696 266.98 71.4276C266.694 71.2827 266.314 71.2102 265.843 71.2102H263.985V79H262.928ZM267.036 75.0795L269.184 79H267.956L265.843 75.0795H267.036ZM270.604 79V70.2727H273.553C274.234 70.2727 274.794 70.3892 275.232 70.6222C275.669 70.8523 275.993 71.169 276.203 71.5724C276.413 71.9759 276.518 72.4347 276.518 72.9489C276.518 73.4631 276.413 73.919 276.203 74.3168C275.993 74.7145 275.67 75.027 275.236 75.2543C274.801 75.4787 274.246 75.5909 273.57 75.5909H271.183V74.6364H273.536C274.001 74.6364 274.376 74.5682 274.661 74.4318C274.947 74.2955 275.155 74.1023 275.283 73.8523C275.413 73.5994 275.479 73.2983 275.479 72.9489C275.479 72.5994 275.413 72.294 275.283 72.0327C275.152 71.7713 274.943 71.5696 274.656 71.4276C274.369 71.2827 273.99 71.2102 273.518 71.2102H271.661V79H270.604ZM274.712 75.0795L276.859 79H275.632L273.518 75.0795H274.712ZM279.336 70.2727V79H278.279V70.2727H279.336ZM280.978 71.2102V70.2727H287.523V71.2102H284.779V79H283.722V71.2102H280.978ZM296.155 74.6364C296.155 75.5568 295.989 76.3523 295.656 77.0227C295.324 77.6932 294.868 78.2102 294.288 78.5739C293.709 78.9375 293.047 79.1193 292.303 79.1193C291.558 79.1193 290.896 78.9375 290.317 78.5739C289.737 78.2102 289.281 77.6932 288.949 77.0227C288.616 76.3523 288.45 75.5568 288.45 74.6364C288.45 73.7159 288.616 72.9205 288.949 72.25C289.281 71.5795 289.737 71.0625 290.317 70.6989C290.896 70.3352 291.558 70.1534 292.303 70.1534C293.047 70.1534 293.709 70.3352 294.288 70.6989C294.868 71.0625 295.324 71.5795 295.656 72.25C295.989 72.9205 296.155 73.7159 296.155 74.6364ZM295.132 74.6364C295.132 73.8807 295.006 73.2429 294.753 72.723C294.503 72.2031 294.163 71.8097 293.734 71.5426C293.308 71.2756 292.831 71.142 292.303 71.142C291.774 71.142 291.295 71.2756 290.866 71.5426C290.44 71.8097 290.101 72.2031 289.848 72.723C289.598 73.2429 289.473 73.8807 289.473 74.6364C289.473 75.392 289.598 76.0298 289.848 76.5497C290.101 77.0696 290.44 77.4631 290.866 77.7301C291.295 77.9972 291.774 78.1307 292.303 78.1307C292.831 78.1307 293.308 77.9972 293.734 77.7301C294.163 77.4631 294.503 77.0696 294.753 76.5497C295.006 76.0298 295.132 75.392 295.132 74.6364ZM291.842 69.3864L292.882 67.4091H294.058L292.729 69.3864H291.842ZM297.932 79V70.2727H300.881C301.563 70.2727 302.122 70.3892 302.56 70.6222C302.997 70.8523 303.321 71.169 303.531 71.5724C303.741 71.9759 303.847 72.4347 303.847 72.9489C303.847 73.4631 303.741 73.919 303.531 74.3168C303.321 74.7145 302.999 75.027 302.564 75.2543C302.129 75.4787 301.574 75.5909 300.898 75.5909H298.511V74.6364H300.864C301.33 74.6364 301.705 74.5682 301.989 74.4318C302.276 74.2955 302.483 74.1023 302.611 73.8523C302.741 73.5994 302.807 73.2983 302.807 72.9489C302.807 72.5994 302.741 72.294 302.611 72.0327C302.48 71.7713 302.271 71.5696 301.984 71.4276C301.697 71.2827 301.318 71.2102 300.847 71.2102H298.989V79H297.932ZM302.04 75.0795L304.188 79H302.96L300.847 75.0795H302.04ZM306.664 70.2727V79H305.608V70.2727H306.664ZM316.147 74.6364C316.147 75.5568 315.981 76.3523 315.648 77.0227C315.316 77.6932 314.86 78.2102 314.281 78.5739C313.701 78.9375 313.039 79.1193 312.295 79.1193C311.55 79.1193 310.888 78.9375 310.309 78.5739C309.729 78.2102 309.273 77.6932 308.941 77.0227C308.609 76.3523 308.442 75.5568 308.442 74.6364C308.442 73.7159 308.609 72.9205 308.941 72.25C309.273 71.5795 309.729 71.0625 310.309 70.6989C310.888 70.3352 311.55 70.1534 312.295 70.1534C313.039 70.1534 313.701 70.3352 314.281 70.6989C314.86 71.0625 315.316 71.5795 315.648 72.25C315.981 72.9205 316.147 73.7159 316.147 74.6364ZM315.124 74.6364C315.124 73.8807 314.998 73.2429 314.745 72.723C314.495 72.2031 314.156 71.8097 313.727 71.5426C313.3 71.2756 312.823 71.142 312.295 71.142C311.766 71.142 311.288 71.2756 310.859 71.5426C310.433 71.8097 310.093 72.2031 309.84 72.723C309.59 73.2429 309.465 73.8807 309.465 74.6364C309.465 75.392 309.59 76.0298 309.84 76.5497C310.093 77.0696 310.433 77.4631 310.859 77.7301C311.288 77.9972 311.766 78.1307 312.295 78.1307C312.823 78.1307 313.3 77.9972 313.727 77.7301C314.156 77.4631 314.495 77.0696 314.745 76.5497C314.998 76.0298 315.124 75.392 315.124 74.6364ZM328.219 70.2727V79H327.197L322.441 72.1477H322.356V79H321.299V70.2727H322.322L327.094 77.142H327.18V70.2727H328.219ZM330.692 79H329.584L332.789 70.2727H333.88L337.084 79H335.976L333.368 71.6534H333.3L330.692 79ZM331.101 75.5909H335.567V76.5284H331.101V75.5909ZM345.056 73H343.999C343.937 72.696 343.827 72.429 343.671 72.1989C343.518 71.9688 343.33 71.7756 343.109 71.6193C342.89 71.4602 342.647 71.3409 342.38 71.2614C342.113 71.1818 341.835 71.142 341.545 71.142C341.016 71.142 340.538 71.2756 340.109 71.5426C339.683 71.8097 339.343 72.2031 339.09 72.723C338.84 73.2429 338.715 73.8807 338.715 74.6364C338.715 75.392 338.84 76.0298 339.09 76.5497C339.343 77.0696 339.683 77.4631 340.109 77.7301C340.538 77.9972 341.016 78.1307 341.545 78.1307C341.835 78.1307 342.113 78.0909 342.38 78.0114C342.647 77.9318 342.89 77.8139 343.109 77.6577C343.33 77.4986 343.518 77.304 343.671 77.0739C343.827 76.8409 343.937 76.5739 343.999 76.2727H345.056C344.977 76.7187 344.832 77.1179 344.621 77.4702C344.411 77.8224 344.15 78.1222 343.837 78.3693C343.525 78.6136 343.174 78.7997 342.785 78.9276C342.398 79.0554 341.985 79.1193 341.545 79.1193C340.8 79.1193 340.138 78.9375 339.559 78.5739C338.979 78.2102 338.523 77.6932 338.191 77.0227C337.859 76.3523 337.692 75.5568 337.692 74.6364C337.692 73.7159 337.859 72.9205 338.191 72.25C338.523 71.5795 338.979 71.0625 339.559 70.6989C340.138 70.3352 340.8 70.1534 341.545 70.1534C341.985 70.1534 342.398 70.2173 342.785 70.3452C343.174 70.473 343.525 70.6605 343.837 70.9077C344.15 71.152 344.411 71.4503 344.621 71.8026C344.832 72.152 344.977 72.5511 345.056 73ZM347.821 70.2727V79H346.764V70.2727H347.821ZM357.303 74.6364C357.303 75.5568 357.137 76.3523 356.805 77.0227C356.472 77.6932 356.016 78.2102 355.437 78.5739C354.857 78.9375 354.195 79.1193 353.451 79.1193C352.707 79.1193 352.045 78.9375 351.465 78.5739C350.886 78.2102 350.43 77.6932 350.097 77.0227C349.765 76.3523 349.599 75.5568 349.599 74.6364C349.599 73.7159 349.765 72.9205 350.097 72.25C350.43 71.5795 350.886 71.0625 351.465 70.6989C352.045 70.3352 352.707 70.1534 353.451 70.1534C354.195 70.1534 354.857 70.3352 355.437 70.6989C356.016 71.0625 356.472 71.5795 356.805 72.25C357.137 72.9205 357.303 73.7159 357.303 74.6364ZM356.281 74.6364C356.281 73.8807 356.154 73.2429 355.901 72.723C355.651 72.2031 355.312 71.8097 354.883 71.5426C354.457 71.2756 353.979 71.142 353.451 71.142C352.923 71.142 352.444 71.2756 352.015 71.5426C351.589 71.8097 351.249 72.2031 350.996 72.723C350.746 73.2429 350.621 73.8807 350.621 74.6364C350.621 75.392 350.746 76.0298 350.996 76.5497C351.249 77.0696 351.589 77.4631 352.015 77.7301C352.444 77.9972 352.923 78.1307 353.451 78.1307C353.979 78.1307 354.457 77.9972 354.883 77.7301C355.312 77.4631 355.651 77.0696 355.901 76.5497C356.154 76.0298 356.281 75.392 356.281 74.6364ZM366.001 70.2727V79H364.978L360.222 72.1477H360.137V79H359.08V70.2727H360.103L364.876 77.142H364.961V70.2727H366.001ZM368.473 79H367.365L370.57 70.2727H371.661L374.865 79H373.757L371.15 71.6534H371.081L368.473 79ZM368.882 75.5909H373.348V76.5284H368.882V75.5909ZM376.225 79V70.2727H377.282V78.0625H381.338V79H376.225Z" fill="#B0B0B0"/>
<mask id="mask2_408_3147" style="mask-type:alpha" maskUnits="userSpaceOnUse" x="212" y="50" width="35" height="35">
<rect x="212" y="50" width="35" height="35" fill="#D9D9D9"/>
</mask>
<g mask="url(#mask2_408_3147)">
<path d="M226.51 82.6142V79.6357C223.472 79.2882 220.866 78.004 218.691 75.7831C216.515 73.5611 215.257 70.8989 214.917 67.7963H212V64.8179H214.917C215.257 61.7153 216.515 59.053 218.691 56.8311C220.866 54.6102 223.472 53.326 226.51 52.9785V50H229.427V52.9785C232.465 53.326 235.072 54.6102 237.248 56.8311C239.423 59.053 240.681 61.7153 241.021 64.8179H243.938V67.7963H241.021C240.681 70.8989 239.423 73.5611 237.248 75.7831C235.072 78.004 232.465 79.2882 229.427 79.6357V82.6142H226.51ZM227.969 76.7317C230.788 76.7317 233.194 75.7141 235.188 73.6788C237.181 71.6435 238.177 69.1863 238.177 66.3071C238.177 63.4279 237.181 60.9707 235.188 58.9354C233.194 56.9001 230.788 55.8825 227.969 55.8825C225.149 55.8825 222.743 56.9001 220.75 58.9354C218.757 60.9707 217.76 63.4279 217.76 66.3071C217.76 69.1863 218.757 71.6435 220.75 73.6788C222.743 75.7141 225.149 76.7317 227.969 76.7317ZM227.969 72.264C226.365 72.264 224.991 71.6807 223.849 70.5142C222.707 69.3476 222.135 67.9452 222.135 66.3071C222.135 64.6689 222.707 63.2666 223.849 62.1C224.991 60.9334 226.365 60.3502 227.969 60.3502C229.573 60.3502 230.946 60.9334 232.089 62.1C233.231 63.2666 233.802 64.6689 233.802 66.3071C233.802 67.9452 233.231 69.3476 232.089 70.5142C230.946 71.6807 229.573 72.264 227.969 72.264ZM227.969 69.2856C228.771 69.2856 229.458 68.9937 230.029 68.4099C230.6 67.8271 230.885 67.1262 230.885 66.3071C230.885 65.488 230.6 64.7866 230.029 64.2028C229.458 63.62 228.771 63.3286 227.969 63.3286C227.167 63.3286 226.48 63.62 225.91 64.2028C225.338 64.7866 225.052 65.488 225.052 66.3071C225.052 67.1262 225.338 67.8271 225.91 68.4099C226.48 68.9937 227.167 69.2856 227.969 69.2856Z" fill="#7EB4C1"/>
</g>
<path d="M44.6605 14V5.27273H48.2656C48.919 5.27273 49.483 5.40057 49.9574 5.65625C50.4347 5.90909 50.8026 6.26278 51.0611 6.71733C51.3196 7.16903 51.4489 7.6946 51.4489 8.29403C51.4489 8.89631 51.3168 9.4233 51.0526 9.875C50.7912 10.3239 50.4176 10.6719 49.9318 10.919C49.446 11.1662 48.8693 11.2898 48.2017 11.2898H45.9773V9.62784H47.8097C48.1278 9.62784 48.3935 9.57244 48.6065 9.46165C48.8224 9.35085 48.9858 9.19602 49.0966 8.99716C49.2074 8.79545 49.2628 8.56108 49.2628 8.29403C49.2628 8.02415 49.2074 7.79119 49.0966 7.59517C48.9858 7.39631 48.8224 7.2429 48.6065 7.13494C48.3906 7.02699 48.125 6.97301 47.8097 6.97301H46.7699V14H44.6605ZM53.3217 14H51.0547L53.9993 5.27273H56.8075L59.7521 14H57.4851L55.4354 7.47159H55.3672L53.3217 14ZM53.0192 10.5653H57.7578V12.1676H53.0192V10.5653ZM60.6918 14V5.27273H64.2969C64.9503 5.27273 65.5142 5.39062 65.9886 5.62642C66.4659 5.85937 66.8338 6.1946 67.0923 6.6321C67.3509 7.06676 67.4801 7.58239 67.4801 8.17898C67.4801 8.78409 67.348 9.2983 67.0838 9.72159C66.8196 10.142 66.4446 10.4631 65.9588 10.6847C65.473 10.9034 64.8977 11.0128 64.233 11.0128H61.9531V9.35085H63.8409C64.1591 9.35085 64.4247 9.30966 64.6378 9.22727C64.8537 9.14205 65.017 9.0142 65.1278 8.84375C65.2386 8.67045 65.294 8.44886 65.294 8.17898C65.294 7.90909 65.2386 7.68608 65.1278 7.50994C65.017 7.33097 64.8537 7.19744 64.6378 7.10938C64.4219 7.01847 64.1563 6.97301 63.8409 6.97301H62.8011V14H60.6918ZM65.6051 10.0114L67.7784 14H65.4773L63.3466 10.0114H65.6051ZM76.5589 8.43466H74.4283C74.3999 8.21591 74.3416 8.01847 74.2536 7.84233C74.1655 7.66619 74.049 7.51562 73.9041 7.39062C73.7592 7.26562 73.5874 7.17045 73.3885 7.10511C73.1925 7.03693 72.9751 7.00284 72.7365 7.00284C72.3132 7.00284 71.9482 7.10653 71.6413 7.31392C71.3374 7.52131 71.103 7.82102 70.9382 8.21307C70.7763 8.60511 70.6953 9.07955 70.6953 9.63636C70.6953 10.2159 70.7777 10.7017 70.9425 11.0938C71.1101 11.483 71.3445 11.777 71.6456 11.9759C71.9496 12.1719 72.3089 12.2699 72.7237 12.2699C72.9567 12.2699 73.1683 12.2401 73.3587 12.1804C73.5518 12.1207 73.7209 12.0341 73.8658 11.9205C74.0135 11.804 74.1342 11.6634 74.228 11.4986C74.3246 11.331 74.3913 11.142 74.4283 10.9318L76.5589 10.9446C76.522 11.331 76.4098 11.7116 76.2223 12.0866C76.0376 12.4616 75.7834 12.804 75.4595 13.1136C75.1357 13.4205 74.7408 13.6648 74.2749 13.8466C73.8118 14.0284 73.2805 14.1193 72.6811 14.1193C71.8913 14.1193 71.1839 13.946 70.5589 13.5994C69.9368 13.25 69.4453 12.7415 69.0845 12.0739C68.7237 11.4062 68.5433 10.5937 68.5433 9.63636C68.5433 8.67614 68.7266 7.86222 69.093 7.1946C69.4595 6.52699 69.9553 6.01989 70.5803 5.6733C71.2053 5.3267 71.9055 5.15341 72.6811 5.15341C73.2095 5.15341 73.6982 5.22727 74.147 5.375C74.5959 5.51989 74.9908 5.73295 75.3317 6.0142C75.6726 6.29261 75.9496 6.63494 76.1626 7.04119C76.3757 7.44744 76.5078 7.91193 76.5589 8.43466ZM77.766 14V5.27273H83.8512V6.9858H79.8754V8.77557H83.5401V10.4929H79.8754V12.2869H83.8512V14H77.766ZM85.1722 14V5.27273H87.2816V12.2869H90.9123V14H85.1722ZM92.0043 14V5.27273H98.0895V6.9858H94.1136V8.77557H97.7784V10.4929H94.1136V12.2869H98.0895V14H92.0043ZM106.706 7.8892C106.678 7.5767 106.551 7.33381 106.327 7.16051C106.105 6.98438 105.788 6.89631 105.376 6.89631C105.104 6.89631 104.876 6.93182 104.695 7.00284C104.513 7.07386 104.376 7.17188 104.286 7.29688C104.195 7.41903 104.148 7.55966 104.145 7.71875C104.139 7.84943 104.165 7.96449 104.222 8.06392C104.281 8.16335 104.366 8.25142 104.477 8.32812C104.591 8.40199 104.727 8.46733 104.886 8.52415C105.045 8.58097 105.224 8.63068 105.423 8.6733L106.173 8.84375C106.605 8.9375 106.986 9.0625 107.315 9.21875C107.648 9.375 107.926 9.56108 108.151 9.77699C108.378 9.9929 108.55 10.2415 108.666 10.5227C108.783 10.804 108.842 11.1193 108.845 11.4688C108.842 12.0199 108.703 12.4929 108.428 12.8878C108.152 13.2827 107.756 13.5852 107.239 13.7955C106.724 14.0057 106.104 14.1108 105.376 14.1108C104.646 14.1108 104.01 14.0014 103.467 13.7827C102.925 13.5639 102.503 13.2315 102.202 12.7855C101.901 12.3395 101.746 11.7756 101.737 11.0938H103.757C103.774 11.375 103.849 11.6094 103.983 11.7969C104.116 11.9844 104.3 12.1264 104.533 12.223C104.768 12.3196 105.041 12.3679 105.351 12.3679C105.635 12.3679 105.876 12.3295 106.075 12.2528C106.277 12.1761 106.432 12.0696 106.54 11.9332C106.648 11.7969 106.703 11.6406 106.706 11.4645C106.703 11.2997 106.652 11.1591 106.553 11.0426C106.453 10.9233 106.3 10.821 106.092 10.7358C105.888 10.6477 105.626 10.5668 105.308 10.4929L104.396 10.2798C103.641 10.1065 103.045 9.8267 102.611 9.44034C102.176 9.05114 101.96 8.52557 101.963 7.86364C101.96 7.32386 102.105 6.85085 102.398 6.4446C102.69 6.03835 103.095 5.72159 103.612 5.49432C104.129 5.26705 104.719 5.15341 105.381 5.15341C106.057 5.15341 106.643 5.26847 107.141 5.49858C107.641 5.72585 108.028 6.04545 108.304 6.45739C108.58 6.86932 108.72 7.34659 108.726 7.8892H106.706ZM115.19 5.27273H117.295V10.902C117.295 11.5526 117.141 12.1193 116.831 12.6023C116.521 13.0824 116.089 13.4545 115.536 13.7188C114.982 13.9801 114.338 14.1108 113.605 14.1108C112.864 14.1108 112.216 13.9801 111.662 13.7188C111.108 13.4545 110.678 13.0824 110.371 12.6023C110.064 12.1193 109.911 11.5526 109.911 10.902V5.27273H112.02V10.7188C112.02 11.0199 112.085 11.2884 112.216 11.5241C112.349 11.7599 112.536 11.9446 112.774 12.0781C113.013 12.2116 113.29 12.2784 113.605 12.2784C113.92 12.2784 114.196 12.2116 114.432 12.0781C114.67 11.9446 114.857 11.7599 114.99 11.5241C115.124 11.2884 115.19 11.0199 115.19 10.7188V5.27273ZM120.505 14H118.238L121.183 5.27273H123.991L126.936 14H124.669L122.619 7.47159H122.551L120.505 14ZM120.203 10.5653H124.941V12.1676H120.203V10.5653ZM132.323 7.8892C132.295 7.5767 132.168 7.33381 131.944 7.16051C131.722 6.98438 131.406 6.89631 130.994 6.89631C130.721 6.89631 130.494 6.93182 130.312 7.00284C130.13 7.07386 129.994 7.17188 129.903 7.29688C129.812 7.41903 129.765 7.55966 129.762 7.71875C129.756 7.84943 129.782 7.96449 129.839 8.06392C129.898 8.16335 129.984 8.25142 130.094 8.32812C130.208 8.40199 130.344 8.46733 130.504 8.52415C130.663 8.58097 130.842 8.63068 131.04 8.6733L131.79 8.84375C132.222 8.9375 132.603 9.0625 132.933 9.21875C133.265 9.375 133.543 9.56108 133.768 9.77699C133.995 9.9929 134.167 10.2415 134.283 10.5227C134.4 10.804 134.46 11.1193 134.462 11.4688C134.46 12.0199 134.32 12.4929 134.045 12.8878C133.769 13.2827 133.373 13.5852 132.856 13.7955C132.342 14.0057 131.721 14.1108 130.994 14.1108C130.263 14.1108 129.627 14.0014 129.085 13.7827C128.542 13.5639 128.12 13.2315 127.819 12.7855C127.518 12.3395 127.363 11.7756 127.354 11.0938H129.374C129.391 11.375 129.467 11.6094 129.6 11.7969C129.734 11.9844 129.917 12.1264 130.15 12.223C130.386 12.3196 130.658 12.3679 130.968 12.3679C131.252 12.3679 131.494 12.3295 131.692 12.2528C131.894 12.1761 132.049 12.0696 132.157 11.9332C132.265 11.7969 132.32 11.6406 132.323 11.4645C132.32 11.2997 132.269 11.1591 132.17 11.0426C132.07 10.9233 131.917 10.821 131.71 10.7358C131.505 10.6477 131.244 10.5668 130.925 10.4929L130.013 10.2798C129.258 10.1065 128.663 9.8267 128.228 9.44034C127.793 9.05114 127.577 8.52557 127.58 7.86364C127.577 7.32386 127.722 6.85085 128.015 6.4446C128.308 6.03835 128.712 5.72159 129.229 5.49432C129.746 5.26705 130.336 5.15341 130.998 5.15341C131.674 5.15341 132.261 5.26847 132.758 5.49858C133.258 5.72585 133.646 6.04545 133.921 6.45739C134.197 6.86932 134.337 7.34659 134.343 7.8892H132.323ZM146.028 8.43466H143.897C143.869 8.21591 143.81 8.01847 143.722 7.84233C143.634 7.66619 143.518 7.51562 143.373 7.39062C143.228 7.26562 143.056 7.17045 142.857 7.10511C142.661 7.03693 142.444 7.00284 142.205 7.00284C141.782 7.00284 141.417 7.10653 141.11 7.31392C140.806 7.52131 140.572 7.82102 140.407 8.21307C140.245 8.60511 140.164 9.07955 140.164 9.63636C140.164 10.2159 140.246 10.7017 140.411 11.0938C140.579 11.483 140.813 11.777 141.114 11.9759C141.418 12.1719 141.778 12.2699 142.192 12.2699C142.425 12.2699 142.637 12.2401 142.827 12.1804C143.021 12.1207 143.19 12.0341 143.335 11.9205C143.482 11.804 143.603 11.6634 143.697 11.4986C143.793 11.331 143.86 11.142 143.897 10.9318L146.028 10.9446C145.991 11.331 145.879 11.7116 145.691 12.0866C145.506 12.4616 145.252 12.804 144.928 13.1136C144.604 13.4205 144.21 13.6648 143.744 13.8466C143.281 14.0284 142.749 14.1193 142.15 14.1193C141.36 14.1193 140.653 13.946 140.028 13.5994C139.406 13.25 138.914 12.7415 138.553 12.0739C138.192 11.4062 138.012 10.5937 138.012 9.63636C138.012 8.67614 138.195 7.86222 138.562 7.1946C138.928 6.52699 139.424 6.01989 140.049 5.6733C140.674 5.3267 141.374 5.15341 142.15 5.15341C142.678 5.15341 143.167 5.22727 143.616 5.375C144.065 5.51989 144.46 5.73295 144.8 6.0142C145.141 6.29261 145.418 6.63494 145.631 7.04119C145.844 7.44744 145.977 7.91193 146.028 8.43466ZM155.472 9.63636C155.472 10.5966 155.287 11.4105 154.918 12.0781C154.549 12.7457 154.049 13.2528 153.418 13.5994C152.79 13.946 152.086 14.1193 151.304 14.1193C150.52 14.1193 149.814 13.9446 149.186 13.5952C148.559 13.2457 148.06 12.7386 147.691 12.0739C147.324 11.4062 147.141 10.5937 147.141 9.63636C147.141 8.67614 147.324 7.86222 147.691 7.1946C148.06 6.52699 148.559 6.01989 149.186 5.6733C149.814 5.3267 150.52 5.15341 151.304 5.15341C152.086 5.15341 152.79 5.3267 153.418 5.6733C154.049 6.01989 154.549 6.52699 154.918 7.1946C155.287 7.86222 155.472 8.67614 155.472 9.63636ZM153.316 9.63636C153.316 9.06818 153.235 8.58807 153.073 8.19602C152.914 7.80398 152.684 7.5071 152.382 7.3054C152.084 7.10369 151.725 7.00284 151.304 7.00284C150.887 7.00284 150.527 7.10369 150.226 7.3054C149.925 7.5071 149.694 7.80398 149.532 8.19602C149.373 8.58807 149.293 9.06818 149.293 9.63636C149.293 10.2045 149.373 10.6847 149.532 11.0767C149.694 11.4687 149.925 11.7656 150.226 11.9673C150.527 12.169 150.887 12.2699 151.304 12.2699C151.725 12.2699 152.084 12.169 152.382 11.9673C152.684 11.7656 152.914 11.4687 153.073 11.0767C153.235 10.6847 153.316 10.2045 153.316 9.63636ZM156.703 5.27273H159.316L161.532 10.6761H161.634L163.85 5.27273H166.462V14H164.408V8.6392H164.336L162.239 13.9446H160.926L158.83 8.60938H158.757V14H156.703V5.27273ZM167.778 14V5.27273H171.383C172.036 5.27273 172.6 5.40057 173.075 5.65625C173.552 5.90909 173.92 6.26278 174.178 6.71733C174.437 7.16903 174.566 7.6946 174.566 8.29403C174.566 8.89631 174.434 9.4233 174.17 9.875C173.908 10.3239 173.535 10.6719 173.049 10.919C172.563 11.1662 171.987 11.2898 171.319 11.2898H169.094V9.62784H170.927C171.245 9.62784 171.511 9.57244 171.724 9.46165C171.94 9.35085 172.103 9.19602 172.214 8.99716C172.325 8.79545 172.38 8.56108 172.38 8.29403C172.38 8.02415 172.325 7.79119 172.214 7.59517C172.103 7.39631 171.94 7.2429 171.724 7.13494C171.508 7.02699 171.242 6.97301 170.927 6.97301H169.887V14H167.778ZM175.606 14V5.27273H179.211C179.864 5.27273 180.428 5.39062 180.903 5.62642C181.38 5.85937 181.748 6.1946 182.006 6.6321C182.265 7.06676 182.394 7.58239 182.394 8.17898C182.394 8.78409 182.262 9.2983 181.998 9.72159C181.734 10.142 181.359 10.4631 180.873 10.6847C180.387 10.9034 179.812 11.0128 179.147 11.0128H176.867V9.35085H178.755C179.073 9.35085 179.339 9.30966 179.552 9.22727C179.768 9.14205 179.931 9.0142 180.042 8.84375C180.153 8.67045 180.208 8.44886 180.208 8.17898C180.208 7.90909 180.153 7.68608 180.042 7.50994C179.931 7.33097 179.768 7.19744 179.552 7.10938C179.336 7.01847 179.07 6.97301 178.755 6.97301H177.715V14H175.606ZM180.519 10.0114L182.692 14H180.391L178.261 10.0114H180.519ZM185.439 14H183.172L186.116 5.27273H188.925L191.869 14H189.602L187.553 7.47159H187.484L185.439 14ZM185.136 10.5653H189.875V12.1676H185.136V10.5653ZM197.257 7.8892C197.228 7.5767 197.102 7.33381 196.877 7.16051C196.656 6.98438 196.339 6.89631 195.927 6.89631C195.654 6.89631 195.427 6.93182 195.245 7.00284C195.064 7.07386 194.927 7.17188 194.836 7.29688C194.745 7.41903 194.699 7.55966 194.696 7.71875C194.69 7.84943 194.716 7.96449 194.772 8.06392C194.832 8.16335 194.917 8.25142 195.028 8.32812C195.142 8.40199 195.278 8.46733 195.437 8.52415C195.596 8.58097 195.775 8.63068 195.974 8.6733L196.724 8.84375C197.156 8.9375 197.537 9.0625 197.866 9.21875C198.199 9.375 198.477 9.56108 198.701 9.77699C198.929 9.9929 199.1 10.2415 199.217 10.5227C199.333 10.804 199.393 11.1193 199.396 11.4688C199.393 12.0199 199.254 12.4929 198.978 12.8878C198.703 13.2827 198.306 13.5852 197.789 13.7955C197.275 14.0057 196.654 14.1108 195.927 14.1108C195.197 14.1108 194.561 14.0014 194.018 13.7827C193.475 13.5639 193.054 13.2315 192.752 12.7855C192.451 12.3395 192.297 11.7756 192.288 11.0938H194.308C194.325 11.375 194.4 11.6094 194.534 11.7969C194.667 11.9844 194.85 12.1264 195.083 12.223C195.319 12.3196 195.592 12.3679 195.902 12.3679C196.186 12.3679 196.427 12.3295 196.626 12.2528C196.828 12.1761 196.983 12.0696 197.091 11.9332C197.199 11.7969 197.254 11.6406 197.257 11.4645C197.254 11.2997 197.203 11.1591 197.103 11.0426C197.004 10.9233 196.85 10.821 196.643 10.7358C196.439 10.6477 196.177 10.5668 195.859 10.4929L194.947 10.2798C194.191 10.1065 193.596 9.8267 193.162 9.44034C192.727 9.05114 192.511 8.52557 192.514 7.86364C192.511 7.32386 192.656 6.85085 192.949 6.4446C193.241 6.03835 193.646 5.72159 194.163 5.49432C194.68 5.26705 195.27 5.15341 195.931 5.15341C196.608 5.15341 197.194 5.26847 197.691 5.49858C198.191 5.72585 198.579 6.04545 198.855 6.45739C199.13 6.86932 199.271 7.34659 199.277 7.8892H197.257ZM45.0568 29V20.2727H50.3239V21.2102H46.1136V24.1591H50.0511V25.0966H46.1136V28.0625H50.392V29H45.0568ZM52.2287 20.2727H53.4901L56.456 27.517H56.5582L59.5241 20.2727H60.7855V29H59.7969V22.3693H59.7116L56.9844 29H56.0298L53.3026 22.3693H53.2173V29H52.2287V20.2727ZM66.6374 29H65.5295L68.734 20.2727H69.8249L73.0295 29H71.9215L69.3136 21.6534H69.2454L66.6374 29ZM67.0465 25.5909H71.5124V26.5284H67.0465V25.5909ZM72.892 21.2102V20.2727H79.4375V21.2102H76.6932V29H75.6364V21.2102H72.892ZM81.0685 29V20.2727H86.3356V21.2102H82.1254V24.1591H86.0629V25.0966H82.1254V28.0625H86.4038V29H81.0685ZM83.2333 19.3864L84.2731 17.4091H85.4492L84.1197 19.3864H83.2333ZM94.3597 29.1193C94.0018 29.1136 93.6438 29.0455 93.2859 28.9148C92.9279 28.7841 92.6012 28.5639 92.3058 28.2543C92.0103 27.9418 91.7731 27.5199 91.5941 26.9886C91.4151 26.4545 91.3256 25.7841 91.3256 24.9773C91.3256 24.2045 91.3981 23.5199 91.543 22.9233C91.6879 22.3239 91.8981 21.8196 92.1737 21.4105C92.4492 20.9986 92.7816 20.6861 93.1708 20.473C93.5629 20.2599 94.0046 20.1534 94.4961 20.1534C94.9847 20.1534 95.4194 20.2514 95.8001 20.4474C96.1836 20.6406 96.4961 20.9105 96.7376 21.2571C96.979 21.6037 97.1353 22.0028 97.2063 22.4545H96.1665C96.07 22.0625 95.8825 21.7372 95.604 21.4787C95.3256 21.2202 94.9563 21.0909 94.4961 21.0909C93.82 21.0909 93.2873 21.3849 92.8981 21.973C92.5117 22.5611 92.3171 23.3864 92.3143 24.4489H92.3825C92.5415 24.2074 92.7305 24.0014 92.9492 23.831C93.1708 23.6577 93.4151 23.5241 93.6822 23.4304C93.9492 23.3366 94.2319 23.2898 94.5302 23.2898C95.0302 23.2898 95.4876 23.4148 95.9023 23.6648C96.3171 23.9119 96.6495 24.2543 96.8995 24.6918C97.1495 25.1264 97.2745 25.625 97.2745 26.1875C97.2745 26.7273 97.1538 27.2216 96.9123 27.6705C96.6708 28.1165 96.3313 28.4716 95.8938 28.7358C95.4592 28.9972 94.9478 29.125 94.3597 29.1193ZM94.3597 28.1818C94.7177 28.1818 95.0387 28.0923 95.3228 27.9134C95.6097 27.7344 95.8356 27.4943 96.0004 27.1932C96.168 26.892 96.2518 26.5568 96.2518 26.1875C96.2518 25.8267 96.1708 25.4986 96.0089 25.2031C95.8498 24.9048 95.6296 24.6676 95.3484 24.4915C95.07 24.3153 94.7518 24.2273 94.3938 24.2273C94.1239 24.2273 93.8725 24.2812 93.6396 24.3892C93.4066 24.4943 93.2021 24.6392 93.0259 24.8239C92.8526 25.0085 92.7163 25.2202 92.6168 25.4588C92.5174 25.6946 92.4677 25.9432 92.4677 26.2045C92.4677 26.5511 92.5487 26.875 92.7106 27.1761C92.8754 27.4773 93.0998 27.7202 93.3839 27.9048C93.6708 28.0895 93.9961 28.1818 94.3597 28.1818ZM99.6151 20.2727L101.865 23.9034H101.933L104.183 20.2727H105.428L102.683 24.6364L105.428 29H104.183L101.933 25.4375H101.865L99.6151 29H98.3707L101.183 24.6364L98.3707 20.2727H99.6151ZM114.951 22.4545C114.9 22.0227 114.692 21.6875 114.328 21.4489C113.965 21.2102 113.519 21.0909 112.99 21.0909C112.604 21.0909 112.266 21.1534 111.976 21.2784C111.689 21.4034 111.465 21.5753 111.303 21.794C111.144 22.0128 111.064 22.2614 111.064 22.5398C111.064 22.7727 111.12 22.973 111.23 23.1406C111.344 23.3054 111.489 23.4432 111.665 23.554C111.841 23.6619 112.026 23.7514 112.219 23.8224C112.412 23.8906 112.59 23.946 112.752 23.9886L113.638 24.2273C113.865 24.2869 114.118 24.3693 114.397 24.4744C114.678 24.5795 114.946 24.723 115.202 24.9048C115.461 25.0838 115.674 25.3139 115.841 25.5952C116.009 25.8764 116.093 26.2216 116.093 26.6307C116.093 27.1023 115.969 27.5284 115.722 27.9091C115.478 28.2898 115.12 28.5923 114.648 28.8168C114.179 29.0412 113.61 29.1534 112.939 29.1534C112.314 29.1534 111.773 29.0526 111.316 28.8509C110.861 28.6491 110.503 28.3679 110.242 28.0071C109.983 27.6463 109.837 27.2273 109.803 26.75H110.894C110.922 27.0795 111.033 27.3523 111.226 27.5682C111.422 27.7812 111.669 27.9403 111.968 28.0455C112.269 28.1477 112.593 28.1989 112.939 28.1989C113.343 28.1989 113.705 28.1335 114.026 28.0028C114.347 27.8693 114.601 27.6847 114.789 27.4489C114.976 27.2102 115.07 26.9318 115.07 26.6136C115.07 26.3239 114.989 26.0881 114.827 25.9062C114.665 25.7244 114.452 25.5767 114.188 25.4631C113.924 25.3494 113.638 25.25 113.331 25.1648L112.257 24.858C111.576 24.6619 111.036 24.3821 110.638 24.0185C110.24 23.6548 110.042 23.179 110.042 22.5909C110.042 22.1023 110.174 21.6761 110.438 21.3125C110.705 20.946 111.063 20.6619 111.512 20.4602C111.963 20.2557 112.468 20.1534 113.025 20.1534C113.587 20.1534 114.087 20.2543 114.525 20.456C114.962 20.6548 115.309 20.9276 115.564 21.2741C115.823 21.6207 115.959 22.0142 115.973 22.4545H114.951ZM117.83 29V20.2727H123.097V21.2102H118.887V24.1591H122.825V25.0966H118.887V28.0625H123.165V29H117.83ZM125.002 20.2727H126.263L129.229 27.517H129.332L132.298 20.2727H133.559V29H132.57V22.3693H132.485L129.758 29H128.803L126.076 22.3693H125.991V29H125.002V20.2727ZM142.394 20.2727H143.451V26.5114C143.451 27.0682 143.348 27.5412 143.144 27.9304C142.939 28.3196 142.651 28.6151 142.279 28.8168C141.907 29.0185 141.468 29.1193 140.962 29.1193C140.485 29.1193 140.06 29.0327 139.688 28.8594C139.316 28.6832 139.023 28.4332 138.81 28.1094C138.597 27.7855 138.49 27.4006 138.49 26.9545H139.53C139.53 27.2017 139.591 27.4176 139.713 27.6023C139.838 27.7841 140.009 27.9261 140.225 28.0284C140.441 28.1307 140.686 28.1818 140.962 28.1818C141.266 28.1818 141.525 28.1179 141.738 27.9901C141.951 27.8622 142.113 27.6747 142.223 27.4276C142.337 27.1776 142.394 26.8722 142.394 26.5114V20.2727ZM151.296 20.2727H152.353V26.0511C152.353 26.6477 152.212 27.1804 151.931 27.6491C151.652 28.1151 151.259 28.483 150.75 28.7528C150.242 29.0199 149.645 29.1534 148.961 29.1534C148.276 29.1534 147.679 29.0199 147.171 28.7528C146.662 28.483 146.267 28.1151 145.986 27.6491C145.708 27.1804 145.569 26.6477 145.569 26.0511V20.2727H146.625V25.9659C146.625 26.392 146.719 26.7713 146.907 27.1037C147.094 27.4332 147.361 27.6932 147.708 27.8835C148.057 28.071 148.475 28.1648 148.961 28.1648C149.446 28.1648 149.864 28.071 150.213 27.8835C150.563 27.6932 150.83 27.4332 151.015 27.1037C151.202 26.7713 151.296 26.392 151.296 25.9659V20.2727ZM154.463 29V20.2727H157.412C158.094 20.2727 158.653 20.3892 159.091 20.6222C159.528 20.8523 159.852 21.169 160.062 21.5724C160.273 21.9759 160.378 22.4347 160.378 22.9489C160.378 23.4631 160.273 23.919 160.062 24.3168C159.852 24.7145 159.53 25.027 159.095 25.2543C158.661 25.4787 158.105 25.5909 157.429 25.5909H155.043V24.6364H157.395C157.861 24.6364 158.236 24.5682 158.52 24.4318C158.807 24.2955 159.014 24.1023 159.142 23.8523C159.273 23.5994 159.338 23.2983 159.338 22.9489C159.338 22.5994 159.273 22.294 159.142 22.0327C159.011 21.7713 158.803 21.5696 158.516 21.4276C158.229 21.2827 157.849 21.2102 157.378 21.2102H155.52V29H154.463ZM158.571 25.0795L160.719 29H159.491L157.378 25.0795H158.571ZM169.502 24.6364C169.502 25.5568 169.336 26.3523 169.004 27.0227C168.672 27.6932 168.216 28.2102 167.636 28.5739C167.056 28.9375 166.395 29.1193 165.65 29.1193C164.906 29.1193 164.244 28.9375 163.664 28.5739C163.085 28.2102 162.629 27.6932 162.297 27.0227C161.964 26.3523 161.798 25.5568 161.798 24.6364C161.798 23.7159 161.964 22.9205 162.297 22.25C162.629 21.5795 163.085 21.0625 163.664 20.6989C164.244 20.3352 164.906 20.1534 165.65 20.1534C166.395 20.1534 167.056 20.3352 167.636 20.6989C168.216 21.0625 168.672 21.5795 169.004 22.25C169.336 22.9205 169.502 23.7159 169.502 24.6364ZM168.48 24.6364C168.48 23.8807 168.353 23.2429 168.1 22.723C167.85 22.2031 167.511 21.8097 167.082 21.5426C166.656 21.2756 166.179 21.142 165.65 21.142C165.122 21.142 164.643 21.2756 164.214 21.5426C163.788 21.8097 163.449 22.2031 163.196 22.723C162.946 23.2429 162.821 23.8807 162.821 24.6364C162.821 25.392 162.946 26.0298 163.196 26.5497C163.449 27.0696 163.788 27.4631 164.214 27.7301C164.643 27.9972 165.122 28.1307 165.65 28.1307C166.179 28.1307 166.656 27.9972 167.082 27.7301C167.511 27.4631 167.85 27.0696 168.1 26.5497C168.353 26.0298 168.48 25.392 168.48 24.6364ZM176.052 22.4545C176.001 22.0227 175.794 21.6875 175.43 21.4489C175.066 21.2102 174.62 21.0909 174.092 21.0909C173.706 21.0909 173.368 21.1534 173.078 21.2784C172.791 21.4034 172.566 21.5753 172.404 21.794C172.245 22.0128 172.166 22.2614 172.166 22.5398C172.166 22.7727 172.221 22.973 172.332 23.1406C172.446 23.3054 172.591 23.4432 172.767 23.554C172.943 23.6619 173.127 23.7514 173.321 23.8224C173.514 23.8906 173.691 23.946 173.853 23.9886L174.74 24.2273C174.967 24.2869 175.22 24.3693 175.498 24.4744C175.779 24.5795 176.048 24.723 176.304 24.9048C176.562 25.0838 176.775 25.3139 176.943 25.5952C177.11 25.8764 177.194 26.2216 177.194 26.6307C177.194 27.1023 177.071 27.5284 176.824 27.9091C176.579 28.2898 176.221 28.5923 175.75 28.8168C175.281 29.0412 174.711 29.1534 174.041 29.1534C173.416 29.1534 172.875 29.0526 172.417 28.8509C171.963 28.6491 171.605 28.3679 171.343 28.0071C171.085 27.6463 170.939 27.2273 170.904 26.75H171.995C172.024 27.0795 172.135 27.3523 172.328 27.5682C172.524 27.7812 172.771 27.9403 173.069 28.0455C173.37 28.1477 173.694 28.1989 174.041 28.1989C174.444 28.1989 174.806 28.1335 175.127 28.0028C175.449 27.8693 175.703 27.6847 175.89 27.4489C176.078 27.2102 176.172 26.9318 176.172 26.6136C176.172 26.3239 176.091 26.0881 175.929 25.9062C175.767 25.7244 175.554 25.5767 175.289 25.4631C175.025 25.3494 174.74 25.25 174.433 25.1648L173.359 24.858C172.677 24.6619 172.137 24.3821 171.74 24.0185C171.342 23.6548 171.143 23.179 171.143 22.5909C171.143 22.1023 171.275 21.6761 171.539 21.3125C171.806 20.946 172.164 20.6619 172.613 20.4602C173.065 20.2557 173.569 20.1534 174.126 20.1534C174.689 20.1534 175.189 20.2543 175.626 20.456C176.064 20.6548 176.41 20.9276 176.666 21.2741C176.924 21.6207 177.061 22.0142 177.075 22.4545H176.052Z" fill="#B0B0B0"/>
<mask id="mask3_408_3147" style="mask-type:alpha" maskUnits="userSpaceOnUse" x="0" y="4" width="38" height="37">
<rect y="4" width="38" height="37" fill="#D9D9D9"/>
</mask>
<g mask="url(#mask3_408_3147)">
<path d="M35.3486 9.51026V28.4039C35.3486 29.2698 35.0374 30.0114 34.4149 30.6286C33.7913 31.2447 33.0421 31.5528 32.1672 31.5528H6.71606C5.84118 31.5528 5.09249 31.2447 4.47 30.6286C3.84644 30.0114 3.53467 29.2698 3.53467 28.4039V9.51026C3.53467 8.64431 3.84644 7.90326 4.47 7.28712C5.09249 6.66992 5.84118 6.36133 6.71606 6.36133H32.1672C33.0421 6.36133 33.7913 6.66992 34.4149 7.28712C35.0374 7.90326 35.3486 8.64431 35.3486 9.51026ZM6.71606 12.6592H32.1672V9.51026H6.71606V12.6592ZM6.71606 18.9571V28.4039H32.1672V18.9571H6.71606Z" fill="#7EB4C1"/>
</g>
</svg>
