<svg width="21" height="21" viewBox="0 0 21 21" fill="none" xmlns="http://www.w3.org/2000/svg">
<mask id="mask0_1_13895" style="mask-type:alpha" maskUnits="userSpaceOnUse" x="0" y="0" width="21" height="21">
<rect x="0.614258" y="0.154297" width="20" height="20" fill="#D9D9D9"/>
</mask>
<g mask="url(#mask0_1_13895)">
<path d="M3.94792 16.8206C3.48958 16.8206 3.09736 16.6576 2.77125 16.3315C2.44458 16.0048 2.28125 15.6123 2.28125 15.154V5.15397C2.28125 4.69564 2.44458 4.30342 2.77125 3.9773C3.09736 3.65064 3.48958 3.4873 3.94792 3.4873H17.2812C17.7396 3.4873 18.1321 3.65064 18.4587 3.9773C18.7849 4.30342 18.9479 4.69564 18.9479 5.15397V15.154C18.9479 15.6123 18.7849 16.0048 18.4587 16.3315C18.1321 16.6576 17.7396 16.8206 17.2812 16.8206H3.94792ZM10.6146 10.9873L3.94792 6.82064V15.154H17.2812V6.82064L10.6146 10.9873ZM10.6146 9.32064L17.2812 5.15397H3.94792L10.6146 9.32064ZM3.94792 6.82064V5.15397V15.154V6.82064Z" fill="#7EB4C1"/>
</g>
</svg>
