<svg width="25" height="25" viewBox="0 0 25 25" fill="none" xmlns="http://www.w3.org/2000/svg">
<path d="M12.4997 12.4997C10.8955 12.4997 9.52224 11.9285 8.37988 10.7861C7.23752 9.64377 6.66634 8.27051 6.66634 6.66634C6.66634 5.06217 7.23752 3.68891 8.37988 2.54655C9.52224 1.40419 10.8955 0.833008 12.4997 0.833008C14.1038 0.833008 15.4771 1.40419 16.6195 2.54655C17.7618 3.68891 18.333 5.06217 18.333 6.66634C18.333 8.27051 17.7618 9.64377 16.6195 10.7861C15.4771 11.9285 14.1038 12.4997 12.4997 12.4997ZM0.833008 24.1663V20.083C0.833008 19.2566 1.04592 18.4968 1.47176 17.8036C1.89662 17.1114 2.46148 16.583 3.16634 16.2184C4.67329 15.465 6.20454 14.8996 7.76009 14.5224C9.31565 14.1461 10.8955 13.958 12.4997 13.958C14.1038 13.958 15.6837 14.1461 17.2393 14.5224C18.7948 14.8996 20.3261 15.465 21.833 16.2184C22.5379 16.583 23.1027 17.1114 23.5276 17.8036C23.9534 18.4968 24.1663 19.2566 24.1663 20.083V24.1663H0.833008ZM3.74967 21.2497H21.2497V20.083C21.2497 19.8156 21.1831 19.5726 21.0499 19.3538C20.9157 19.1351 20.7393 18.965 20.5205 18.8434C19.208 18.1872 17.8834 17.6947 16.5465 17.3661C15.2097 17.0385 13.8608 16.8747 12.4997 16.8747C11.1386 16.8747 9.78961 17.0385 8.4528 17.3661C7.11599 17.6947 5.79134 18.1872 4.47884 18.8434C4.26009 18.965 4.08412 19.1351 3.95092 19.3538C3.81676 19.5726 3.74967 19.8156 3.74967 20.083V21.2497ZM12.4997 9.58301C13.3018 9.58301 13.9886 9.29717 14.5603 8.72551C15.131 8.15481 15.4163 7.46842 15.4163 6.66634C15.4163 5.86426 15.131 5.17787 14.5603 4.60717C13.9886 4.03551 13.3018 3.74967 12.4997 3.74967C11.6976 3.74967 11.0112 4.03551 10.4405 4.60717C9.86884 5.17787 9.58301 5.86426 9.58301 6.66634C9.58301 7.46842 9.86884 8.15481 10.4405 8.72551C11.0112 9.29717 11.6976 9.58301 12.4997 9.58301Z" fill="#7EB4C1"/>
</svg>
