<svg width="35" height="35" viewBox="0 0 35 35" fill="none" xmlns="http://www.w3.org/2000/svg">
<mask id="mask0_408_775" style="mask-type:alpha" maskUnits="userSpaceOnUse" x="0" y="0" width="35" height="35">
<rect width="35" height="35" fill="#D9D9D9"/>
</mask>
<g mask="url(#mask0_408_775)">
<path d="M10.2083 32.0837C9.40617 32.0837 8.71978 31.7983 8.14909 31.2276C7.57742 30.6559 7.29159 29.9691 7.29159 29.167C7.29159 28.3649 7.57742 27.678 8.14909 27.1064C8.71978 26.5357 9.40617 26.2503 10.2083 26.2503C11.0103 26.2503 11.6967 26.5357 12.2674 27.1064C12.8391 27.678 13.1249 28.3649 13.1249 29.167C13.1249 29.9691 12.8391 30.6559 12.2674 31.2276C11.6967 31.7983 11.0103 32.0837 10.2083 32.0837ZM24.7916 32.0837C23.9895 32.0837 23.3031 31.7983 22.7324 31.2276C22.1608 30.6559 21.8749 29.9691 21.8749 29.167C21.8749 28.3649 22.1608 27.678 22.7324 27.1064C23.3031 26.5357 23.9895 26.2503 24.7916 26.2503C25.5937 26.2503 26.2805 26.5357 26.8522 27.1064C27.4229 27.678 27.7083 28.3649 27.7083 29.167C27.7083 29.9691 27.4229 30.6559 26.8522 31.2276C26.2805 31.7983 25.5937 32.0837 24.7916 32.0837ZM8.96867 8.75033L12.4687 16.042H22.677L26.6874 8.75033H8.96867ZM7.58325 5.83366H29.0937C29.6527 5.83366 30.078 6.08255 30.3697 6.58033C30.6614 7.07908 30.6735 7.58366 30.4062 8.09408L25.2291 17.4274C24.9617 17.9135 24.603 18.2903 24.1528 18.5576C23.7037 18.825 23.2117 18.9587 22.677 18.9587H11.8124L10.2083 21.8753H27.7083V24.792H10.2083C9.1145 24.792 8.28811 24.3117 7.72909 23.3512C7.17006 22.3916 7.14575 21.4378 7.65617 20.4899L9.62492 16.917L4.37492 5.83366H1.45825V2.91699H6.19784L7.58325 5.83366Z" fill="#7EB4C1"/>
</g>
</svg>
