<svg width="35" height="35" viewBox="0 0 35 35" fill="none" xmlns="http://www.w3.org/2000/svg">
<mask id="mask0_408_1911" style="mask-type:alpha" maskUnits="userSpaceOnUse" x="0" y="0" width="35" height="35">
<rect width="35" height="35" fill="#D9D9D9"/>
</mask>
<g mask="url(#mask0_408_1911)">
<path d="M11.6667 16.042C12.0799 16.042 12.4265 15.902 12.7065 15.622C12.9856 15.343 13.1251 14.9969 13.1251 14.5837C13.1251 14.1705 12.9856 13.8239 12.7065 13.5439C12.4265 13.2648 12.0799 13.1253 11.6667 13.1253C11.2536 13.1253 10.907 13.2648 10.627 13.5439C10.3479 13.8239 10.2084 14.1705 10.2084 14.5837C10.2084 14.9969 10.3479 15.343 10.627 15.622C10.907 15.902 11.2536 16.042 11.6667 16.042ZM17.5001 16.042C17.9133 16.042 18.2599 15.902 18.5399 15.622C18.8189 15.343 18.9584 14.9969 18.9584 14.5837C18.9584 14.1705 18.8189 13.8239 18.5399 13.5439C18.2599 13.2648 17.9133 13.1253 17.5001 13.1253C17.0869 13.1253 16.7408 13.2648 16.4617 13.5439C16.1817 13.8239 16.0417 14.1705 16.0417 14.5837C16.0417 14.9969 16.1817 15.343 16.4617 15.622C16.7408 15.902 17.0869 16.042 17.5001 16.042ZM23.3334 16.042C23.7466 16.042 24.0927 15.902 24.3717 15.622C24.6517 15.343 24.7917 14.9969 24.7917 14.5837C24.7917 14.1705 24.6517 13.8239 24.3717 13.5439C24.0927 13.2648 23.7466 13.1253 23.3334 13.1253C22.9202 13.1253 22.5741 13.2648 22.2951 13.5439C22.0151 13.8239 21.8751 14.1705 21.8751 14.5837C21.8751 14.9969 22.0151 15.343 22.2951 15.622C22.5741 15.902 22.9202 16.042 23.3334 16.042ZM2.91675 32.0837V5.83366C2.91675 5.03158 3.20258 4.3447 3.77425 3.77303C4.34494 3.20234 5.03133 2.91699 5.83341 2.91699H29.1667C29.9688 2.91699 30.6557 3.20234 31.2274 3.77303C31.7981 4.3447 32.0834 5.03158 32.0834 5.83366V23.3337C32.0834 24.1357 31.7981 24.8226 31.2274 25.3943C30.6557 25.965 29.9688 26.2503 29.1667 26.2503H8.75008L2.91675 32.0837ZM5.83341 25.0472L7.54696 23.3337H29.1667V5.83366H5.83341V25.0472Z" fill="#7EB4C1"/>
</g>
</svg>
