<svg width="25" height="25" viewBox="0 0 25 25" fill="none" xmlns="http://www.w3.org/2000/svg">
<mask id="mask0_1_13891" style="mask-type:alpha" maskUnits="userSpaceOnUse" x="0" y="0" width="25" height="25">
<rect width="25" height="25" fill="#D9D9D9"/>
</mask>
<g mask="url(#mask0_1_13891)">
<path d="M21.901 11.5104V19.7917C21.901 20.3646 21.6972 20.8552 21.2895 21.2635C20.8812 21.6712 20.3906 21.875 19.8176 21.875H5.23432C4.6614 21.875 4.17112 21.6712 3.76348 21.2635C3.35515 20.8552 3.15098 20.3646 3.15098 19.7917V11.5104C2.75168 11.1458 2.44369 10.6771 2.22702 10.1042C2.00966 9.53125 2.00515 8.90625 2.21348 8.22917L3.30723 4.6875C3.44612 4.23611 3.69369 3.86285 4.04994 3.56771C4.4055 3.27257 4.81765 3.125 5.2864 3.125H19.7656C20.2343 3.125 20.6423 3.26806 20.9895 3.55417C21.3367 3.84097 21.5885 4.21875 21.7447 4.6875L22.8385 8.22917C23.0468 8.90625 23.0426 9.52257 22.826 10.0781C22.6086 10.6337 22.3003 11.1111 21.901 11.5104ZM14.8176 10.4167C15.2864 10.4167 15.6423 10.2559 15.8854 9.93437C16.1284 9.61354 16.2239 9.25347 16.1718 8.85417L15.5989 5.20833H13.5676V9.0625C13.5676 9.42708 13.6892 9.7441 13.9322 10.0135C14.1753 10.2823 14.4704 10.4167 14.8176 10.4167ZM10.1301 10.4167C10.5295 10.4167 10.8552 10.2823 11.1072 10.0135C11.3586 9.7441 11.4843 9.42708 11.4843 9.0625V5.20833H9.45307L8.88015 8.85417C8.81071 9.27083 8.90202 9.63542 9.15411 9.94792C9.4055 10.2604 9.73084 10.4167 10.1301 10.4167ZM5.49473 10.4167C5.80723 10.4167 6.0805 10.3038 6.31452 10.0781C6.54925 9.85243 6.69265 9.56597 6.74473 9.21875L7.31765 5.20833H5.2864L4.24473 8.69792C4.14057 9.04514 4.19682 9.4184 4.41348 9.81771C4.63084 10.217 4.99126 10.4167 5.49473 10.4167ZM19.5572 10.4167C20.0607 10.4167 20.4253 10.217 20.651 9.81771C20.8767 9.4184 20.9288 9.04514 20.8072 8.69792L19.7135 5.20833H17.7343L18.3072 9.21875C18.3593 9.56597 18.5027 9.85243 18.7374 10.0781C18.9715 10.3038 19.2447 10.4167 19.5572 10.4167ZM5.23432 19.7917H19.8176V12.4479C19.7308 12.4826 19.6746 12.5 19.6489 12.5H19.5572C19.0885 12.5 18.676 12.4219 18.3197 12.2656C17.9642 12.1094 17.6128 11.8576 17.2656 11.5104C16.9531 11.8229 16.5972 12.066 16.1979 12.2396C15.7986 12.4132 15.3732 12.5 14.9218 12.5C14.4531 12.5 14.0145 12.4132 13.6062 12.2396C13.1986 12.066 12.8385 11.8229 12.526 11.5104C12.2308 11.8229 11.8881 12.066 11.4979 12.2396C11.1069 12.4132 10.6857 12.5 10.2343 12.5C9.73084 12.5 9.27494 12.4132 8.86661 12.2396C8.45897 12.066 8.0989 11.8229 7.7864 11.5104C7.42182 11.875 7.06175 12.1309 6.70619 12.2781C6.34994 12.426 5.94612 12.5 5.49473 12.5H5.37807C5.33432 12.5 5.2864 12.4826 5.23432 12.4479V19.7917Z" fill="#7EB4C1"/>
</g>
</svg>
