<svg width="22" height="22" viewBox="0 0 22 22" fill="none" xmlns="http://www.w3.org/2000/svg">
<path d="M20.2171 6.53225C19.7116 5.45259 18.986 4.48327 18.0647 3.64791C17.1434 2.82044 16.0753 2.16634 14.8849 1.70926C13.6538 1.23642 12.3493 1 11.004 1C9.65871 1 8.35419 1.23642 7.12306 1.70926C5.93269 2.16634 4.86462 2.81256 3.94331 3.64791C3.022 4.48327 2.29637 5.45259 1.79088 6.53225C1.26907 7.65131 1 8.84917 1 10.0786C1 12.23 1.83162 14.2947 3.35627 15.9339L2.54095 20.2289L6.87846 18.3612C8.17482 18.8971 9.55271 19.165 10.9958 19.165C12.3411 19.165 13.6456 18.9286 14.8768 18.4557C16.0671 17.9987 17.1352 17.3524 18.0565 16.5171C18.9778 15.6817 19.7034 14.7124 20.2089 13.6328C20.7307 12.5137 20.9998 11.3158 20.9998 10.0864C21.008 8.84917 20.7389 7.65919 20.2171 6.53225Z" stroke="#7EB4C1" stroke-width="2"/>
<path d="M15.0642 11.8914C14.6402 11.6865 14.3304 11.5605 14.1103 11.4816C13.9717 11.4344 13.6455 11.2925 13.5314 11.3792C13.1726 11.6629 12.7894 12.4667 12.3818 12.6165C11.3708 12.4273 10.4332 11.7575 9.69938 11.0718C9.37325 10.7724 8.76991 9.92127 8.63946 9.69273C8.615 9.45631 9.05526 9.14108 9.1531 8.95982C9.6586 8.40817 9.27541 8.06142 9.21019 7.83288C9.09604 7.59646 8.90037 7.1709 8.72916 6.82415C8.5824 6.59561 8.54975 6.25674 8.28885 6.13065C7.18002 5.579 6.5441 6.6823 6.2832 7.25759C4.70963 10.9221 14.1673 17.8965 16.0915 13.0893C16.1893 12.6716 16.1485 12.514 16.0018 12.3249C15.7083 12.1279 15.3658 12.0412 15.0642 11.8914Z" stroke="#7EB4C1" stroke-width="2"/>
</svg>
